{"glyphs":{"0":{"ha":669,"x_min":146,"x_max":799,"o":"m 639 713 q 760 665 722 713 q 799 532 799 618 q 633 181 799 367 q 301 -11 464 -11 q 185 37 224 -11 q 146 164 146 85 q 304 522 146 338 q 639 713 468 713 m 324 13 q 603 206 478 13 q 715 543 715 379 q 690 643 715 604 q 603 689 661 689 q 339 490 461 689 q 229 158 229 313 q 257 42 229 76 q 324 13 281 13 z "},"1":{"ha":494,"x_min":142,"x_max":693,"o":"m 535 589 q 399 518 474 550 q 253 467 342 494 l 247 485 q 479 576 360 511 q 688 714 574 628 l 693 707 q 464 365 578 536 q 256 10 339 172 l 142 -12 l 535 589 z "},"2":{"ha":669,"x_min":6,"x_max":769,"o":"m 678 222 q 572 64 629 121 q 403 -12 496 -12 q 290 31 368 -12 q 165 74 213 74 q 79 51 110 74 q 15 -12 47 19 l 6 3 q 196 135 19 53 q 513 297 436 244 q 681 546 681 411 q 644 657 681 613 q 542 701 608 701 q 419 656 472 701 q 367 540 367 610 q 388 480 367 507 q 443 453 410 453 q 468 457 456 453 q 494 468 481 461 l 503 463 q 403 403 472 403 q 334 431 358 403 q 310 506 310 460 q 388 663 310 601 q 564 725 465 725 q 709 681 649 725 q 769 556 769 638 q 650 343 769 436 q 394 206 571 282 q 154 92 201 122 q 199 109 175 100 q 244 118 224 118 q 364 81 286 118 q 479 44 442 44 q 592 108 538 44 q 667 224 617 138 l 678 222 z "},"3":{"ha":669,"x_min":68,"x_max":804,"o":"m 363 378 q 592 413 546 397 q 721 576 721 457 q 692 665 721 629 q 611 700 664 700 q 512 668 556 700 q 468 582 468 636 q 483 527 468 550 q 529 504 499 504 q 578 515 553 504 q 552 469 578 486 q 494 453 526 453 q 434 478 457 453 q 411 542 411 504 q 479 674 411 624 q 632 725 547 725 q 755 687 706 725 q 804 576 804 649 q 700 432 804 485 q 514 379 628 396 q 615 334 578 372 q 651 231 651 296 q 529 47 651 117 q 301 -11 425 -11 q 147 29 213 -11 q 68 161 68 78 q 101 256 68 217 q 189 294 135 294 q 231 288 211 294 q 264 264 250 281 l 263 257 l 243 260 q 169 222 196 260 q 143 136 143 185 q 194 35 143 69 q 310 6 239 6 q 490 70 411 6 q 568 235 568 135 q 530 331 568 304 q 426 358 492 358 q 363 354 394 358 l 363 378 z "},"4":{"ha":669,"x_min":100,"x_max":829,"o":"m 558 269 l 722 269 l 711 250 l 547 250 l 394 13 l 297 -1 l 463 250 l 100 250 l 772 821 l 813 821 l 149 272 l 474 269 l 750 688 l 829 696 l 558 269 z "},"5":{"ha":669,"x_min":93,"x_max":861,"o":"m 642 715 q 750 663 683 663 q 857 701 810 663 l 861 694 q 790 628 838 656 q 696 601 742 601 q 632 617 668 601 q 593 635 613 625 l 364 404 q 489 429 425 429 q 608 389 564 429 q 653 274 653 349 q 540 69 653 158 q 315 -12 436 -12 q 164 31 226 -12 q 93 167 93 79 q 127 260 93 222 q 217 299 161 299 q 259 290 238 299 q 296 264 281 281 l 294 257 l 268 260 q 195 226 222 260 q 168 146 168 193 q 208 44 168 82 q 314 7 249 7 q 498 89 425 7 q 571 283 571 171 q 541 372 571 340 q 454 404 511 404 q 381 392 418 404 q 310 360 343 379 l 300 367 l 642 715 z "},"6":{"ha":669,"x_min":181,"x_max":1132,"o":"m 544 524 q 343 379 438 524 q 257 133 257 247 q 282 32 257 63 q 342 7 303 7 q 543 154 450 7 q 626 404 626 288 q 613 485 626 458 q 544 524 593 524 m 571 546 q 674 507 638 546 q 710 400 710 468 q 583 130 710 271 q 329 -11 457 -11 q 219 42 257 -11 q 181 171 181 96 q 445 669 181 414 q 954 924 710 924 q 1071 900 1025 924 q 1132 804 1132 868 q 1119 756 1132 779 q 1083 718 1106 733 l 1088 763 q 1040 860 1088 821 q 932 899 993 899 q 583 733 760 899 q 340 414 444 603 q 442 504 390 471 q 571 546 507 546 z "},"7":{"ha":669,"x_min":114,"x_max":901,"o":"m 114 -144 l 861 690 q 776 635 815 654 q 688 617 736 617 q 589 645 651 617 q 493 674 526 674 q 417 639 450 674 q 343 553 379 596 l 335 565 q 397 656 343 588 q 468 757 450 724 l 482 753 q 432 665 461 707 q 499 708 479 699 q 576 725 533 725 q 688 686 603 725 q 757 668 726 668 q 826 685 796 668 q 892 733 857 701 l 901 726 l 236 -131 l 114 -144 z "},"8":{"ha":669,"x_min":150,"x_max":890,"o":"m 658 410 q 781 483 738 429 q 824 619 824 538 q 788 753 824 697 q 671 817 746 817 q 555 759 593 817 q 517 621 517 701 q 551 472 517 556 q 631 228 631 283 q 553 57 631 124 q 368 -10 475 -10 q 213 51 276 -10 q 150 203 150 111 q 250 404 150 328 q 471 474 342 474 q 449 542 456 514 q 442 604 442 571 q 517 769 442 704 q 694 835 592 835 q 838 779 785 835 q 890 633 890 724 q 818 478 890 544 q 663 394 757 422 l 658 410 m 408 13 q 528 74 492 13 q 557 211 557 122 q 545 301 557 260 q 479 457 533 342 q 292 400 356 457 q 228 219 228 343 q 277 74 228 135 q 408 13 326 13 z "},"9":{"ha":669,"x_min":-325,"x_max":736,"o":"m 571 706 q 375 564 463 706 q 296 321 296 436 q 308 238 296 267 q 375 194 326 194 q 575 338 488 194 q 653 588 653 465 q 638 667 653 638 q 571 706 617 706 m 339 171 q 246 213 279 171 q 213 317 213 254 q 337 585 213 444 q 588 725 461 725 q 697 681 657 725 q 736 565 736 638 q 603 190 736 392 q 281 -149 471 -12 q -94 -292 79 -292 q -243 -257 -178 -292 q -325 -137 -325 -214 q -260 -46 -325 -68 l -264 -92 q -202 -221 -264 -174 q -56 -268 -140 -268 q 208 -167 74 -268 q 431 67 321 -82 q 582 318 519 188 q 476 217 532 254 q 339 171 408 171 z "}," ":{"ha":333,"x_min":0,"x_max":0,"o":""},"!":{"ha":444,"x_min":92,"x_max":572,"o":"m 213 192 q 297 331 289 315 q 378 474 321 371 q 426 588 389 493 q 478 690 457 665 q 526 714 500 714 q 558 700 544 714 q 572 668 572 686 q 558 625 572 643 q 446 479 507 554 q 331 336 340 349 q 222 185 260 246 l 213 192 m 193 50 q 178 14 193 29 q 143 -1 163 -1 q 107 14 122 -1 q 92 50 92 29 q 107 86 92 71 q 142 101 122 101 q 178 86 163 101 q 193 50 193 71 z "},"\"":{"ha":444,"x_min":288,"x_max":554,"o":"m 343 590 l 331 582 q 317 590 321 583 q 308 619 313 596 q 296 754 300 710 q 288 890 288 844 q 297 939 288 919 q 329 958 306 958 q 363 935 354 958 q 372 886 372 913 q 363 720 372 829 q 343 590 354 611 m 524 590 l 511 582 q 481 678 493 585 q 468 890 468 772 q 477 939 468 919 q 511 958 486 958 q 545 935 536 958 q 554 886 554 913 q 544 724 554 840 q 524 590 533 608 z "},"#":{"ha":669,"x_min":188,"x_max":761,"o":"m 663 232 l 550 232 l 454 -1 l 400 -1 l 497 232 l 357 232 l 261 -1 l 207 -1 l 303 232 l 188 232 l 201 278 l 324 278 l 388 440 l 272 440 l 286 486 l 408 486 l 503 714 l 557 714 l 463 486 l 601 486 l 697 714 l 751 714 l 656 486 l 761 486 l 747 440 l 636 440 l 571 278 l 676 278 l 663 232 m 442 440 l 378 278 l 517 278 l 582 440 l 442 440 z "},"$":{"ha":669,"x_min":131,"x_max":849,"o":"m 706 700 q 673 704 694 703 q 640 706 651 706 q 531 655 574 706 q 489 535 489 604 q 500 476 489 504 q 529 425 507 461 l 706 700 m 294 31 q 331 21 311 24 q 371 18 350 18 q 504 67 451 18 q 557 197 557 115 q 539 276 557 233 q 496 346 521 318 l 294 31 m 788 800 l 732 714 q 816 666 783 699 q 849 585 849 633 q 828 517 849 547 q 771 486 807 486 l 742 489 q 772 535 763 507 q 782 593 782 564 q 718 694 782 668 l 536 413 q 594 326 579 356 q 622 228 622 275 q 540 60 622 126 q 360 -3 464 -3 q 279 10 319 -3 l 238 -56 l 224 -47 l 264 14 q 169 75 203 39 q 131 179 131 118 q 165 269 131 231 q 250 308 199 308 l 289 304 q 228 242 251 279 q 206 163 206 206 q 278 36 206 82 l 486 358 q 440 432 456 400 q 421 517 421 475 q 492 667 421 610 q 658 725 563 725 q 717 718 685 725 l 774 808 l 788 800 z "},"%":{"ha":1043,"x_min":222,"x_max":1097,"o":"m 1097 289 q 999 94 1097 190 q 800 -1 900 -1 q 676 122 676 -1 q 776 314 676 226 q 982 401 876 401 q 1066 372 1035 401 q 1097 289 1097 342 m 739 71 q 800 18 739 18 q 961 136 881 18 q 1036 333 1036 246 q 979 383 1036 383 q 817 271 896 383 q 739 71 739 158 m 735 572 q 688 585 710 572 q 649 621 665 599 q 546 413 647 518 q 342 307 444 307 q 256 340 289 307 q 222 428 222 374 q 322 624 222 531 q 526 718 421 718 q 663 632 592 718 q 740 592 696 592 q 878 665 813 592 q 963 738 944 738 l 979 717 q 883 585 950 658 q 772 463 828 524 q 631 289 735 418 q 486 113 542 179 q 336 -56 404 15 l 328 -47 q 482 167 379 38 q 679 406 549 250 q 857 619 822 575 q 799 585 832 599 q 735 572 767 572 m 335 325 q 504 443 419 325 q 585 643 585 554 q 529 699 585 699 q 361 583 443 699 q 285 385 285 475 q 296 340 285 356 q 335 325 307 325 z "},"&":{"ha":819,"x_min":71,"x_max":996,"o":"m 996 163 q 857 36 943 83 q 678 -11 771 -11 q 552 6 614 -11 q 443 60 490 24 q 358 9 403 28 q 264 -10 313 -10 q 126 39 182 -10 q 71 169 71 88 q 132 325 71 253 q 269 428 185 388 q 339 621 269 525 q 508 725 415 725 q 570 702 546 725 q 594 642 594 679 q 496 519 594 583 q 346 439 488 514 q 383 267 346 350 q 485 118 419 183 q 633 290 488 119 q 804 410 736 410 q 862 391 836 410 q 888 342 888 372 q 881 316 888 329 q 865 290 875 303 q 826 332 851 318 q 769 346 801 346 q 624 250 713 346 q 496 108 560 179 q 594 39 539 65 q 707 13 650 13 q 864 58 788 13 q 986 169 932 99 l 996 163 m 489 706 q 378 613 419 706 q 344 457 344 539 q 469 528 428 494 q 536 649 536 582 q 525 690 536 675 q 489 706 514 706 m 283 24 q 426 74 365 24 q 310 225 350 139 q 269 411 269 311 q 178 324 210 386 q 146 192 146 261 q 183 76 146 128 q 283 24 221 24 z "},"'":{"ha":296,"x_min":283,"x_max":368,"o":"m 339 590 l 326 582 q 313 590 317 583 q 304 619 308 596 q 292 754 296 710 q 283 890 283 844 q 292 939 283 919 q 325 958 301 958 q 359 935 350 958 q 368 886 368 913 q 359 720 368 829 q 339 590 350 611 z "},"(":{"ha":521,"x_min":49,"x_max":889,"o":"m 889 922 q 299 376 526 735 q 67 -386 67 13 l 49 -386 q 258 411 49 71 q 889 938 476 764 l 889 922 z "},")":{"ha":521,"x_min":-311,"x_max":531,"o":"m -311 -371 q 275 176 39 -200 q 511 938 511 551 l 531 938 q 321 140 531 482 q -311 -386 101 -215 l -311 -371 z "},"*":{"ha":444,"x_min":272,"x_max":646,"o":"m 435 775 q 368 829 383 817 q 315 888 315 875 q 340 917 315 910 q 415 844 372 904 q 450 792 442 806 q 464 886 456 849 q 507 958 481 958 q 524 948 521 958 q 526 929 528 938 q 506 860 526 914 q 476 786 490 822 l 622 838 q 646 810 646 832 q 566 774 646 785 q 481 763 486 763 q 568 692 524 726 q 601 646 601 660 q 581 624 601 632 q 503 693 544 638 q 465 744 483 718 q 449 632 457 688 q 414 583 435 583 l 397 589 l 392 606 q 411 675 392 619 q 439 750 425 713 q 367 721 403 735 q 296 700 313 700 q 281 707 289 700 q 272 722 272 714 q 343 765 272 753 q 435 775 422 774 z "},"+":{"ha":804,"x_min":282,"x_max":747,"o":"m 490 464 l 539 464 l 539 256 l 747 256 l 747 207 l 539 207 l 539 -1 l 490 -1 l 490 207 l 282 207 l 282 256 l 490 256 l 490 464 z "},",":{"ha":333,"x_min":-46,"x_max":194,"o":"m -46 -157 q 78 -106 19 -151 q 147 1 138 -61 l 133 -1 q 100 11 114 -1 q 86 44 86 24 q 100 85 86 69 q 140 100 114 100 q 180 80 165 100 q 194 33 194 60 q 113 -106 194 -46 q -46 -168 43 -156 l -46 -157 z "},"-":{"ha":444,"x_min":96,"x_max":425,"o":"m 425 251 l 408 211 l 96 211 l 113 251 l 425 251 z "},".":{"ha":333,"x_min":86,"x_max":189,"o":"m 189 50 q 174 14 189 29 q 138 -1 158 -1 q 101 14 117 -1 q 86 50 86 29 q 101 86 86 71 q 138 101 117 101 q 174 86 158 101 q 189 50 189 71 z "},"/":{"ha":371,"x_min":142,"x_max":576,"o":"m 142 -22 l 524 958 l 576 958 l 194 -22 l 142 -22 z "},":":{"ha":333,"x_min":86,"x_max":429,"o":"m 139 104 q 174 88 158 104 q 189 51 189 71 q 174 17 189 32 q 138 1 158 1 q 101 15 117 1 q 86 51 86 29 q 101 89 86 74 q 139 104 117 104 m 382 463 q 415 446 401 463 q 429 410 429 429 q 376 361 429 361 q 343 376 357 361 q 329 411 329 392 q 345 448 329 433 q 382 463 361 463 z "},";":{"ha":333,"x_min":-46,"x_max":431,"o":"m -46 -157 q 78 -106 19 -151 q 147 1 138 -61 l 133 -1 q 100 11 114 -1 q 86 44 86 24 q 100 85 86 69 q 140 100 114 100 q 180 80 165 100 q 194 33 194 60 q 113 -106 194 -46 q -46 -168 43 -156 l -46 -157 m 382 464 q 415 450 400 464 q 431 417 431 436 q 416 378 431 394 q 379 363 401 363 q 344 378 360 363 q 329 413 329 393 q 345 449 329 435 q 382 464 361 464 z "},"<":{"ha":804,"x_min":269,"x_max":735,"o":"m 735 -10 l 269 206 l 269 257 l 735 472 l 735 424 l 319 232 l 735 39 l 735 -10 z "},"=":{"ha":804,"x_min":282,"x_max":747,"o":"m 747 297 l 282 297 l 282 344 l 747 344 l 747 297 m 747 118 l 282 118 l 282 167 l 747 167 l 747 118 z "},">":{"ha":804,"x_min":325,"x_max":790,"o":"m 325 39 l 740 232 l 325 424 l 325 472 l 790 257 l 790 206 l 325 -10 l 325 39 z "},"?":{"ha":594,"x_min":92,"x_max":643,"o":"m 196 176 q 339 294 236 242 q 496 385 469 361 q 569 568 569 451 q 534 667 569 629 q 436 706 499 706 q 297 649 360 706 q 233 517 233 593 q 249 440 233 467 q 315 404 269 404 q 374 419 346 404 q 424 458 401 433 l 436 450 q 382 403 415 421 q 313 385 349 385 q 224 418 256 385 q 192 510 192 451 q 281 665 192 600 q 456 725 361 725 q 592 683 540 725 q 643 557 643 640 q 550 390 643 458 q 360 290 528 374 q 210 172 243 232 l 196 176 m 193 49 q 178 13 193 28 q 143 -3 163 -3 q 107 13 122 -3 q 92 49 92 28 q 107 85 92 69 q 142 100 122 100 q 178 85 163 100 q 193 49 193 69 z "},"@":{"ha":1074,"x_min":149,"x_max":1128,"o":"m 593 251 q 733 371 667 251 q 793 560 793 478 q 775 632 793 603 q 713 667 753 667 q 572 557 635 667 q 518 375 518 461 q 531 294 518 324 q 593 251 549 251 m 829 700 l 918 701 q 861 497 882 574 q 821 300 821 351 q 883 239 821 239 q 1038 346 976 239 q 1089 538 1089 436 q 960 825 1089 713 q 660 932 838 932 q 340 779 458 932 q 232 432 232 639 q 363 132 232 256 q 672 8 493 8 q 817 32 742 8 q 954 88 871 49 l 967 61 q 819 -1 893 22 q 675 -24 746 -24 q 311 103 463 -24 q 149 446 149 238 q 294 811 149 664 q 658 958 440 958 q 986 847 853 958 q 1128 539 1128 729 q 1058 315 1128 417 q 861 200 979 200 q 779 225 815 200 q 733 297 738 254 q 667 231 692 249 q 578 200 625 200 q 471 257 507 200 q 440 379 440 304 q 514 603 440 499 q 711 718 596 718 q 772 699 746 718 q 814 646 797 681 l 829 700 z "},"A":{"ha":1267,"x_min":114,"x_max":1444,"o":"m 803 417 q 654 240 719 310 q 458 67 551 131 q 250 -12 343 -12 q 160 4 192 -12 q 114 81 114 28 q 128 120 114 104 q 167 136 143 136 q 200 121 186 136 q 214 86 214 106 l 189 46 q 222 24 201 31 q 265 18 243 18 q 604 231 408 18 q 988 654 800 443 q 1425 958 1225 903 l 1429 951 q 1147 567 1283 815 q 999 121 999 296 q 1010 54 999 75 q 1068 24 1026 24 q 1318 215 1149 24 q 1433 358 1386 292 l 1444 351 q 1264 131 1332 203 q 1035 -12 1126 -12 q 944 32 974 -12 q 914 142 914 76 q 936 282 914 204 q 983 417 949 326 l 803 417 m 992 436 q 1138 688 1064 582 q 1329 907 1226 815 q 1136 781 1233 861 q 965 615 1051 711 q 815 436 911 556 l 992 436 z "},"B":{"ha":1193,"x_min":129,"x_max":1296,"o":"m 624 606 q 628 556 626 583 q 631 515 631 528 q 569 311 631 399 q 388 214 501 214 q 238 278 294 214 q 181 436 181 342 q 408 818 181 663 q 850 958 613 958 q 987 947 926 958 q 1108 903 1047 935 q 1296 967 1193 951 l 1296 949 q 1131 888 1206 936 q 1194 813 1171 854 q 1217 719 1217 771 q 1138 558 1217 626 q 969 478 1069 500 q 1097 424 1049 469 q 1144 301 1144 379 q 1042 84 1144 181 q 818 -12 940 -12 q 706 13 751 -12 q 647 107 647 44 q 669 165 647 140 q 725 189 690 189 q 742 183 731 189 q 765 171 754 176 q 731 145 740 168 q 722 90 722 122 q 750 30 722 53 q 817 7 778 7 q 1000 104 932 7 q 1061 311 1061 192 q 1009 426 1061 392 q 874 460 957 460 l 874 478 q 1067 553 993 478 q 1142 747 1142 629 q 1097 860 1142 808 q 860 529 1004 776 q 617 156 694 244 q 282 -22 461 -22 q 182 0 225 -22 q 129 81 129 28 q 144 123 129 107 q 185 139 158 139 q 218 124 204 139 q 232 89 232 108 q 219 56 232 69 q 188 42 207 42 q 222 7 194 18 q 279 -4 250 -4 q 558 182 413 -4 q 808 565 585 215 q 1076 881 963 806 q 974 928 1033 915 q 844 940 914 940 q 438 806 624 940 q 232 443 232 657 q 267 303 232 360 q 388 233 310 233 q 574 361 522 233 q 607 604 607 444 l 624 606 z "},"C":{"ha":894,"x_min":192,"x_max":1110,"o":"m 735 749 l 733 714 q 763 642 733 664 q 847 619 793 619 q 993 692 928 619 q 1058 846 1058 764 q 1028 919 1058 899 q 944 940 999 940 q 496 685 718 940 q 279 204 279 436 q 319 61 279 118 q 449 -4 365 -4 q 675 100 574 -4 q 776 331 776 204 q 745 412 776 383 q 658 440 714 440 l 657 458 q 783 424 740 458 q 826 310 826 390 q 701 71 826 171 q 442 -22 585 -22 q 262 45 332 -22 q 192 221 192 113 q 448 706 192 454 q 940 958 704 958 q 1058 928 1014 958 q 1110 819 1110 892 q 1024 660 1110 725 q 846 600 944 600 q 753 625 786 600 q 714 711 714 654 l 715 749 l 735 749 z "},"D":{"ha":1193,"x_min":158,"x_max":1338,"o":"m 1338 981 q 1211 938 1271 968 q 1097 861 1151 908 q 1183 722 1156 806 q 1211 547 1211 638 q 1021 142 1211 311 q 596 -22 836 -22 q 515 -15 558 -22 q 383 3 403 3 q 322 -3 360 3 q 217 -15 239 -15 q 176 -6 194 -15 q 158 14 158 4 q 176 37 158 29 q 211 44 194 44 q 297 31 240 44 q 381 17 354 17 q 599 204 458 17 q 850 579 665 293 q 1063 864 1000 811 q 940 926 1008 906 q 801 947 871 947 q 419 806 589 947 q 242 449 242 657 q 278 301 242 357 q 408 236 321 236 q 622 375 550 236 q 681 642 681 486 l 699 642 l 699 601 q 622 338 699 449 q 389 213 536 213 q 235 285 292 213 q 183 451 183 351 q 393 819 183 661 q 806 967 589 967 q 953 945 883 967 q 1078 878 1022 924 q 1200 952 1138 922 q 1333 994 1263 982 l 1338 981 m 1142 644 q 1128 753 1142 706 q 1079 842 1114 800 q 886 539 1004 751 q 689 224 761 314 q 408 13 563 65 q 490 1 446 4 q 585 -3 533 -3 q 993 200 833 -3 q 1142 644 1142 389 z "},"E":{"ha":894,"x_min":118,"x_max":989,"o":"m 447 249 q 549 343 490 308 q 675 378 607 378 q 780 344 739 378 q 821 249 821 311 q 672 53 821 138 q 421 -22 542 -22 q 218 28 301 -22 q 118 199 118 88 q 246 422 118 351 q 471 546 358 483 q 499 680 483 558 q 563 864 514 801 q 806 960 638 960 q 929 928 878 960 q 989 821 989 890 q 915 681 989 735 q 760 632 850 632 q 733 635 749 632 q 706 640 717 638 l 707 658 q 768 650 736 650 q 880 703 832 650 q 928 824 928 757 q 891 913 928 885 q 792 940 854 940 q 629 854 674 940 q 583 676 621 838 q 490 533 558 567 q 351 464 422 499 q 247 375 279 424 q 207 221 207 315 q 277 61 207 121 q 449 1 347 1 q 649 64 560 1 q 747 240 747 133 q 725 325 747 294 q 644 360 699 360 q 539 322 592 360 q 458 240 493 290 l 447 249 z "},"F":{"ha":1043,"x_min":81,"x_max":1510,"o":"m 754 433 l 757 451 l 817 453 q 924 613 914 599 q 1050 754 990 703 q 1221 847 1126 819 q 1089 849 1140 847 q 868 854 886 854 q 633 831 749 854 q 389 738 481 799 q 275 547 275 661 q 332 440 275 478 q 454 408 381 408 q 672 476 578 408 q 775 661 775 550 q 765 729 775 696 l 781 731 q 796 653 796 692 q 676 461 796 542 q 451 389 569 389 q 317 424 369 389 q 256 543 256 464 q 414 788 256 693 q 753 896 539 861 q 1068 921 908 921 l 1454 921 q 1492 915 1474 921 q 1510 893 1510 910 q 1470 854 1510 864 q 1363 844 1431 844 q 1313 846 1344 844 q 1271 847 1281 847 q 1251 846 1257 846 q 1046 688 1157 838 q 899 454 1038 676 q 1018 476 957 454 q 1129 529 1074 503 l 1165 524 q 1060 421 1110 476 q 972 304 1011 365 l 963 308 q 993 379 974 342 q 1032 449 1019 426 l 890 433 q 744 224 806 297 q 560 57 654 114 q 315 -11 446 -11 q 161 26 228 -11 q 81 154 81 72 q 97 206 81 185 q 143 228 114 228 q 176 214 164 228 q 189 178 189 200 q 178 144 189 157 q 149 131 168 131 q 138 132 142 131 q 199 31 138 63 q 324 6 246 6 q 529 76 433 6 q 685 244 606 132 q 806 433 704 272 l 754 433 z "},"G":{"ha":819,"x_min":32,"x_max":1124,"o":"m 619 1067 q 556 932 556 1010 q 562 878 556 903 q 583 835 568 854 q 773 926 672 893 q 975 960 874 960 q 1093 931 1056 960 q 1124 863 1124 907 q 1021 733 1124 775 q 843 703 946 703 q 704 722 768 703 q 594 789 640 742 q 442 622 514 732 q 364 413 364 503 q 387 313 364 347 q 472 279 410 279 q 701 410 610 279 q 847 540 793 540 l 871 519 q 713 281 792 400 q 521 69 614 139 q 251 -22 399 -22 q 101 22 164 -22 q 32 157 32 72 q 50 220 32 194 q 104 246 68 246 q 139 232 124 246 q 154 197 154 218 q 101 150 154 150 q 83 153 94 150 l 81 117 q 142 25 81 60 q 256 -4 193 -4 q 428 54 343 -4 q 564 190 494 100 q 669 344 607 244 q 558 278 617 303 q 439 254 499 254 q 319 300 365 254 q 274 419 274 346 q 375 650 274 526 q 569 824 458 751 q 536 928 536 872 q 556 1008 536 969 q 610 1076 576 1047 l 619 1067 m 951 940 q 769 899 868 940 q 608 803 682 861 q 717 739 649 760 q 844 722 772 722 q 990 757 926 722 q 1068 876 1068 800 q 1010 936 1068 925 q 951 940 986 940 z "},"H":{"ha":1118,"x_min":49,"x_max":1600,"o":"m 629 717 q 639 680 635 697 q 643 656 643 663 q 567 511 643 569 q 408 457 496 457 q 286 492 336 457 q 229 601 229 532 q 436 844 229 751 q 868 949 593 915 q 1239 972 1063 972 l 1261 957 q 1244 938 1256 943 q 1214 933 1232 933 q 1189 935 1197 935 q 1001 846 1104 935 q 831 654 915 772 q 711 468 776 579 l 901 468 q 1061 676 972 576 q 1281 872 1172 800 q 1522 960 1413 960 q 1576 942 1553 960 q 1600 894 1600 924 l 1557 847 q 1508 886 1533 849 q 1457 924 1483 924 q 1197 756 1349 924 q 958 399 1063 606 q 853 79 853 192 q 862 25 853 49 q 897 1 871 1 q 1039 71 957 1 q 1175 219 1103 125 q 1272 360 1233 296 l 1288 353 q 1185 200 1240 272 q 1040 47 1110 103 q 878 -24 951 -24 q 792 12 821 -24 q 764 106 764 47 q 825 326 764 204 q 893 449 842 361 l 703 449 q 575 250 629 325 q 403 68 489 133 q 189 -12 296 -12 q 99 7 136 -12 q 49 82 49 33 q 65 119 49 104 q 106 135 82 135 q 137 122 124 135 q 150 89 150 108 q 139 58 150 71 q 110 46 128 46 q 143 17 119 26 q 194 7 167 7 q 465 224 317 7 q 740 647 603 435 q 1110 932 922 890 l 1078 932 q 785 907 935 932 q 460 804 582 874 q 306 586 306 718 q 337 506 306 538 q 417 475 368 475 q 560 526 499 475 q 622 651 622 576 q 610 715 622 682 l 629 717 z "},"I":{"ha":819,"x_min":-24,"x_max":1296,"o":"m 44 217 q 81 203 67 217 q 96 169 96 190 q 82 133 96 147 q 46 119 68 119 l 43 101 q 101 19 43 49 q 210 -4 149 -4 q 538 193 378 -4 q 804 590 671 392 q 1114 892 967 829 l 1072 892 q 799 874 921 892 q 504 783 613 846 q 367 572 367 704 q 397 488 367 519 q 482 456 428 456 q 624 510 563 456 q 686 642 686 565 q 686 667 686 654 q 681 685 682 679 l 697 688 l 707 635 q 635 494 707 551 q 478 436 564 436 q 351 474 399 436 q 299 592 299 515 q 500 817 299 731 q 919 915 656 883 q 1272 938 1103 938 l 1296 922 q 1266 902 1290 907 q 1208 897 1242 897 l 1176 897 q 929 660 1076 897 q 639 217 700 289 q 207 -24 436 -24 q 54 17 121 -24 q -24 146 -24 64 q -5 197 -24 176 q 44 217 14 217 z "},"J":{"ha":819,"x_min":-253,"x_max":1286,"o":"m 685 675 q 693 643 690 657 q 696 618 696 629 q 626 477 696 535 q 469 419 556 419 q 343 456 393 419 q 286 571 286 497 q 486 806 286 714 q 904 913 643 878 q 1261 938 1090 938 l 1286 919 q 1259 899 1279 907 q 1194 892 1239 892 l 1160 892 q 960 711 1090 892 q 731 347 871 589 q 567 71 586 99 q 803 177 708 111 q 979 363 897 243 l 992 353 q 801 156 906 224 q 550 49 715 100 q 399 -157 474 -71 q 201 -329 300 -269 q -42 -401 82 -401 q -182 -362 -122 -401 q -253 -240 -253 -317 q -107 -61 -253 -126 q 199 13 -6 -15 q 467 50 460 49 q 643 353 554 201 q 853 669 764 561 q 1114 889 981 826 l 1079 889 q 801 865 939 889 q 499 767 613 833 q 354 556 354 682 q 386 472 354 506 q 469 439 418 439 q 615 492 554 439 q 675 624 675 546 q 668 674 675 646 l 685 675 m 454 29 q 217 1 335 15 q -54 -71 40 -25 q -183 -243 -183 -135 q -147 -347 -183 -311 q -43 -383 -111 -383 q 160 -314 60 -383 q 326 -153 242 -257 q 454 29 376 -90 z "},"K":{"ha":1193,"x_min":122,"x_max":1672,"o":"m 1364 353 q 1243 208 1313 283 q 1076 58 1157 115 q 913 -12 978 -12 q 839 10 868 -12 q 810 75 810 32 q 867 243 810 124 q 914 335 888 286 q 924 369 921 356 q 928 403 928 383 q 906 456 928 444 q 836 468 883 468 l 817 481 q 847 493 818 493 q 874 492 863 493 q 897 489 886 490 q 1114 607 997 489 q 1314 829 1214 718 q 1549 949 1436 949 q 1628 933 1594 949 q 1672 872 1672 913 q 1658 831 1672 850 q 1621 813 1643 813 l 1596 826 q 1615 872 1615 846 q 1596 915 1615 900 q 1547 929 1576 929 q 1392 813 1493 929 q 1186 594 1242 642 q 900 476 1044 476 q 961 414 943 449 q 979 325 979 379 q 932 186 979 276 q 885 53 885 96 q 925 7 885 7 q 1076 75 986 7 q 1236 224 1144 126 q 1354 360 1303 294 l 1364 353 m 622 671 q 635 607 635 642 q 554 468 635 525 q 394 417 481 417 q 272 460 324 417 q 221 572 221 503 q 411 806 221 717 q 810 907 558 875 q 1149 929 982 929 q 1239 949 1171 929 q 1294 958 1272 958 l 1317 944 q 1292 927 1308 931 q 1268 924 1276 924 l 1244 924 q 915 682 1083 924 q 628 231 771 456 q 263 -12 449 -12 q 171 7 208 -12 q 122 82 122 32 q 138 121 122 104 q 176 138 153 138 q 210 124 197 138 q 222 89 222 110 q 211 65 222 78 q 188 49 200 53 q 213 15 188 24 q 271 7 239 7 q 526 213 390 7 q 793 624 663 418 q 1135 913 964 861 l 1111 913 q 804 885 967 913 q 461 776 589 847 q 297 549 297 685 q 327 469 297 503 q 403 435 357 435 q 551 486 490 435 q 613 617 613 538 q 606 667 613 639 l 622 671 z "},"L":{"ha":744,"x_min":-118,"x_max":1203,"o":"m 917 349 q 751 203 900 333 q 550 21 614 82 q 414 -131 446 -79 q 381 -192 397 -161 q 325 -228 357 -228 l 307 -211 q 330 -179 321 -196 q 339 -146 339 -162 q 285 -16 339 -64 q 147 32 231 32 q 35 5 108 32 q -78 -22 -39 -22 q -96 -12 -90 -15 q -118 -1 -114 -3 q 63 44 -64 38 q 267 124 189 51 q 482 417 365 217 q 593 607 582 589 q 449 674 506 621 q 385 815 385 732 q 428 917 385 875 q 529 958 471 958 q 621 938 576 958 l 614 921 q 528 940 572 940 q 441 903 478 940 q 404 817 404 867 q 467 683 404 742 q 606 625 529 625 q 811 850 696 761 q 1090 958 951 958 q 1173 936 1143 958 q 1203 863 1203 914 q 1101 699 1203 764 q 883 618 1018 644 q 674 597 779 597 q 539 382 542 386 q 379 185 457 261 q 169 46 283 92 l 240 50 q 357 9 311 50 q 415 -104 403 -32 q 574 56 492 -22 q 740 207 608 88 q 908 358 860 314 l 917 349 m 682 615 l 761 613 q 1007 675 886 613 q 1151 863 1151 750 q 1128 920 1151 900 q 1068 940 1106 940 q 913 885 992 940 q 779 757 844 836 q 682 615 733 701 z "},"M":{"ha":1342,"x_min":67,"x_max":1717,"o":"m 1511 363 q 1233 67 1421 158 q 828 -12 1072 -12 l 799 4 l 829 21 l 901 13 q 1142 290 1040 81 q 1304 664 1222 476 q 1560 936 1410 872 q 1235 717 1415 913 q 919 319 1168 644 q 619 -12 729 71 l 610 3 q 740 335 676 110 q 857 671 810 578 q 1101 926 944 844 q 722 613 901 860 q 454 196 588 404 q 164 -12 307 -12 q 99 1 124 -12 q 67 58 67 19 q 81 92 67 78 q 114 107 94 107 l 154 63 l 135 24 q 158 14 142 21 q 178 7 175 7 q 449 226 303 7 q 736 660 733 657 q 1196 967 942 913 l 1197 953 q 963 735 1060 914 q 821 378 910 638 q 678 58 740 144 q 967 404 779 143 q 1275 789 1169 688 q 1658 972 1465 972 l 1717 946 l 1688 928 q 1658 931 1674 928 q 1608 938 1618 938 q 1422 736 1518 938 q 1231 332 1325 535 q 935 15 1097 89 l 944 15 q 1497 367 1333 15 l 1511 363 z "},"N":{"ha":968,"x_min":-94,"x_max":1463,"o":"m 1347 739 q 1383 782 1369 753 q 1396 840 1396 811 q 1378 885 1396 869 q 1331 900 1361 900 q 1071 711 1217 900 q 835 319 958 564 q 683 -11 772 194 l 671 -10 q 688 160 688 74 q 672 386 688 253 q 638 765 638 689 q 493 465 504 486 q 279 143 386 263 q 10 -10 142 -10 q -57 4 -29 -10 q -94 58 -94 24 q -78 95 -94 81 q -42 110 -62 110 l 0 68 l -18 36 q 13 20 -1 28 q 32 13 28 13 q 350 257 183 13 q 596 713 447 400 q 740 958 713 958 q 713 872 724 914 q 703 790 703 831 q 718 603 703 708 q 754 289 754 353 q 750 221 754 253 q 731 128 746 189 q 876 432 803 293 q 1103 781 994 653 q 1360 947 1244 947 q 1432 924 1401 947 q 1463 860 1463 900 q 1428 781 1463 815 q 1347 728 1394 746 l 1347 739 z "},"O":{"ha":1043,"x_min":222,"x_max":1215,"o":"m 919 782 q 897 868 919 840 q 818 896 875 896 l 786 893 q 710 772 738 843 q 682 628 682 700 q 847 318 682 424 q 949 544 913 426 q 986 782 986 661 q 972 886 986 851 q 890 940 950 940 q 846 935 867 940 q 807 915 825 929 q 908 883 878 914 q 939 782 939 853 l 919 782 m 456 13 q 674 115 553 13 q 836 303 775 201 q 706 436 753 353 q 658 617 658 519 q 684 763 658 692 q 758 888 710 833 q 440 610 579 842 q 311 197 311 394 q 346 74 311 125 q 456 13 386 13 m 1215 354 q 1115 283 1169 308 q 1001 258 1061 258 q 937 265 969 258 q 871 285 904 271 q 683 90 797 175 q 438 -10 549 -10 q 278 50 333 -10 q 222 215 222 110 q 400 644 222 418 q 779 911 583 878 q 835 945 803 932 q 894 958 867 958 q 1022 896 983 958 q 1054 750 1054 844 q 1000 514 1054 643 q 881 300 956 410 q 1003 276 936 276 q 1106 301 1056 276 q 1206 365 1157 325 l 1215 354 z "},"P":{"ha":1043,"x_min":-6,"x_max":1317,"o":"m 1317 971 q 1229 942 1242 947 q 1192 921 1217 938 q 1273 840 1246 890 q 1300 725 1300 789 q 1211 549 1300 628 q 1024 469 1122 469 q 958 485 985 469 q 925 540 925 504 q 938 575 925 561 q 972 589 950 589 l 1010 567 q 999 544 1004 556 q 993 531 993 532 q 1039 488 993 488 q 1175 596 1117 488 q 1225 776 1225 690 q 1213 852 1225 819 q 1168 907 1200 885 q 921 625 1047 833 q 700 268 717 290 q 385 14 557 74 q 497 1 435 6 q 613 -3 560 -3 q 953 93 799 -3 q 1201 347 1097 182 l 1215 342 q 951 67 1089 149 q 581 -22 803 -22 q 440 -4 553 -22 q 357 4 389 4 q 210 -14 331 4 q 119 -22 154 -22 q 47 -19 64 -22 q -6 18 -6 -11 q 18 52 -6 46 q 79 58 42 58 q 183 46 121 58 q 354 18 324 18 q 572 220 432 18 q 847 624 711 422 q 1144 919 1018 861 q 1080 935 1117 931 q 1007 939 1043 939 q 544 792 767 939 q 296 399 296 626 q 326 303 296 340 q 414 265 357 265 q 600 378 533 265 q 656 599 656 472 l 675 599 l 675 546 q 599 343 675 435 q 408 246 518 246 q 295 297 340 246 q 250 415 250 347 q 528 810 250 642 q 1015 958 772 958 q 1096 952 1058 958 q 1169 931 1133 946 q 1313 979 1229 958 l 1317 971 z "},"Q":{"ha":968,"x_min":-43,"x_max":1142,"o":"m 826 549 q 719 466 778 496 q 593 436 660 436 q 458 485 511 436 q 404 617 404 535 q 551 864 404 760 q 836 960 686 960 q 1004 909 942 960 q 1067 756 1067 858 q 943 478 1067 624 q 669 240 840 357 q 392 82 536 150 q 530 48 467 60 q 664 36 593 36 q 854 88 764 36 q 1004 211 928 129 q 1132 365 1043 253 l 1142 358 q 904 93 1031 193 q 579 -36 742 -36 q 440 -12 514 -36 q 310 42 386 4 q 188 2 249 15 q 64 -11 126 -11 q -1 -4 24 -11 q -43 38 -43 8 q 40 106 -43 88 q 164 115 86 115 q 267 108 214 115 q 369 90 319 101 q 635 251 514 164 q 874 479 788 363 q 978 763 978 621 q 933 891 978 842 q 808 940 888 940 q 562 838 674 940 q 450 601 450 736 q 487 494 450 532 q 592 456 524 456 q 711 481 658 456 q 817 560 764 507 l 826 549 m 97 8 q 194 22 135 8 q 289 54 254 36 q 195 83 244 74 q 96 93 146 93 q 38 82 67 93 q 8 46 8 71 q 37 15 8 22 q 97 8 65 8 z "},"R":{"ha":1193,"x_min":126,"x_max":1365,"o":"m 640 585 q 565 376 640 468 q 371 279 486 279 q 234 330 286 279 q 182 464 182 381 q 435 828 182 678 q 888 958 656 958 q 1024 949 979 958 q 1113 917 1069 939 q 1186 942 1153 932 q 1254 958 1219 953 l 1256 949 q 1196 936 1222 946 q 1136 906 1169 926 q 1209 836 1182 879 q 1236 740 1236 793 q 1140 539 1236 610 q 919 475 1054 475 q 997 351 997 436 q 972 233 997 299 q 914 38 914 79 q 950 -3 914 -3 q 1104 64 1019 -3 q 1247 211 1171 115 q 1351 356 1304 282 l 1365 350 q 1258 196 1314 265 q 1108 44 1181 99 q 940 -24 1018 -24 q 865 -1 893 -24 q 838 69 838 22 q 886 232 838 128 q 935 393 935 336 q 907 460 935 439 q 836 483 888 475 l 842 499 q 871 496 851 499 q 900 493 890 493 q 1088 575 1015 493 q 1160 774 1160 657 q 1147 837 1160 807 q 1110 886 1135 867 q 843 572 990 817 q 590 175 643 240 q 256 -22 432 -22 q 169 0 206 -22 q 126 72 126 26 q 142 113 126 97 q 183 128 157 128 q 213 115 200 128 q 226 85 226 101 q 217 53 226 67 q 189 39 207 39 q 220 6 197 17 q 269 -4 243 -4 q 519 193 378 -4 q 778 592 649 392 q 1088 903 943 833 q 992 931 1042 924 q 883 939 943 939 q 458 814 654 939 q 233 456 233 671 q 267 341 233 385 q 371 297 301 297 q 553 389 479 297 q 621 585 621 474 l 640 585 z "},"S":{"ha":744,"x_min":-37,"x_max":1068,"o":"m 106 294 q 92 260 106 274 q 58 246 78 246 q 32 256 43 246 q 13 219 18 239 q 8 171 8 200 q 88 39 8 88 q 246 -4 157 -4 q 542 244 475 -4 q 618 708 579 476 q 907 958 683 958 q 1020 927 972 958 q 1068 833 1068 896 q 1038 769 1068 790 q 961 747 1007 747 q 993 846 993 796 q 968 915 993 890 q 900 940 943 940 q 690 700 731 940 q 613 228 650 460 q 238 -22 524 -22 q 40 48 118 -22 q -37 236 -37 118 q -17 312 -37 278 q 42 346 3 346 q 88 333 71 346 q 106 294 106 321 z "},"T":{"ha":1043,"x_min":150,"x_max":1582,"o":"m 875 665 l 876 615 q 765 415 876 492 q 538 349 668 349 q 385 390 443 349 q 318 529 318 438 q 503 789 318 692 q 894 896 644 864 q 1246 918 1067 918 l 1538 919 q 1565 903 1547 919 q 1581 878 1582 888 q 1554 849 1581 857 q 1488 842 1528 842 q 1453 842 1471 842 q 1417 844 1435 843 q 1075 621 1228 844 q 810 203 942 411 q 385 -22 631 -22 q 229 15 293 -22 q 150 147 150 61 q 169 198 150 176 q 217 219 188 219 q 253 204 238 219 q 268 168 268 189 q 222 122 268 122 q 208 125 217 122 q 274 25 208 61 q 399 -4 326 -4 q 721 193 569 -4 q 972 579 846 386 q 1293 839 1128 801 q 1182 842 1232 839 q 994 851 1008 851 q 739 826 867 851 q 465 728 569 793 q 336 528 336 647 q 400 401 336 443 q 543 367 453 367 q 771 444 685 367 q 857 665 857 522 l 875 665 z "},"U":{"ha":1118,"x_min":240,"x_max":1314,"o":"m 1314 938 q 1141 678 1301 918 q 908 318 981 439 q 794 71 794 128 q 809 24 794 42 q 854 7 824 7 q 1008 75 918 7 q 1164 221 1081 129 q 1279 360 1222 285 l 1293 354 q 1171 204 1215 254 q 1011 56 1088 110 q 836 -12 915 -12 q 755 19 782 -12 q 728 107 728 50 q 739 166 728 138 q 771 226 750 194 q 600 72 681 131 q 394 -12 483 -12 q 320 13 350 -12 q 290 83 290 39 q 401 336 290 168 q 610 635 506 485 q 724 882 724 806 q 701 927 724 914 q 647 940 679 940 q 389 830 518 940 q 260 592 260 719 q 356 493 260 493 q 446 524 403 493 q 511 594 481 549 l 529 592 q 454 508 501 542 q 354 474 407 474 q 270 505 300 474 q 240 589 240 536 q 379 844 240 729 q 661 958 518 958 q 753 931 715 958 q 790 851 790 904 q 681 604 790 774 q 476 307 578 456 q 365 71 365 139 q 415 13 365 13 q 721 206 543 13 q 1015 604 849 344 q 1221 938 1118 771 l 1314 938 z "},"V":{"ha":968,"x_min":275,"x_max":1296,"o":"m 950 951 q 742 671 826 853 q 611 340 676 506 q 433 38 531 142 q 761 235 658 165 q 1072 501 965 372 q 1210 838 1210 667 q 1188 856 1194 843 q 1181 886 1181 868 q 1196 924 1181 908 q 1233 939 1211 939 q 1282 914 1268 939 q 1296 853 1296 889 q 1117 514 1296 700 q 733 206 976 368 q 379 -12 618 129 l 371 -4 q 518 308 444 100 q 646 635 608 561 q 868 894 733 807 q 659 826 824 871 q 424 738 494 782 q 315 561 315 671 q 343 492 315 519 q 413 464 371 464 q 507 507 474 464 q 540 611 540 550 q 538 642 540 622 l 556 642 l 560 590 q 518 489 565 532 q 410 446 471 446 q 313 480 351 446 q 275 569 275 514 q 410 764 275 692 q 693 860 481 801 q 939 960 879 911 l 950 951 z "},"W":{"ha":1267,"x_min":244,"x_max":1592,"o":"m 908 936 q 721 699 801 856 q 599 401 683 625 q 468 118 526 210 q 658 300 653 294 q 844 490 775 414 q 1010 694 936 592 q 1118 850 1064 772 q 1254 958 1203 958 q 1274 939 1274 958 q 1090 708 1182 824 q 1004 496 1051 635 q 926 279 946 326 q 810 82 876 160 q 1094 278 992 199 q 1368 535 1267 410 q 1507 839 1493 690 q 1483 862 1490 847 q 1476 897 1476 876 q 1493 933 1476 919 q 1532 947 1510 947 q 1576 923 1561 947 q 1592 867 1592 899 q 1415 529 1592 707 q 1044 235 1304 417 q 719 -12 785 53 l 710 0 q 819 200 771 83 q 897 415 838 243 q 982 629 946 554 q 797 427 936 576 q 518 140 657 278 q 342 -12 367 -8 l 321 3 q 354 40 331 21 q 393 74 390 71 q 510 321 458 146 q 611 626 578 554 q 846 907 693 803 q 633 840 739 874 q 397 736 476 789 q 286 564 286 661 q 311 490 286 518 q 381 463 336 463 q 481 506 446 463 q 515 615 515 550 q 514 636 514 629 l 532 636 l 535 593 q 487 488 535 532 q 376 444 439 444 q 281 478 317 444 q 244 569 244 511 q 389 768 244 693 q 681 864 467 808 q 901 949 861 911 l 908 936 z "},"X":{"ha":1118,"x_min":46,"x_max":1508,"o":"m 710 568 q 618 433 676 486 q 471 372 551 372 q 348 420 394 372 q 301 546 301 468 q 426 831 301 704 q 707 958 550 958 q 860 907 804 958 q 915 758 915 856 q 910 703 915 735 q 890 624 906 672 q 1103 847 986 764 q 1392 947 1243 947 q 1467 938 1442 947 q 1508 881 1508 922 l 1467 836 l 1435 846 q 1414 896 1421 885 q 1342 924 1396 924 q 1065 789 1210 924 q 845 491 936 668 q 754 186 754 314 q 768 75 754 114 q 850 13 790 13 q 1011 75 924 13 q 1163 215 1086 128 q 1275 360 1214 274 l 1286 354 q 1167 200 1226 267 q 1006 54 1088 110 q 828 -12 908 -12 q 710 37 750 -12 q 671 167 671 86 q 678 239 671 201 q 696 311 685 276 q 486 93 621 188 q 207 -12 338 -12 q 107 4 150 -12 q 46 76 46 28 q 59 118 46 100 q 96 136 72 136 q 133 120 118 136 q 147 82 147 104 q 139 64 142 69 q 126 42 132 53 q 158 14 135 21 q 210 7 181 7 q 504 140 353 7 q 738 443 643 263 q 832 764 832 624 q 796 888 832 842 q 681 940 754 940 q 443 813 543 940 q 350 551 350 693 q 384 440 350 488 q 479 392 418 392 q 608 449 547 392 q 694 568 658 494 l 710 568 z "},"Y":{"ha":1043,"x_min":-26,"x_max":1363,"o":"m 1363 938 l 783 47 q 633 -150 711 -62 q 436 -322 532 -264 q 203 -394 319 -394 q 47 -353 110 -394 q -26 -214 -26 -304 q 18 -101 -26 -144 q 132 -58 63 -58 q 193 -67 164 -58 q 253 -94 222 -76 l 247 -108 q 188 -86 204 -90 q 151 -82 172 -82 q 74 -125 100 -82 q 49 -222 49 -168 q 99 -333 49 -292 q 221 -375 149 -375 q 464 -247 331 -375 q 685 25 565 -150 q 847 276 765 150 q 731 154 790 210 q 582 39 651 79 q 425 -12 494 -12 q 340 14 371 -12 q 310 94 310 40 q 425 333 310 168 q 639 629 532 481 q 754 881 754 799 q 736 925 754 910 q 689 940 718 940 q 433 829 563 940 q 297 588 297 713 q 318 521 297 549 q 378 493 339 493 q 476 522 432 493 q 551 596 513 546 l 565 594 q 483 510 529 540 q 371 474 429 474 q 292 506 319 474 q 265 590 265 538 q 418 843 265 721 q 697 960 564 960 q 794 932 758 960 q 831 844 831 904 q 715 599 831 769 q 501 300 608 449 q 386 64 386 133 q 398 23 386 39 q 435 7 410 7 q 765 217 571 7 q 1078 632 910 372 q 1267 938 1172 785 l 1363 938 z "},"Z":{"ha":894,"x_min":51,"x_max":1178,"o":"m 1063 353 q 872 111 983 210 q 599 -12 733 -12 q 476 25 544 -12 q 282 107 328 107 q 163 64 213 107 q 64 -22 113 21 l 51 -8 q 294 221 72 25 q 726 592 435 344 q 1031 850 1026 846 q 935 807 985 824 q 839 790 886 790 q 700 824 776 790 q 492 897 531 897 q 364 842 417 897 q 311 710 311 786 q 344 614 311 651 q 435 576 378 576 q 479 582 458 576 q 522 597 500 588 l 526 581 q 481 562 501 568 q 436 556 461 556 q 331 599 371 556 q 292 710 292 643 q 374 879 292 815 q 558 938 449 938 q 701 908 619 938 q 938 843 885 843 q 1057 879 1004 843 q 1160 958 1108 918 l 1178 943 q 915 707 1151 910 q 468 332 732 550 q 167 89 219 126 q 278 135 238 124 q 356 147 318 147 q 518 99 414 147 q 681 50 622 50 q 832 101 757 50 q 957 222 893 143 q 1051 358 1003 279 l 1063 353 z "},"[":{"ha":521,"x_min":-225,"x_max":906,"o":"m 629 942 l 906 942 l 897 922 l 683 922 l -147 -371 l 72 -371 l 65 -390 l -225 -390 l 629 942 z "},"\\":{"ha":296,"x_min":35,"x_max":472,"o":"m 40 -39 l 35 -31 q 72 -3 49 -15 q 119 19 96 8 q 265 135 193 63 q 389 274 319 188 q 451 353 419 313 l 461 357 l 472 349 q 281 124 428 260 q 40 -39 125 -21 z "},"]":{"ha":521,"x_min":-343,"x_max":788,"o":"m 788 942 l -65 -390 l -343 -390 l -337 -371 l -124 -371 l 710 922 l 492 922 l 500 942 l 788 942 z "},"^":{"ha":804,"x_min":276,"x_max":803,"o":"m 276 222 l 525 714 l 554 714 l 803 222 l 747 222 l 539 632 l 333 222 l 276 222 z "},"_":{"ha":669,"x_min":-3,"x_max":672,"o":"m -3 -169 l -3 -100 l 672 -100 l 672 -169 l -3 -169 z "},"`":{"ha":296,"x_min":97,"x_max":285,"o":"m 285 551 l 276 544 q 168 621 239 544 q 97 738 97 697 q 106 760 97 750 q 128 771 115 771 q 174 719 158 771 q 197 642 196 643 q 238 593 211 618 q 285 551 256 575 z "},"a":{"ha":594,"x_min":-3,"x_max":771,"o":"m 518 464 l 610 464 q 461 253 476 276 q 353 42 353 89 q 386 7 353 7 q 644 208 475 7 q 761 361 715 293 l 771 357 q 667 214 722 283 q 522 60 588 115 q 372 -12 436 -12 q 317 5 339 -12 q 296 56 296 22 q 303 99 296 75 q 313 124 304 101 q 211 36 233 53 q 89 -12 143 -12 q 22 16 46 -12 q -3 90 -3 44 q 121 339 -3 204 q 358 474 244 474 q 472 386 449 474 l 518 464 m 128 22 q 324 164 217 22 q 426 394 426 300 q 411 439 426 422 q 368 456 396 456 q 174 317 272 456 q 81 86 81 186 q 90 39 81 56 q 128 22 100 22 z "},"b":{"ha":594,"x_min":15,"x_max":765,"o":"m 607 932 q 460 714 533 822 q 213 331 304 482 q 82 67 82 115 q 98 23 82 40 q 139 6 114 6 q 343 140 232 6 q 454 369 454 274 q 446 406 450 389 q 442 429 442 422 q 451 463 442 450 q 481 475 461 475 q 518 447 507 475 q 529 378 529 418 q 525 326 529 343 q 569 293 542 304 q 626 282 596 282 q 696 300 665 282 q 754 353 726 318 l 765 343 q 703 287 740 308 q 626 265 665 265 q 518 306 567 265 q 363 92 485 194 q 131 -11 242 -11 q 49 19 83 -11 q 15 94 15 49 q 136 354 15 151 q 368 717 226 506 q 514 929 440 822 l 607 932 z "},"c":{"ha":444,"x_min":14,"x_max":613,"o":"m 613 338 q 406 110 531 211 q 132 -12 256 -12 q 47 14 79 -12 q 14 93 14 40 q 140 347 14 219 q 393 475 267 475 q 462 460 432 475 q 492 411 492 446 q 463 365 492 381 q 401 350 435 350 q 412 379 408 367 q 415 407 415 392 q 371 456 415 456 q 186 319 282 456 q 96 99 96 192 q 112 38 96 63 q 164 13 128 13 q 410 135 265 13 q 601 347 533 239 l 613 338 z "},"d":{"ha":594,"x_min":-12,"x_max":911,"o":"m 911 932 q 725 654 908 928 q 479 276 567 418 q 356 38 356 76 q 365 18 356 29 q 383 7 375 7 q 589 144 461 7 q 751 356 683 247 l 764 349 q 665 207 722 279 q 525 57 590 111 q 379 -12 442 -12 q 319 3 343 -12 q 294 53 294 18 q 300 93 294 76 q 321 139 306 110 q 219 40 242 58 q 89 -12 153 -12 q 14 17 40 -12 q -12 94 -12 46 q 125 342 -12 208 q 376 475 263 475 q 444 449 418 475 q 471 382 471 422 l 819 932 l 911 932 m 372 456 q 181 315 289 456 q 74 86 74 175 q 84 40 74 58 q 122 22 94 22 q 313 162 194 22 q 432 375 432 301 q 422 432 432 415 q 372 456 408 456 z "},"e":{"ha":444,"x_min":21,"x_max":622,"o":"m 367 456 q 239 374 315 456 q 146 243 175 304 q 300 301 228 261 q 400 419 400 357 q 367 456 400 456 m 622 349 q 417 114 554 226 q 142 -12 263 -12 q 52 16 83 -12 q 21 101 21 44 q 149 347 21 219 q 396 475 276 475 q 447 461 425 475 q 468 418 468 447 q 332 292 468 354 q 138 226 243 251 q 113 165 122 197 q 103 100 103 132 q 117 37 103 61 q 168 13 132 13 q 417 139 271 13 q 608 357 540 247 l 622 349 z "},"f":{"ha":296,"x_min":-764,"x_max":786,"o":"m 94 444 l 94 464 l 199 464 q 399 761 339 690 q 686 938 547 938 q 756 919 726 938 q 786 863 786 901 q 765 807 786 829 q 711 785 744 785 q 720 826 717 808 q 724 860 724 843 q 668 919 724 919 q 518 828 601 919 q 378 633 457 761 q 278 464 328 549 l 581 464 l 581 444 l 269 444 q 67 100 103 156 q -206 -233 -74 -118 q -557 -385 -379 -385 q -696 -346 -637 -385 q -764 -224 -764 -300 q -721 -126 -764 -156 q -606 -96 -678 -96 l -606 -108 q -674 -141 -647 -108 q -701 -215 -701 -174 q -661 -326 -701 -286 q -550 -367 -621 -367 q -249 -204 -408 -367 q 8 139 -131 -83 q 189 444 99 292 l 94 444 z "},"g":{"ha":594,"x_min":-471,"x_max":767,"o":"m 618 464 q 467 242 549 365 q 318 18 392 129 q 572 147 447 43 q 760 365 682 238 l 767 356 q 574 128 692 224 q 306 -3 446 24 q 160 -186 219 -119 q -18 -335 69 -285 q -243 -396 -125 -396 q -392 -362 -329 -396 q -471 -242 -471 -319 q -424 -141 -471 -176 q -307 -106 -376 -106 q -292 -108 -299 -106 q -281 -112 -285 -111 l -282 -125 q -368 -156 -340 -125 q -396 -244 -396 -186 q -347 -347 -396 -312 q -232 -378 -304 -378 q 88 -185 -83 -378 q 321 138 154 -110 q 188 18 247 53 q 86 -12 135 -12 q 15 18 42 -12 q -11 94 -11 49 q 119 344 -11 214 q 369 475 250 475 q 442 454 414 475 q 471 390 471 433 l 522 464 l 618 464 m 71 86 q 85 40 71 58 q 125 21 99 21 q 319 165 213 21 q 422 397 422 304 q 367 454 422 454 q 168 317 271 454 q 71 86 71 186 z "},"h":{"ha":594,"x_min":-81,"x_max":768,"o":"m 611 932 l 135 224 q 276 383 217 329 q 461 475 378 475 q 522 453 500 475 q 544 392 544 431 q 440 212 544 342 q 335 42 335 82 q 344 17 335 28 q 367 7 353 7 q 585 143 449 7 q 758 354 696 253 l 768 350 q 590 128 701 239 q 358 -12 450 -12 q 300 11 322 -12 q 278 71 278 35 q 383 260 278 136 q 489 418 489 383 q 478 446 489 436 q 449 456 467 456 q 199 271 358 456 q 8 -1 65 117 l -81 -1 q 119 307 -50 46 q 319 617 181 401 q 518 928 453 824 l 611 932 z "},"i":{"ha":296,"x_min":-12,"x_max":471,"o":"m 313 464 q 117 183 194 306 q 44 40 44 69 q 71 6 44 6 q 286 146 144 6 q 458 357 413 271 l 471 349 q 292 128 411 244 q 60 -12 147 -12 q -12 60 -12 -12 q 124 322 -12 126 q 224 464 203 433 l 313 464 m 433 668 q 386 624 433 624 q 343 668 343 624 q 356 701 343 688 q 389 714 369 714 q 433 668 433 714 z "},"j":{"ha":296,"x_min":-771,"x_max":474,"o":"m 294 464 l 10 17 q 268 142 144 40 q 460 361 369 225 l 474 354 q 274 126 383 215 q 1 -1 146 24 q -139 -189 -68 -112 q -321 -336 -226 -285 q -546 -396 -429 -396 q -694 -360 -631 -396 q -771 -236 -771 -317 q -725 -143 -771 -181 q -621 -106 -679 -106 l -583 -110 l -583 -125 q -669 -152 -636 -125 q -703 -232 -703 -179 q -658 -342 -703 -307 q -537 -378 -614 -378 q -235 -204 -399 -378 q 28 156 -114 -76 q 208 464 118 310 l 294 464 m 419 668 q 375 622 419 622 q 331 668 331 622 q 343 700 331 686 q 375 714 356 714 q 419 668 419 714 z "},"k":{"ha":594,"x_min":-85,"x_max":767,"o":"m 601 932 q 456 703 522 806 q 306 474 351 542 q 151 254 260 407 q 282 396 267 382 q 451 475 369 475 q 513 456 490 475 q 536 399 536 438 q 468 297 536 338 q 344 254 418 267 q 372 218 361 239 q 382 174 382 197 q 364 103 382 147 q 346 61 350 74 l 342 31 l 361 7 q 632 200 465 7 q 753 356 690 268 l 767 344 q 586 125 650 190 q 353 -11 453 -11 q 290 6 313 -11 q 267 61 267 22 q 296 143 267 89 q 325 222 325 197 l 304 246 l 232 235 l 210 250 q 242 263 211 263 q 266 261 256 263 q 288 258 276 260 q 404 292 356 258 q 461 397 461 331 q 451 435 461 419 q 418 450 440 450 q 188 264 338 450 q 7 -1 67 114 l -85 -1 q 115 308 15 153 q 315 618 192 425 q 514 928 475 865 l 601 932 z "},"l":{"ha":296,"x_min":-12,"x_max":613,"o":"m 613 938 q 458 710 535 824 q 189 301 286 456 q 44 39 44 74 q 72 7 44 7 q 338 206 165 7 q 458 358 401 281 l 475 351 q 367 211 428 283 q 217 60 286 117 q 68 -12 128 -12 q 10 5 32 -12 q -12 58 -12 22 q 104 300 -12 104 q 338 669 196 453 q 515 938 426 803 l 613 938 z "},"m":{"ha":894,"x_min":-82,"x_max":1064,"o":"m -82 -1 q 17 153 -61 31 q 115 308 63 224 q 213 464 179 410 l 299 464 l 119 213 q 267 379 235 349 q 458 475 368 475 q 510 456 488 475 q 533 407 533 438 q 490 307 533 374 q 422 213 482 294 q 617 415 518 343 q 761 474 697 474 q 817 455 794 474 q 840 401 840 436 q 735 215 840 351 q 631 40 631 78 q 641 16 631 26 q 664 6 651 6 q 929 201 758 6 q 1051 354 997 279 l 1064 347 q 883 129 961 208 q 657 -12 746 -12 q 574 72 574 -12 q 679 261 574 132 q 785 424 785 390 q 775 447 785 439 q 750 456 765 456 q 583 365 681 456 q 422 174 507 294 q 314 -1 353 74 l 225 0 q 407 285 342 179 q 478 419 478 399 q 442 456 478 456 q 193 272 346 456 q 8 -1 72 128 l -82 -1 z "},"n":{"ha":594,"x_min":-87,"x_max":768,"o":"m 297 464 l 118 217 q 263 378 224 342 q 447 474 365 474 q 509 452 485 474 q 533 394 533 431 q 430 208 533 338 q 326 43 326 79 q 363 7 326 7 q 583 146 447 7 q 757 364 690 256 l 768 357 q 590 133 693 240 q 363 -11 451 -11 q 297 10 324 -11 q 271 71 271 32 q 374 255 271 128 q 478 424 478 382 q 439 456 478 456 q 189 272 347 456 q 0 -1 56 118 l -87 -1 q 94 286 -24 106 q 207 460 185 424 l 297 464 z "},"o":{"ha":594,"x_min":14,"x_max":765,"o":"m 765 340 q 694 281 732 303 q 613 260 656 260 q 507 314 543 260 q 364 96 467 192 q 132 -11 250 -11 q 44 22 75 -11 q 14 114 14 56 q 144 352 14 231 q 392 474 274 474 q 508 374 483 474 q 611 275 533 275 q 685 295 650 275 q 753 349 721 315 l 765 340 m 142 8 q 343 150 244 8 q 436 392 436 283 q 422 438 436 418 q 379 458 407 458 q 188 319 288 458 q 89 82 89 179 q 100 29 89 50 q 142 8 111 8 z "},"p":{"ha":594,"x_min":-356,"x_max":775,"o":"m 482 725 q 188 294 335 510 q 293 413 260 383 q 435 475 364 475 q 512 448 485 475 q 539 371 539 421 q 507 250 539 308 q 429 150 482 204 q 615 224 531 167 q 763 361 688 272 l 775 354 q 608 210 688 249 q 410 129 499 169 q 294 43 388 119 q 160 -12 226 -12 q 119 -1 136 -12 q 101 33 101 10 q 204 114 101 85 q 353 136 282 136 q 424 253 394 189 q 454 376 454 318 q 447 424 454 406 q 410 451 436 451 q 183 257 338 451 q -89 -137 65 107 q -268 -437 -196 -308 l -356 -436 q -108 -49 -218 -218 q 142 338 17 144 q 390 725 318 611 l 482 725 m 340 115 q 224 99 263 108 q 142 36 142 78 q 152 13 142 21 q 179 6 163 6 q 267 46 215 6 q 340 115 294 68 z "},"q":{"ha":594,"x_min":-72,"x_max":769,"o":"m 601 464 l 313 18 q 568 142 450 47 q 760 357 671 225 l 769 349 q 571 125 685 214 q 300 0 444 28 q 18 -437 144 -233 l -72 -437 q 58 -243 -28 -374 q 189 -49 132 -132 q 325 143 276 79 q 219 39 256 67 q 83 -11 153 -11 q 8 18 33 -11 q -18 99 -18 47 q 122 342 -18 210 q 374 475 261 475 q 439 451 411 475 q 471 390 467 428 l 517 464 l 601 464 m 65 76 q 78 30 65 47 q 119 13 90 13 q 313 158 200 13 q 425 386 425 303 q 411 437 425 418 q 367 456 397 456 q 170 314 275 456 q 65 76 65 172 z "},"r":{"ha":444,"x_min":-82,"x_max":619,"o":"m 300 464 l 128 214 q 278 361 171 264 q 432 475 404 475 l 486 472 q 439 414 454 440 q 418 343 418 378 q 475 278 418 278 q 549 306 508 278 q 610 357 563 315 l 619 350 q 547 289 576 307 q 457 260 503 260 q 388 288 413 260 q 363 361 363 315 q 376 418 363 392 q 165 232 250 326 q 8 -1 67 124 l -82 -3 q 214 464 64 233 l 300 464 z "},"s":{"ha":444,"x_min":-47,"x_max":618,"o":"m 618 347 q 407 101 517 189 q 110 -12 265 -12 q 1 21 44 -12 q -47 121 -47 58 q -24 187 -47 160 q 38 214 -1 214 q 72 203 58 214 q 85 172 85 193 q 76 138 85 150 q 46 125 67 125 q 8 154 21 125 q -9 127 -6 146 q -12 100 -12 108 q 22 32 -12 57 q 100 7 56 7 q 182 44 153 7 q 211 136 211 82 q 172 267 211 169 q 153 347 153 315 q 197 441 153 407 q 303 475 242 475 q 383 456 349 475 q 426 388 426 431 q 400 335 426 353 q 339 318 374 318 q 358 393 358 354 q 342 439 358 422 q 296 456 325 456 q 241 434 261 456 q 221 378 221 413 q 242 293 221 343 q 288 149 288 183 q 248 58 288 99 q 156 4 208 18 q 417 128 290 21 q 607 353 517 213 l 618 347 z "},"t":{"ha":371,"x_min":-1,"x_max":544,"o":"m 399 619 l 293 464 l 469 464 l 461 444 l 281 444 q 150 247 200 325 q 56 51 56 99 q 72 17 56 28 q 111 7 88 7 q 343 143 203 7 q 533 358 414 213 l 544 350 q 349 128 407 183 q 103 -11 204 -11 q 28 16 58 -11 q -1 86 -1 43 q 111 319 -1 153 q 197 444 154 382 l 125 444 l 135 464 l 210 464 l 315 619 l 399 619 z "},"u":{"ha":594,"x_min":-24,"x_max":771,"o":"m 314 464 q 158 258 208 329 q 43 53 43 97 q 81 13 43 13 q 321 194 175 13 q 508 464 385 274 l 606 464 q 451 257 528 360 q 340 44 340 99 q 376 7 340 7 q 636 206 464 7 q 756 357 704 285 l 771 351 q 592 132 656 200 q 367 -12 454 -12 q 306 8 329 -12 q 283 65 283 28 q 304 149 283 113 q 196 44 239 78 q 58 -11 124 -11 q -1 6 21 -11 q -24 60 -24 24 q 117 324 -24 129 q 221 464 168 393 l 314 464 z "},"v":{"ha":594,"x_min":11,"x_max":774,"o":"m 313 464 q 172 271 221 346 q 81 65 81 131 q 97 22 81 36 q 142 7 113 7 q 349 147 238 7 q 456 381 456 282 q 449 406 456 389 q 443 431 443 422 q 453 463 443 450 q 482 475 463 475 q 518 447 507 475 q 529 379 529 419 q 524 325 529 350 q 565 292 539 304 q 621 281 592 281 q 701 301 664 281 q 761 360 738 321 l 774 351 q 710 288 756 314 q 619 263 665 263 q 518 303 565 263 q 363 90 483 192 q 131 -12 243 -12 q 11 103 11 -12 q 93 289 11 169 q 221 464 157 376 l 313 464 z "},"w":{"ha":894,"x_min":-4,"x_max":1068,"o":"m 318 464 q 210 326 251 382 q 63 63 63 136 q 73 22 63 38 q 108 6 83 6 q 260 99 172 6 q 410 294 326 169 q 517 464 463 379 l 614 463 q 514 326 522 339 q 382 64 382 139 q 397 23 382 39 q 436 7 411 7 q 646 144 535 7 q 753 379 753 276 q 736 431 736 406 q 747 463 736 450 q 778 475 758 475 q 817 453 806 475 q 828 396 828 432 q 826 365 828 378 q 819 325 821 335 q 867 292 843 303 q 921 281 892 281 q 1054 356 1013 281 l 1068 346 q 917 263 1019 263 q 815 301 861 263 q 657 94 772 193 q 422 -12 532 -12 q 345 13 376 -12 q 314 85 314 39 q 318 122 314 106 q 331 158 318 125 q 231 47 250 64 q 97 -12 164 -12 q 23 13 50 -12 q -4 86 -4 39 q 122 335 -4 168 q 225 464 200 432 l 318 464 z "},"x":{"ha":669,"x_min":-81,"x_max":844,"o":"m 844 358 q 650 125 772 236 q 389 -12 500 -12 q 315 7 343 -12 q 288 69 288 26 q 303 133 288 103 q 194 32 247 67 q 56 -12 126 -12 q -41 17 -1 -12 q -81 103 -81 46 q -61 161 -81 135 q -11 188 -42 188 q 38 142 38 188 q 27 110 38 122 q -1 99 17 99 q -37 117 -25 99 q -44 100 -42 106 q -50 83 -46 94 q -19 25 -50 43 q 54 7 11 7 q 267 147 156 7 q 378 390 378 286 q 362 444 378 422 q 315 467 346 467 q 213 407 260 467 q 169 343 207 400 l 156 354 q 226 444 193 415 q 331 485 272 485 q 419 451 383 485 q 454 365 454 417 q 551 442 499 414 q 671 474 611 474 q 735 456 707 474 q 764 403 764 438 q 744 365 764 379 q 699 350 724 350 l 679 351 q 693 392 689 378 q 697 417 697 406 q 660 456 697 456 q 461 322 567 456 q 356 92 356 188 q 371 35 356 57 q 421 13 386 13 q 651 147 508 13 q 832 364 774 263 l 844 358 z "},"y":{"ha":594,"x_min":-472,"x_max":764,"o":"m 314 464 q 158 256 236 360 q 42 51 42 92 q 76 11 42 11 q 235 103 140 11 q 396 296 306 171 q 510 464 457 379 l 597 463 q 449 240 535 376 q 306 13 376 126 q 563 133 442 38 q 753 347 667 217 l 764 342 q 564 119 676 207 q 294 -6 438 21 q 151 -196 204 -135 q -25 -351 63 -299 q -253 -415 -132 -415 q -396 -379 -332 -415 q -472 -262 -472 -336 q -421 -156 -472 -190 q -303 -126 -378 -126 q -378 -175 -351 -142 q -406 -258 -406 -208 q -361 -358 -406 -321 q -251 -396 -317 -396 q -14 -287 -136 -396 q 186 -50 82 -203 q 335 185 260 67 q 210 58 258 97 q 49 -10 125 -10 q -10 4 13 -10 q -33 53 -33 18 q 114 321 -33 117 q 219 464 167 392 l 314 464 z "},"z":{"ha":521,"x_min":-15,"x_max":699,"o":"m 699 354 q 531 124 631 228 q 294 -12 400 -12 q 219 7 261 -12 q 97 51 124 51 q 51 35 72 51 q -7 -10 -3 -8 l -15 3 q 115 117 0 26 q 342 289 169 160 q 508 417 481 394 q 407 386 465 386 q 333 408 382 386 q 258 429 283 429 q 217 410 238 429 q 164 336 197 392 l 151 340 q 210 432 189 408 q 307 475 249 475 q 397 453 340 475 q 476 432 453 432 q 551 459 524 432 q 593 496 578 486 l 603 485 q 461 353 572 444 q 247 186 371 278 q 79 67 136 103 q 132 84 110 78 q 181 90 154 90 q 275 62 215 90 q 351 33 335 33 q 544 161 431 33 q 689 361 629 257 l 699 354 z "},"{":{"ha":521,"x_min":-151,"x_max":790,"o":"m 156 276 q 197 215 197 258 q 126 57 197 165 q -14 -154 54 -51 q -87 -318 -87 -269 q -69 -353 -87 -339 q -31 -367 -51 -367 l -44 -386 q -114 -371 -85 -386 q -151 -315 -151 -351 q -78 -146 -151 -264 q 60 61 -8 -42 q 133 217 133 175 q 121 251 133 236 q 86 276 108 267 q 332 489 219 315 q 515 788 424 638 q 790 938 632 938 l 778 918 q 575 772 676 918 q 396 482 485 626 q 156 276 279 313 z "},"|":{"ha":296,"x_min":261,"x_max":310,"o":"m 261 958 l 310 958 l 310 -1 l 261 -1 l 261 958 z "},"}":{"ha":521,"x_min":-262,"x_max":681,"o":"m 372 275 q 331 342 331 294 q 404 499 331 385 q 542 706 472 601 q 617 868 617 824 q 599 903 617 889 q 560 918 582 918 l 574 938 q 647 920 614 938 q 681 865 681 903 q 609 704 681 815 q 469 490 538 593 q 396 333 396 376 q 409 299 396 314 q 443 275 422 283 q 197 61 307 236 q 19 -236 108 -87 q -262 -386 -96 -386 l -250 -367 q -43 -217 -146 -367 q 136 75 46 -71 q 372 275 251 244 z "},"~":{"ha":804,"x_min":188,"x_max":811,"o":"m 811 279 q 739 196 769 221 q 638 161 694 161 q 501 207 588 161 q 367 253 415 253 q 288 225 321 253 q 238 156 260 201 l 188 183 q 256 267 215 236 q 357 301 301 301 q 508 256 408 301 q 643 210 608 210 q 713 243 679 210 q 761 307 728 258 l 811 279 z "},"":{"ha":736,"x_min":18,"x_max":726,"o":"m 607 701 l 506 518 l 726 518 l 726 442 l 464 443 l 360 258 l 726 258 l 726 183 l 318 183 l 197 -36 l 129 4 l 228 183 l 18 183 l 18 258 l 271 258 l 372 443 l 18 443 l 18 518 l 417 518 l 539 740 l 607 701 z "},"":{"ha":956,"x_min":33,"x_max":925,"o":"m 735 544 q 865 494 804 544 q 925 375 925 444 q 869 227 925 288 q 726 167 813 167 q 560 236 649 167 q 479 308 532 257 q 336 194 397 226 q 232 167 283 167 q 88 226 143 167 q 33 375 33 286 q 94 496 33 447 q 229 544 154 544 q 365 496 294 544 q 479 401 386 482 q 594 497 574 483 q 735 544 665 544 m 221 472 q 138 435 174 472 q 101 349 101 397 q 139 267 101 300 q 226 233 176 233 q 364 292 292 233 q 432 356 386 310 q 335 432 372 408 q 221 472 272 472 m 731 231 q 818 265 781 231 q 856 351 856 300 q 819 435 856 399 q 735 471 783 471 q 596 413 669 471 q 526 353 549 371 q 617 271 599 283 q 731 231 672 231 z "},"":{"ha":296,"x_min":-19,"x_max":176,"o":"m -19 -149 q 92 -79 60 -115 q 126 -6 119 -49 q 87 8 104 -6 q 69 43 69 21 q 125 96 69 96 q 162 77 147 96 q 176 35 176 58 q 111 -90 176 -32 q -17 -162 57 -139 l -19 -149 z "},"":{"ha":669,"x_min":53,"x_max":883,"o":"m 251 432 l 251 450 l 467 450 q 532 629 497 549 q 643 826 585 753 q 792 921 718 921 q 856 900 828 921 q 883 844 883 879 q 860 784 883 804 q 796 764 838 764 q 826 839 826 793 q 816 881 826 864 q 782 897 806 897 q 674 803 729 897 q 590 608 633 735 q 540 450 579 578 l 742 450 l 742 432 l 533 432 q 453 164 493 297 q 319 -172 385 -49 q 149 -337 232 -337 q 80 -318 107 -337 q 53 -258 53 -299 q 75 -207 53 -226 q 131 -187 97 -187 q 122 -230 125 -212 q 119 -264 119 -247 q 133 -302 119 -286 q 168 -318 146 -318 q 276 -179 218 -318 q 376 126 322 -71 q 460 432 418 279 l 251 432 z "},"":{"ha":521,"x_min":-54,"x_max":367,"o":"m 171 -149 q 282 -78 249 -115 q 317 -6 310 -47 q 277 8 294 -6 q 260 43 260 21 q 314 96 260 96 q 351 77 335 96 q 367 35 367 58 q 301 -90 367 -32 q 172 -162 244 -142 l 171 -149 m -54 -149 q 57 -78 24 -115 q 92 -6 85 -47 q 52 8 69 -6 q 35 43 35 21 q 90 96 35 96 q 126 76 111 96 q 142 35 142 57 q 76 -90 142 -32 q -53 -162 19 -142 l -54 -149 z "},"":{"ha":1342,"x_min":189,"x_max":1185,"o":"m 290 50 q 275 14 290 29 q 240 -1 260 -1 q 204 14 219 -1 q 189 50 189 29 q 203 85 189 69 q 239 101 218 101 q 276 87 261 101 q 290 50 290 72 m 739 50 q 724 14 739 29 q 688 -1 708 -1 q 651 14 667 -1 q 636 50 636 29 q 651 86 636 71 q 688 101 667 101 q 724 87 710 101 q 739 50 739 72 m 1185 50 q 1169 14 1185 29 q 1133 -1 1154 -1 q 1097 14 1113 -1 q 1082 50 1082 29 q 1097 86 1082 71 q 1133 101 1113 101 q 1170 87 1156 101 q 1185 50 1185 72 z "},"":{"ha":669,"x_min":117,"x_max":886,"o":"m 886 636 l 876 617 l 600 617 l 157 -101 l 117 -101 l 531 617 l 267 617 l 276 636 l 542 636 q 664 864 603 750 q 754 958 724 958 l 786 928 q 685 739 786 892 q 614 636 649 688 l 886 636 z "},"":{"ha":669,"x_min":117,"x_max":886,"o":"m 600 617 l 504 461 l 782 461 l 772 443 l 493 443 l 157 -101 l 117 -101 l 429 443 l 164 443 l 172 461 l 440 461 l 531 617 l 267 617 l 276 636 l 542 636 q 664 864 603 750 q 754 958 724 958 l 786 928 q 685 739 786 892 q 614 636 649 688 l 886 636 l 876 617 l 600 617 z "},"":{"ha":296,"x_min":121,"x_max":415,"o":"m 121 556 q 315 771 228 654 l 339 771 q 361 656 339 714 q 415 550 378 611 l 401 542 q 300 688 338 611 q 196 594 239 631 q 128 544 160 565 l 121 556 z "},"":{"ha":1517,"x_min":222,"x_max":1574,"o":"m 1574 289 q 1475 94 1574 190 q 1276 -1 1376 -1 q 1151 122 1151 -1 q 1251 314 1151 226 q 1458 401 1351 401 q 1542 372 1511 401 q 1574 289 1574 342 m 1214 71 q 1275 18 1214 18 q 1436 136 1356 18 q 1511 333 1511 246 q 1454 383 1511 383 q 1292 271 1371 383 q 1214 71 1214 158 m 1097 290 q 999 96 1097 192 q 800 0 900 0 q 676 124 676 0 q 776 315 676 228 q 982 403 876 403 q 1066 373 1035 403 q 1097 290 1097 343 m 739 72 q 800 19 739 19 q 961 138 881 19 q 1036 335 1036 247 q 979 385 1036 385 q 817 272 896 385 q 739 72 739 160 m 735 574 q 688 587 710 574 q 649 622 665 600 q 546 414 647 519 q 342 308 444 308 q 256 342 289 308 q 222 429 222 375 q 322 626 222 532 q 526 719 421 719 q 663 633 592 719 q 740 593 696 593 q 878 666 813 593 q 963 739 944 739 l 979 718 q 883 586 950 660 q 772 464 828 525 q 631 290 735 419 q 486 114 542 181 q 336 -54 404 17 l 328 -46 q 482 168 379 39 q 679 407 549 251 q 857 621 822 576 q 799 587 832 600 q 735 574 767 574 m 335 326 q 504 444 419 326 q 585 644 585 556 q 529 700 585 700 q 361 585 443 700 q 285 386 285 476 q 296 342 285 357 q 335 326 307 326 z "},"":{"ha":744,"x_min":-37,"x_max":1069,"o":"m 106 294 q 92 260 106 274 q 58 246 78 246 q 32 256 43 246 q 13 219 18 239 q 8 171 8 200 q 88 39 8 88 q 246 -4 157 -4 q 542 244 475 -4 q 618 708 579 476 q 907 958 683 958 q 1020 927 972 958 q 1068 833 1068 896 q 1038 769 1068 790 q 961 747 1007 747 q 993 846 993 796 q 968 915 993 890 q 900 940 943 940 q 690 700 731 940 q 613 228 650 460 q 238 -22 524 -22 q 40 48 118 -22 q -37 236 -37 118 q -17 312 -37 278 q 42 346 3 346 q 88 333 71 346 q 106 294 106 321 m 1069 1190 q 967 1088 1007 1131 q 875 975 921 1036 l 851 975 q 831 1090 851 1035 q 775 1196 815 1131 l 788 1204 q 890 1057 850 1135 q 974 1133 961 1122 q 1063 1201 1017 1171 l 1069 1190 z "},"":{"ha":444,"x_min":114,"x_max":417,"o":"m 417 439 q 304 329 342 365 q 190 219 219 246 q 252 117 225 168 q 292 17 279 67 l 281 11 q 202 115 246 61 q 114 221 158 169 q 264 332 179 264 q 411 451 338 392 l 417 439 z "},"":{"ha":1342,"x_min":188,"x_max":1529,"o":"m 926 242 q 1025 338 974 301 q 1153 382 1089 382 q 1261 348 1217 382 q 1306 251 1306 314 q 1165 44 1306 124 q 907 -22 1046 -22 q 758 3 824 -22 q 643 96 679 33 q 525 13 582 42 q 386 -22 457 -22 q 240 38 293 -22 q 188 192 188 97 q 360 606 188 378 q 722 849 543 849 q 825 805 790 849 q 860 690 860 761 q 858 654 860 674 q 850 604 856 635 l 832 604 q 838 649 835 628 q 840 690 840 671 q 814 790 840 754 q 721 831 783 831 q 503 714 615 831 q 338 463 406 613 q 269 208 269 313 q 301 68 269 122 q 422 1 342 1 q 538 36 478 1 q 632 113 581 61 q 621 159 625 131 q 617 211 617 188 q 700 393 617 317 q 883 492 768 454 q 917 599 904 546 q 931 701 931 651 q 892 864 931 806 q 746 935 844 935 q 549 858 647 935 q 393 707 501 822 l 381 719 q 490 829 472 813 q 610 918 556 890 q 761 954 681 954 q 928 889 868 954 q 988 714 988 824 q 949 518 988 621 q 1064 660 1036 542 q 1121 857 1104 831 q 1354 958 1182 958 q 1472 922 1422 958 q 1529 815 1529 881 q 1453 674 1529 726 q 1292 626 1385 626 q 1267 628 1278 626 q 1244 632 1256 629 l 1244 650 l 1308 644 q 1424 695 1376 644 q 1472 817 1472 746 q 1435 908 1472 875 q 1338 940 1399 940 q 1188 857 1218 940 q 1143 676 1165 767 q 940 499 1094 557 q 840 315 904 407 q 706 154 785 236 q 797 38 731 81 q 944 -4 864 -4 q 1146 64 1060 -4 q 1239 250 1239 138 q 1212 328 1239 300 q 1135 357 1185 357 q 1024 317 1081 357 q 936 233 985 289 l 926 242 m 700 174 q 800 315 754 232 q 876 474 832 372 q 744 383 797 454 q 692 231 692 313 q 700 174 692 201 z "},"":{"ha":736,"x_min":15,"x_max":710,"o":"m 710 499 q 628 419 681 447 q 515 390 575 390 q 397 413 463 390 q 201 465 243 465 q 131 442 164 465 q 75 383 99 419 l 15 419 q 103 498 53 468 q 213 528 154 528 q 400 481 257 528 q 514 458 468 458 q 657 532 606 458 l 710 499 m 710 294 q 627 215 679 243 q 513 188 575 188 q 396 210 461 188 q 203 261 243 261 q 131 239 163 261 q 75 179 100 217 l 15 217 q 103 295 53 265 q 213 325 154 325 q 400 278 257 325 q 514 256 468 256 q 657 329 606 256 l 710 294 z "},"":{"ha":821,"x_min":4,"x_max":818,"o":"m 818 -1 l 4 -1 l 438 929 l 818 -1 m 97 67 l 647 67 l 389 692 l 97 67 z "},"":{"ha":661,"x_min":21,"x_max":626,"o":"m 283 -1 l 21 507 l 283 1003 l 365 1003 l 626 507 l 365 -1 l 283 -1 m 324 926 l 106 507 l 324 75 l 543 507 l 324 926 z "},"":{"ha":988,"x_min":0,"x_max":0,"o":""},"":{"ha":296,"x_min":206,"x_max":401,"o":"m 401 783 q 308 731 342 758 q 256 640 263 693 q 311 592 311 640 q 257 539 311 539 q 220 558 235 539 q 206 600 206 576 q 271 725 206 667 q 399 797 326 775 l 401 783 z "},"":{"ha":296,"x_min":215,"x_max":411,"o":"m 215 549 q 308 600 276 574 q 361 692 354 639 q 321 704 338 692 q 304 739 304 717 q 358 792 304 792 q 396 773 381 792 q 411 731 411 754 q 346 606 411 663 q 217 533 293 560 l 215 549 z "},"":{"ha":521,"x_min":189,"x_max":611,"o":"m 386 783 q 293 732 321 754 q 240 640 249 696 q 280 627 263 640 q 297 592 297 614 q 243 539 297 539 q 205 558 221 539 q 189 600 189 576 q 254 725 189 668 q 385 797 308 772 l 386 783 m 611 783 q 518 732 546 754 q 465 640 474 696 q 505 627 488 640 q 522 592 522 614 q 467 539 522 539 q 429 558 444 539 q 414 600 414 576 q 479 725 414 668 q 608 797 533 772 l 611 783 z "},"":{"ha":521,"x_min":119,"x_max":543,"o":"m 346 549 q 436 600 403 572 q 490 689 483 639 q 435 739 435 689 q 489 792 435 792 q 527 773 511 792 q 543 732 543 754 q 478 604 543 663 q 347 533 425 557 l 346 549 m 119 547 q 211 599 178 571 q 264 688 257 638 q 208 738 208 688 q 263 790 208 790 q 301 772 285 790 q 317 731 317 753 q 251 603 317 661 q 121 532 199 556 l 119 547 z "},"":{"ha":669,"x_min":276,"x_max":747,"o":"m 513 703 q 678 633 608 703 q 747 467 747 564 q 678 301 747 371 q 513 232 608 232 q 345 301 414 232 q 276 468 276 369 q 345 634 276 565 q 513 703 414 703 z "},"":{"ha":669,"x_min":-22,"x_max":671,"o":"m -22 211 l -6 251 l 671 251 l 653 211 l -22 211 z "},"":{"ha":1342,"x_min":-22,"x_max":1343,"o":"m -22 211 l -6 251 l 1343 251 l 1325 211 l -22 211 z "},"":{"ha":296,"x_min":108,"x_max":476,"o":"m 188 660 q 138 631 160 660 q 114 599 125 614 l 108 615 q 138 686 108 658 q 208 714 167 714 q 297 688 235 714 q 394 663 360 663 q 442 679 426 663 q 468 722 454 700 l 476 714 q 446 640 476 669 q 371 611 415 611 q 301 625 338 611 q 188 660 210 660 z "},"":{"ha":1329,"x_min":167,"x_max":1393,"o":"m 426 482 q 499 418 426 418 l 499 397 l 286 397 l 288 418 q 337 437 317 418 q 357 485 357 456 l 357 915 l 285 915 q 224 883 247 915 q 193 817 206 860 l 167 817 l 167 936 l 618 936 l 618 817 l 593 815 q 564 882 581 858 q 500 915 539 915 l 426 915 l 426 482 m 807 807 l 803 492 q 819 434 803 450 q 875 418 835 418 l 875 397 l 697 397 l 699 418 q 772 489 772 418 l 771 849 q 740 897 771 879 q 678 915 710 915 l 678 936 l 826 936 l 1042 506 l 1265 936 l 1393 936 l 1393 914 q 1332 893 1356 914 q 1308 835 1308 872 l 1308 485 q 1327 433 1308 447 q 1382 418 1346 418 l 1382 397 l 1171 397 l 1172 418 q 1239 485 1239 418 l 1239 811 l 1026 393 l 1013 393 l 807 807 z "},"":{"ha":444,"x_min":-47,"x_max":618,"o":"m 618 347 q 407 101 517 189 q 110 -12 265 -12 q 1 21 44 -12 q -47 121 -47 58 q -24 187 -47 160 q 38 214 -1 214 q 72 203 58 214 q 85 172 85 193 q 76 138 85 150 q 46 125 67 125 q 8 154 21 125 q -9 127 -6 146 q -12 100 -12 108 q 22 32 -12 57 q 100 7 56 7 q 182 44 153 7 q 211 136 211 82 q 172 267 211 169 q 153 347 153 315 q 197 441 153 407 q 303 475 242 475 q 383 456 349 475 q 426 388 426 431 q 400 335 426 353 q 339 318 374 318 q 358 393 358 354 q 342 439 358 422 q 296 456 325 456 q 241 434 261 456 q 221 378 221 413 q 242 293 221 343 q 288 149 288 183 q 248 58 288 99 q 156 4 208 18 q 417 128 290 21 q 607 353 517 213 l 618 347 m 532 758 q 431 654 467 693 q 338 543 375 594 l 314 543 q 294 652 314 599 q 238 764 274 706 l 251 772 q 308 701 283 735 q 353 626 332 667 q 436 700 406 675 q 525 769 482 739 l 532 758 z "},"":{"ha":444,"x_min":49,"x_max":350,"o":"m 49 24 q 158 135 118 96 q 275 240 207 182 q 217 339 232 310 q 175 447 186 397 l 185 451 q 263 343 215 401 q 350 240 301 294 q 201 128 282 192 q 56 11 128 69 l 49 24 z "},"":{"ha":769,"x_min":13,"x_max":943,"o":"m 142 7 q 343 149 244 7 q 436 390 436 282 q 422 437 436 417 q 379 457 407 457 q 188 317 288 457 q 89 81 89 178 q 100 28 89 49 q 142 7 111 7 m 690 454 q 561 372 638 454 q 468 242 497 304 q 624 300 551 260 q 724 418 724 356 q 690 454 724 454 m 390 474 q 463 451 436 474 q 504 382 490 428 q 603 446 553 422 q 717 474 663 474 q 769 460 749 474 q 790 417 790 447 q 654 290 790 353 q 458 224 565 250 q 425 99 425 161 q 440 39 425 67 q 486 11 456 11 q 738 136 592 11 q 929 356 863 243 l 943 347 q 738 111 861 214 q 458 -14 588 -14 q 377 7 407 -14 q 338 76 347 28 q 238 13 293 38 q 131 -12 183 -12 q 43 21 74 -12 q 13 113 13 54 q 142 351 13 228 q 390 474 272 474 z "},"":{"ha":1043,"x_min":-26,"x_max":1363,"o":"m 1363 938 l 783 47 q 633 -150 711 -62 q 436 -322 532 -264 q 203 -394 319 -394 q 47 -353 110 -394 q -26 -214 -26 -304 q 18 -101 -26 -144 q 132 -58 63 -58 q 193 -67 164 -58 q 253 -94 222 -76 l 247 -108 q 188 -86 204 -90 q 151 -82 172 -82 q 74 -125 100 -82 q 49 -222 49 -168 q 99 -333 49 -292 q 221 -375 149 -375 q 464 -247 331 -375 q 685 25 565 -150 q 847 276 765 150 q 731 154 790 210 q 582 39 651 79 q 425 -12 494 -12 q 340 14 371 -12 q 310 94 310 40 q 425 333 310 168 q 639 629 532 481 q 754 881 754 799 q 736 925 754 910 q 689 940 718 940 q 433 829 563 940 q 297 588 297 713 q 318 521 297 549 q 378 493 339 493 q 476 522 432 493 q 551 596 513 546 l 565 594 q 483 510 529 540 q 371 474 429 474 q 292 506 319 474 q 265 590 265 538 q 418 843 265 721 q 697 960 564 960 q 794 932 758 960 q 831 844 831 904 q 715 599 831 769 q 501 300 608 449 q 386 64 386 133 q 398 23 386 39 q 435 7 410 7 q 765 217 571 7 q 1078 632 910 372 q 1267 938 1172 785 l 1363 938 m 1182 1085 q 1167 1049 1182 1064 q 1129 1033 1151 1033 q 1103 1048 1113 1033 q 1093 1081 1093 1063 q 1108 1119 1093 1104 q 1147 1135 1124 1135 q 1173 1119 1164 1135 q 1182 1085 1182 1104 m 989 1085 q 974 1049 989 1064 q 936 1033 958 1033 q 910 1048 919 1033 q 900 1081 900 1063 q 915 1119 900 1104 q 954 1135 931 1135 q 980 1119 971 1135 q 989 1085 989 1104 z "},"":{"ha":374,"x_min":0,"x_max":0,"o":""},"":{"ha":444,"x_min":-61,"x_max":421,"o":"m 299 282 q 214 142 289 267 q 132 -3 161 54 q 83 -117 128 -10 q 29 -218 49 -199 q 8 -236 17 -231 q -17 -242 -1 -242 q -48 -227 -35 -242 q -61 -193 -61 -212 q -50 -151 -61 -171 q 3 -83 -28 -119 q 65 -14 35 -47 q 181 133 129 65 q 289 289 239 213 l 299 282 m 318 424 q 333 460 318 444 q 369 475 349 475 q 406 460 390 475 q 421 424 421 444 q 406 388 421 403 q 369 372 390 372 q 333 388 349 372 q 318 424 318 403 z "},"":{"ha":669,"x_min":146,"x_max":624,"o":"m 614 614 l 536 474 q 597 460 569 474 q 624 415 624 446 q 604 374 624 390 q 561 357 585 357 l 540 358 q 549 406 549 382 q 544 437 549 425 q 525 453 540 449 l 286 22 l 310 18 q 440 63 361 18 q 557 143 503 97 l 567 133 q 429 33 501 72 q 267 -12 343 -12 l 176 -174 l 164 -171 l 253 -11 q 175 18 204 -11 q 146 97 146 47 q 271 350 146 225 q 521 475 396 475 l 600 618 l 614 614 m 511 456 q 324 325 419 456 q 233 104 233 201 q 242 58 233 78 q 272 26 251 39 l 511 456 z "},"":{"ha":993,"x_min":-89,"x_max":1301,"o":"m 221 357 l 221 375 l 606 375 q 725 608 682 536 q 896 825 807 749 q 1131 922 1007 922 q 1253 876 1206 922 q 1301 754 1301 829 q 1229 568 1301 654 q 1054 476 1153 476 q 974 504 1007 476 q 940 578 940 532 q 1004 713 940 653 q 1139 792 1057 763 l 1142 781 q 1018 707 1069 758 q 958 579 958 649 q 985 519 958 542 q 1053 496 1013 496 q 1206 592 1138 496 q 1269 771 1269 681 q 1235 867 1269 832 q 1138 901 1200 901 q 944 801 1040 901 q 794 583 872 725 q 689 375 742 479 l 1017 375 l 1017 357 l 682 357 q 557 179 628 256 q 386 49 479 96 q 501 13 439 24 q 626 1 564 1 q 813 50 736 1 q 949 197 889 99 l 960 190 q 802 21 899 81 q 583 -39 706 -39 q 456 -19 524 -39 q 333 25 404 -6 q 113 -14 224 -14 q -7 1 49 -14 q -89 71 -89 24 q -65 117 -89 100 q 24 138 -36 138 q 196 111 103 138 q 361 54 228 101 q 499 188 436 101 q 597 357 546 253 l 221 357 m -69 71 q 6 17 -69 35 q 113 4 58 4 q 308 32 219 4 q 199 72 243 57 q 1 119 64 119 q -47 108 -25 119 q -69 71 -69 97 z "},"":{"ha":669,"x_min":215,"x_max":742,"o":"m 274 193 q 217 357 217 265 q 231 446 217 404 q 275 522 244 488 l 215 578 l 260 619 l 317 561 q 396 603 350 589 q 489 618 442 618 q 642 561 576 618 l 700 619 l 742 578 l 683 521 q 726 445 713 488 q 740 357 740 403 q 686 193 740 264 l 742 135 l 700 93 l 646 156 q 571 110 614 126 q 481 94 528 94 q 314 156 388 94 l 260 93 l 215 135 l 274 193 m 688 357 q 626 506 688 442 q 479 571 564 571 q 332 507 393 571 q 271 357 271 443 q 333 206 271 271 q 479 142 394 142 q 625 207 563 142 q 688 357 688 272 z "},"":{"ha":669,"x_min":128,"x_max":1296,"o":"m 563 406 q 432 215 497 310 q 322 10 356 99 l 217 -1 q 481 406 349 201 l 286 406 l 299 425 l 493 425 l 542 504 l 318 504 l 329 524 l 553 524 q 612 646 590 581 q 633 775 633 711 q 583 901 633 861 q 443 940 533 940 q 278 899 347 940 q 194 758 194 849 q 215 707 194 724 q 268 690 236 690 q 325 703 294 690 l 332 697 q 291 651 317 668 q 233 633 265 633 q 159 660 190 633 q 128 731 128 688 q 235 906 128 843 q 446 958 325 958 q 621 915 561 958 q 690 754 690 865 q 676 667 690 717 q 660 614 664 631 q 865 854 757 771 q 1161 958 1000 958 q 1243 947 1208 958 q 1296 893 1296 931 q 1278 847 1296 865 q 1232 829 1260 829 q 1169 860 1192 829 q 1228 908 1228 860 q 1185 936 1228 926 q 1153 940 1165 940 q 940 872 1044 940 q 769 713 851 814 q 639 524 713 642 l 839 524 l 828 504 l 626 504 l 575 425 l 804 425 l 792 406 l 563 406 z "},"":{"ha":296,"x_min":261,"x_max":310,"o":"m 261 350 l 310 350 l 310 -1 l 261 -1 l 261 350 m 261 958 l 310 958 l 310 608 l 261 608 l 261 958 z "},"":{"ha":669,"x_min":-25,"x_max":882,"o":"m 882 815 q 858 751 882 781 q 800 722 835 722 l 781 726 q 806 772 799 753 q 814 821 814 792 q 778 909 814 879 q 685 939 743 939 q 569 891 613 939 q 525 771 525 843 q 613 576 525 701 q 701 381 701 451 q 625 231 701 290 q 463 163 560 179 q 471 96 471 129 q 383 -62 471 -4 q 203 -114 307 -114 q 49 -74 113 -114 q -25 60 -25 -26 q 14 151 -25 114 q 108 189 53 189 q 122 186 114 189 q 138 181 129 183 q 78 124 100 164 q 57 40 57 85 q 100 -58 57 -21 q 207 -96 143 -96 q 343 -53 288 -96 q 404 74 404 -6 q 314 268 404 143 q 224 465 224 393 q 300 621 224 561 q 467 675 369 675 q 450 746 450 713 q 520 899 450 840 q 688 958 590 958 q 819 928 768 958 q 882 815 882 890 m 456 182 q 575 236 531 196 q 625 354 625 282 q 569 510 625 417 q 476 657 522 583 q 349 610 399 657 q 300 485 300 564 q 361 329 300 419 q 456 182 446 204 z "},"":{"ha":296,"x_min":150,"x_max":432,"o":"m 432 656 q 417 619 432 635 q 381 604 401 604 q 353 619 364 604 q 343 650 343 633 q 358 689 343 674 q 397 704 374 704 q 423 689 414 704 q 432 656 432 674 m 238 654 q 222 618 238 633 q 186 603 207 603 q 160 617 169 603 q 150 649 150 631 q 165 688 150 672 q 203 703 181 703 q 228 688 219 703 q 238 654 238 672 z "},"":{"ha":1074,"x_min":83,"x_max":1064,"o":"m 814 344 l 790 247 q 730 211 786 226 q 597 196 674 196 q 384 269 463 196 q 306 476 306 342 q 404 682 306 603 q 624 754 494 754 q 719 743 671 754 q 792 697 792 726 l 792 596 l 768 596 q 721 694 768 661 q 606 726 674 726 q 442 656 500 726 q 385 476 385 585 q 447 294 385 365 q 618 222 508 222 q 792 344 743 222 l 814 344 m 574 958 q 921 815 778 958 q 1064 468 1064 672 q 920 122 1064 265 q 574 -22 776 -22 q 227 122 371 -22 q 83 467 83 265 q 228 814 83 669 q 574 958 372 958 m 575 911 q 270 780 396 911 q 144 468 144 649 q 270 157 144 288 q 575 26 396 26 q 881 157 756 26 q 1007 468 1007 288 q 881 780 1007 649 q 575 911 756 911 z "},"":{"ha":356,"x_min":206,"x_max":606,"o":"m 546 719 l 606 719 q 510 593 544 642 q 439 464 439 493 q 460 447 439 447 q 487 454 474 447 q 519 472 500 461 l 524 458 q 485 440 506 447 q 446 432 464 432 q 413 442 426 432 q 400 472 400 453 q 408 511 400 486 q 344 458 356 467 q 265 432 304 432 q 206 500 206 432 q 289 646 206 567 q 440 725 372 725 q 517 672 499 725 l 546 719 m 263 490 q 286 453 263 453 q 408 542 332 453 q 485 678 485 631 q 474 702 485 696 q 443 708 463 708 q 324 630 385 708 q 263 490 263 551 z "},"":{"ha":594,"x_min":89,"x_max":560,"o":"m 560 439 q 332 221 446 329 q 389 124 379 142 q 433 17 419 68 l 422 13 q 364 93 393 56 q 257 221 342 121 q 406 335 314 263 q 551 451 503 413 l 560 439 m 393 440 q 165 222 279 331 q 222 125 213 143 q 267 18 253 69 l 256 14 q 176 121 217 72 q 89 222 161 140 q 274 364 167 278 q 385 453 329 408 l 393 440 z "},"":{"ha":804,"x_min":282,"x_max":747,"o":"m 699 297 l 282 297 l 282 344 l 747 344 l 747 97 l 699 97 l 699 297 z "},"":{"ha":804,"x_min":282,"x_max":747,"o":"m 282 207 l 282 256 l 747 256 l 747 207 l 282 207 z "},"":{"ha":1074,"x_min":83,"x_max":1064,"o":"m 500 444 l 500 311 q 571 239 500 239 l 571 213 l 346 213 l 346 239 q 403 255 385 239 q 422 311 422 271 l 422 638 q 402 690 422 672 q 346 707 382 707 l 346 735 l 588 735 q 701 706 657 735 q 754 604 754 671 q 723 514 754 551 q 640 457 692 476 q 732 331 686 393 q 839 224 797 246 l 839 213 l 761 213 q 636 351 724 213 q 579 444 607 397 l 500 444 m 497 472 l 567 472 q 651 508 624 472 q 679 601 679 543 q 647 680 679 653 q 563 707 614 707 l 497 707 l 497 472 m 574 958 q 921 815 778 958 q 1064 468 1064 672 q 920 122 1064 265 q 574 -22 776 -22 q 227 122 371 -22 q 83 467 83 265 q 228 814 83 669 q 574 958 372 958 m 575 911 q 270 780 396 911 q 144 468 144 649 q 270 157 144 288 q 575 26 396 26 q 881 157 756 26 q 1007 468 1007 288 q 881 780 1007 649 q 575 911 756 911 z "},"":{"ha":296,"x_min":114,"x_max":453,"o":"m 419 661 q 446 660 429 663 l 453 651 q 438 630 453 636 q 406 624 422 624 l 133 624 q 114 633 114 624 q 134 655 114 649 q 172 661 154 661 l 419 661 z "},"":{"ha":535,"x_min":272,"x_max":657,"o":"m 272 531 q 327 669 272 613 q 463 725 382 725 q 599 669 542 725 q 657 532 657 613 q 601 394 657 451 q 464 338 546 338 q 326 393 381 338 q 272 531 272 449 m 317 531 q 359 423 317 468 q 465 378 401 378 q 568 424 526 378 q 610 532 610 469 q 568 639 610 594 q 463 683 526 683 q 359 638 401 683 q 317 531 317 593 z "},"":{"ha":804,"x_min":282,"x_max":747,"o":"m 490 464 l 539 464 l 539 297 l 747 297 l 747 249 l 539 249 l 539 81 l 490 81 l 490 249 l 282 249 l 282 297 l 490 297 l 490 464 m 282 47 l 747 47 l 747 -1 l 282 -1 l 282 47 z "},"":{"ha":401,"x_min":110,"x_max":622,"o":"m 560 422 q 489 326 526 360 q 381 281 439 281 q 324 294 357 281 q 214 329 242 329 q 165 315 186 329 q 122 281 143 297 l 110 290 q 229 367 115 318 q 435 465 381 431 q 544 618 544 535 q 465 706 544 706 q 391 681 426 706 q 356 617 356 656 q 367 579 356 593 q 401 565 378 565 q 419 568 411 565 q 433 575 426 571 l 439 565 q 411 537 428 549 q 375 525 394 525 q 326 545 343 525 q 308 599 308 565 q 372 694 308 660 q 492 724 426 724 q 581 694 540 724 q 622 619 622 665 q 463 450 622 522 q 221 350 342 400 q 249 360 233 356 q 276 365 264 365 q 368 336 301 365 q 424 321 403 321 q 497 356 461 321 q 546 424 522 381 l 560 422 z "},"":{"ha":401,"x_min":161,"x_max":651,"o":"m 356 518 q 496 536 471 528 q 578 635 578 561 q 563 687 578 668 q 517 706 549 706 q 458 685 485 706 q 432 633 432 664 q 443 599 432 610 q 464 592 450 592 l 496 600 q 477 572 496 582 q 439 563 458 563 q 401 577 418 563 q 383 613 383 592 q 432 694 383 664 q 536 725 481 725 q 617 702 582 725 q 651 636 651 679 q 547 536 651 571 q 457 515 507 522 q 522 489 496 511 q 549 428 549 467 q 461 315 549 357 q 310 282 390 282 q 213 306 256 282 q 161 385 161 335 q 185 443 161 418 q 243 468 208 468 q 267 463 256 468 q 292 450 279 458 l 292 443 q 241 427 261 443 q 221 382 221 411 q 248 319 221 339 q 322 300 275 300 q 429 332 385 300 q 481 429 481 369 q 461 488 481 474 q 401 503 442 503 q 356 501 371 501 l 356 518 z "},"":{"ha":296,"x_min":235,"x_max":421,"o":"m 421 733 q 351 624 421 694 q 242 544 282 553 l 235 551 q 299 611 294 607 q 336 686 336 653 q 342 724 340 717 q 354 746 343 731 q 373 766 365 761 q 390 771 381 771 q 421 733 421 771 z "},"":{"ha":594,"x_min":-422,"x_max":772,"o":"m 314 464 q 158 258 215 339 q 43 53 43 97 q 82 11 43 11 q 322 193 176 11 q 508 464 383 271 l 606 465 q 451 257 528 361 q 340 44 340 99 q 375 6 340 6 q 636 206 463 6 q 756 357 704 283 l 772 351 q 593 132 663 204 q 367 -11 456 -11 q 307 10 331 -11 q 283 65 283 31 q 304 149 283 113 q 194 44 238 76 q 57 -11 122 -11 q 19 -6 35 -11 q -10 13 4 -1 l -328 -437 l -422 -437 l 221 464 l 314 464 z "},"":{"ha":1019,"x_min":135,"x_max":824,"o":"m 824 1079 l 824 996 l 772 996 l 772 -256 l 683 -256 l 683 996 l 463 996 l 463 -256 l 375 -256 l 375 488 q 199 583 263 506 q 135 775 135 661 q 232 1003 135 921 q 472 1079 324 1079 l 824 1079 z "},"":{"ha":333,"x_min":222,"x_max":324,"o":"m 324 232 q 308 196 324 211 q 274 181 293 181 q 238 196 253 181 q 222 231 222 211 q 238 267 222 251 q 272 282 253 282 q 308 267 293 282 q 324 232 324 251 z "},"":{"ha":333,"x_min":222,"x_max":324,"o":"m 324 232 q 308 196 324 211 q 274 181 293 181 q 238 196 253 181 q 222 231 222 211 q 238 267 222 251 q 272 282 253 282 q 308 267 293 282 q 324 232 324 251 z "},"":{"ha":296,"x_min":-211,"x_max":85,"o":"m -210 -224 q -147 -230 -164 -229 q -112 -231 -131 -231 q -28 -215 -65 -231 q 22 -154 22 -194 q 1 -115 22 -125 q -56 -106 -21 -106 l -82 -106 l -19 -4 l -1 -4 l -46 -76 q 38 -86 10 -76 q 85 -147 85 -103 q 7 -231 85 -204 q -121 -249 -47 -249 q -170 -247 -156 -249 q -211 -236 -185 -244 l -210 -224 z "},"":{"ha":401,"x_min":244,"x_max":625,"o":"m 501 633 q 417 597 468 615 q 326 565 367 578 l 324 579 q 472 633 396 594 q 607 718 536 667 l 625 715 q 440 457 450 472 q 339 294 389 382 l 244 281 l 501 633 z "},"":{"ha":356,"x_min":250,"x_max":572,"o":"m 494 725 q 551 705 529 725 q 572 650 572 685 q 483 504 572 576 q 319 432 394 432 q 268 453 286 432 q 250 507 250 474 q 336 651 250 578 q 494 725 422 725 m 493 708 q 367 629 433 708 q 300 488 300 550 q 308 459 300 469 q 333 449 315 449 q 459 526 396 449 q 522 667 522 603 q 515 699 522 690 q 493 708 507 708 z "},"":{"ha":594,"x_min":43,"x_max":513,"o":"m 211 24 q 294 106 225 38 q 439 240 383 193 q 381 340 403 299 q 336 447 351 396 l 347 450 q 426 343 385 394 q 513 242 457 306 q 364 128 451 197 q 218 11 242 29 l 211 24 m 43 22 q 269 240 156 131 q 213 339 233 300 q 168 446 183 396 l 179 450 q 257 342 215 396 q 344 239 290 299 q 235 154 308 213 q 50 10 58 17 l 43 22 z "},"":{"ha":1006,"x_min":244,"x_max":1056,"o":"m 883 174 l 976 174 l 969 147 l 871 147 l 771 7 l 696 -1 l 801 147 l 554 147 l 1001 493 l 1046 493 l 628 176 l 814 174 l 989 413 l 1056 418 l 883 174 m 842 725 l 883 725 l 325 -12 l 283 -12 l 842 725 m 501 633 q 417 597 468 615 q 326 565 367 578 l 324 579 q 472 633 396 594 q 607 718 536 667 l 625 715 q 440 457 450 472 q 339 294 389 382 l 244 281 l 501 633 z "},"":{"ha":1006,"x_min":244,"x_max":1025,"o":"m 964 140 q 892 44 929 78 q 783 -1 842 -1 q 686 31 761 -1 q 624 46 650 46 q 563 26 589 46 q 526 -1 538 6 l 518 1 l 514 7 q 633 86 519 39 q 839 182 790 151 q 949 336 949 251 q 927 398 949 372 q 868 424 906 424 q 794 398 829 424 q 760 335 760 372 q 772 298 760 314 q 804 282 783 282 q 838 292 818 282 l 843 282 q 815 253 832 264 q 778 243 799 243 q 730 263 749 243 q 711 311 711 283 q 774 413 711 376 q 896 443 826 443 q 985 414 946 443 q 1025 336 1025 385 q 867 167 1025 238 q 625 67 746 117 q 652 78 638 74 q 681 83 667 83 q 772 54 706 83 q 828 39 807 39 q 900 74 865 39 q 949 142 925 99 l 964 140 m 826 725 l 868 725 l 310 -12 l 269 -12 l 826 725 m 501 633 q 417 597 468 615 q 326 565 367 578 l 324 579 q 472 633 396 594 q 607 718 536 667 l 625 715 q 440 457 450 472 q 339 294 389 382 l 244 281 l 501 633 z "},"":{"ha":1006,"x_min":161,"x_max":1108,"o":"m 921 725 l 963 725 l 404 -12 l 363 -12 l 921 725 m 356 518 q 496 536 471 528 q 578 635 578 561 q 563 687 578 668 q 517 706 549 706 q 458 685 485 706 q 432 633 432 664 q 443 599 432 610 q 464 592 450 592 l 496 600 q 477 572 496 582 q 439 563 458 563 q 401 577 418 563 q 383 613 383 592 q 432 694 383 664 q 536 725 481 725 q 617 702 582 725 q 651 636 651 679 q 547 536 651 571 q 457 515 507 522 q 522 489 496 511 q 549 428 549 467 q 461 315 549 357 q 310 282 390 282 q 213 306 256 282 q 161 385 161 335 q 185 443 161 418 q 243 468 208 468 q 267 463 256 468 q 292 450 279 458 l 292 443 q 241 427 261 443 q 221 382 221 411 q 248 319 221 339 q 322 300 275 300 q 429 332 385 300 q 481 429 481 369 q 461 488 481 474 q 401 503 442 503 q 356 501 371 501 l 356 518 m 936 172 l 1029 172 l 1022 146 l 924 146 l 824 6 l 749 -3 l 854 146 l 607 146 l 1054 492 l 1099 492 l 681 175 l 867 172 l 1042 411 l 1108 417 l 936 172 z "},"":{"ha":594,"x_min":-3,"x_max":549,"o":"m 446 297 q 301 179 406 233 q 146 88 175 114 q 72 -94 72 21 q 107 -194 72 -156 q 204 -233 142 -233 q 345 -174 283 -233 q 407 -37 407 -115 q 388 38 407 7 q 325 69 368 69 q 267 55 293 69 q 218 14 240 40 l 208 24 q 335 88 253 88 q 419 52 388 88 q 450 -36 450 17 q 361 -192 450 -126 q 186 -251 281 -251 q 49 -210 101 -251 q -3 -86 -3 -168 q 93 82 -3 11 q 285 186 125 106 q 431 301 403 246 l 446 297 m 446 424 q 461 460 446 444 q 497 475 476 475 q 533 460 518 475 q 549 424 549 444 q 533 388 549 403 q 497 372 518 372 q 461 388 476 372 q 446 424 446 403 z "},"":{"ha":1267,"x_min":114,"x_max":1444,"o":"m 803 417 q 654 240 719 310 q 458 67 551 131 q 250 -12 343 -12 q 160 4 192 -12 q 114 81 114 28 q 128 120 114 104 q 167 136 143 136 q 200 121 186 136 q 214 86 214 106 l 189 46 q 222 24 201 31 q 265 18 243 18 q 604 231 408 18 q 988 654 800 443 q 1425 958 1225 903 l 1429 951 q 1147 567 1283 815 q 999 121 999 296 q 1010 54 999 75 q 1068 24 1026 24 q 1318 215 1149 24 q 1433 358 1386 292 l 1444 351 q 1264 131 1332 203 q 1035 -12 1126 -12 q 944 32 974 -12 q 914 142 914 76 q 936 282 914 204 q 983 417 949 326 l 803 417 m 992 436 q 1138 688 1064 582 q 1329 907 1226 815 q 1136 781 1233 861 q 965 615 1051 711 q 815 436 911 556 l 992 436 m 1408 982 l 1400 975 q 1293 1051 1365 975 q 1221 1164 1221 1128 q 1228 1190 1221 1179 q 1251 1201 1236 1201 q 1272 1196 1264 1201 q 1290 1175 1281 1190 q 1304 1122 1299 1160 q 1326 1063 1310 1083 q 1408 982 1367 1022 z "},"":{"ha":1267,"x_min":114,"x_max":1544,"o":"m 803 417 q 654 240 719 310 q 458 67 551 131 q 250 -12 343 -12 q 160 4 192 -12 q 114 81 114 28 q 128 120 114 104 q 167 136 143 136 q 200 121 186 136 q 214 86 214 106 l 189 46 q 222 24 201 31 q 265 18 243 18 q 604 231 408 18 q 988 654 800 443 q 1425 958 1225 903 l 1429 951 q 1147 567 1283 815 q 999 121 999 296 q 1010 54 999 75 q 1068 24 1026 24 q 1318 215 1149 24 q 1433 358 1386 292 l 1444 351 q 1264 131 1332 203 q 1035 -12 1126 -12 q 944 32 974 -12 q 914 142 914 76 q 936 282 914 204 q 983 417 949 326 l 803 417 m 992 436 q 1138 688 1064 582 q 1329 907 1226 815 q 1136 781 1233 861 q 965 615 1051 711 q 815 436 911 556 l 992 436 m 1544 1164 q 1475 1054 1544 1125 q 1365 975 1406 983 l 1357 982 l 1438 1064 q 1465 1138 1449 1075 q 1514 1200 1482 1200 q 1536 1189 1528 1200 q 1544 1164 1544 1178 z "},"":{"ha":1267,"x_min":114,"x_max":1539,"o":"m 803 417 q 654 240 719 310 q 458 67 551 131 q 250 -12 343 -12 q 160 4 192 -12 q 114 81 114 28 q 128 120 114 104 q 167 136 143 136 q 200 121 186 136 q 214 86 214 106 l 189 46 q 222 24 201 31 q 265 18 243 18 q 604 231 408 18 q 988 654 800 443 q 1425 958 1225 903 l 1429 951 q 1147 567 1283 815 q 999 121 999 296 q 1010 54 999 75 q 1068 24 1026 24 q 1318 215 1149 24 q 1433 358 1386 292 l 1444 351 q 1264 131 1332 203 q 1035 -12 1126 -12 q 944 32 974 -12 q 914 142 914 76 q 936 282 914 204 q 983 417 949 326 l 803 417 m 992 436 q 1138 688 1064 582 q 1329 907 1226 815 q 1136 781 1233 861 q 965 615 1051 711 q 815 436 911 556 l 992 436 m 1244 986 q 1346 1089 1304 1044 q 1439 1201 1394 1142 l 1463 1201 q 1485 1086 1463 1144 q 1539 979 1501 1043 l 1526 972 q 1424 1118 1472 1036 q 1319 1025 1363 1061 q 1251 975 1283 996 l 1244 986 z "},"":{"ha":1267,"x_min":114,"x_max":1600,"o":"m 803 417 q 654 240 719 310 q 458 67 551 131 q 250 -12 343 -12 q 160 4 192 -12 q 114 81 114 28 q 128 120 114 104 q 167 136 143 136 q 200 121 186 136 q 214 86 214 106 l 189 46 q 222 24 201 31 q 265 18 243 18 q 604 231 408 18 q 988 654 800 443 q 1425 958 1225 903 l 1429 951 q 1147 567 1283 815 q 999 121 999 296 q 1010 54 999 75 q 1068 24 1026 24 q 1318 215 1149 24 q 1433 358 1386 292 l 1444 351 q 1264 131 1332 203 q 1035 -12 1126 -12 q 944 32 974 -12 q 914 142 914 76 q 936 282 914 204 q 983 417 949 326 l 803 417 m 992 436 q 1138 688 1064 582 q 1329 907 1226 815 q 1136 781 1233 861 q 965 615 1051 711 q 815 436 911 556 l 992 436 m 1311 1090 q 1261 1061 1282 1090 q 1239 1029 1250 1044 l 1231 1046 q 1258 1118 1231 1092 q 1332 1144 1286 1144 q 1444 1110 1356 1144 q 1517 1093 1488 1093 q 1564 1111 1546 1093 q 1593 1153 1578 1132 l 1600 1143 q 1569 1071 1600 1100 q 1496 1042 1539 1042 q 1426 1056 1464 1042 q 1311 1090 1335 1090 z "},"":{"ha":1267,"x_min":114,"x_max":1556,"o":"m 803 417 q 654 240 719 310 q 458 67 551 131 q 250 -12 343 -12 q 160 4 192 -12 q 114 81 114 28 q 128 120 114 104 q 167 136 143 136 q 200 121 186 136 q 214 86 214 106 l 189 46 q 222 24 201 31 q 265 18 243 18 q 604 231 408 18 q 988 654 800 443 q 1425 958 1225 903 l 1429 951 q 1147 567 1283 815 q 999 121 999 296 q 1010 54 999 75 q 1068 24 1026 24 q 1318 215 1149 24 q 1433 358 1386 292 l 1444 351 q 1264 131 1332 203 q 1035 -12 1126 -12 q 944 32 974 -12 q 914 142 914 76 q 936 282 914 204 q 983 417 949 326 l 803 417 m 992 436 q 1138 688 1064 582 q 1329 907 1226 815 q 1136 781 1233 861 q 965 615 1051 711 q 815 436 911 556 l 992 436 m 1556 1085 q 1540 1049 1556 1064 q 1503 1033 1525 1033 q 1476 1048 1486 1033 q 1467 1081 1467 1063 q 1482 1119 1467 1104 q 1521 1135 1497 1135 q 1545 1119 1535 1135 q 1556 1085 1556 1103 m 1364 1086 q 1349 1050 1364 1065 q 1311 1035 1333 1035 q 1285 1049 1294 1035 q 1275 1082 1275 1064 q 1290 1121 1275 1106 q 1329 1136 1306 1136 q 1353 1120 1343 1136 q 1364 1086 1364 1104 z "},"":{"ha":1267,"x_min":114,"x_max":1533,"o":"m 803 417 q 654 240 719 310 q 458 67 551 131 q 250 -12 343 -12 q 160 4 192 -12 q 114 81 114 28 q 128 120 114 104 q 167 136 143 136 q 200 121 186 136 q 214 86 214 106 l 189 46 q 222 24 201 31 q 265 18 243 18 q 604 231 408 18 q 988 654 800 443 q 1425 958 1225 903 l 1429 951 q 1147 567 1283 815 q 999 121 999 296 q 1010 54 999 75 q 1068 24 1026 24 q 1318 215 1149 24 q 1433 358 1386 292 l 1444 351 q 1264 131 1332 203 q 1035 -12 1126 -12 q 944 32 974 -12 q 914 142 914 76 q 936 282 914 204 q 983 417 949 326 l 803 417 m 992 436 q 1138 688 1064 582 q 1329 907 1226 815 q 1136 781 1233 861 q 965 615 1051 711 q 815 436 911 556 l 992 436 m 1449 1193 q 1509 1169 1485 1193 q 1533 1107 1533 1144 q 1488 1006 1533 1049 q 1383 964 1443 964 q 1323 988 1347 964 q 1299 1050 1299 1013 q 1344 1151 1299 1108 q 1449 1193 1389 1193 m 1450 1179 q 1371 1126 1407 1179 q 1335 1026 1335 1072 q 1382 978 1335 978 q 1463 1031 1426 978 q 1499 1131 1499 1085 q 1450 1179 1499 1179 z "},"":{"ha":1342,"x_min":111,"x_max":1615,"o":"m 601 714 q 649 610 649 671 q 568 435 649 511 q 389 358 488 358 q 288 398 325 358 q 251 501 251 438 q 386 744 251 649 q 696 865 501 826 q 1035 897 856 897 q 1175 890 1110 897 q 1317 958 1246 935 q 1474 986 1397 986 q 1564 972 1529 986 q 1615 904 1615 951 q 1557 815 1615 842 q 1429 796 1513 796 q 1370 797 1403 796 q 1301 801 1338 799 q 1144 653 1233 801 q 1047 440 1074 535 q 1233 478 1143 440 q 1261 519 1250 508 q 1304 542 1281 542 l 1374 539 q 1249 414 1300 479 q 1165 260 1190 339 l 1156 263 q 1182 354 1172 324 q 1217 443 1199 406 q 1125 430 1172 436 q 1042 424 1078 424 q 931 207 994 294 q 747 49 851 99 q 890 44 794 49 q 1019 39 985 39 q 1222 82 1135 39 q 1371 197 1296 118 q 1503 358 1408 236 l 1515 356 q 1392 193 1419 226 q 1235 43 1311 96 q 1049 -24 1140 -24 q 942 -7 1003 -24 q 764 32 800 32 q 659 12 728 32 q 558 -8 590 -8 l 531 -7 l 521 6 q 586 35 521 22 q 778 83 756 67 q 888 239 838 132 q 956 421 913 293 l 928 421 q 817 423 853 421 q 729 435 781 425 q 525 156 575 213 q 243 -11 376 -11 q 156 8 190 -11 q 111 82 111 33 q 125 128 111 108 q 164 149 139 149 q 197 135 183 149 q 211 100 211 121 l 185 61 q 213 24 189 35 q 268 13 238 13 q 524 190 367 13 q 810 551 536 204 q 1088 832 983 771 q 961 850 1014 844 q 851 856 908 856 q 486 775 658 856 q 271 501 271 674 q 303 414 271 446 q 390 382 335 382 q 553 455 478 382 q 629 615 629 528 q 593 706 629 669 l 601 714 m 1197 885 q 1348 862 1271 871 q 1492 853 1425 853 q 1557 858 1539 853 q 1596 906 1596 869 q 1550 958 1596 943 q 1474 967 1524 967 q 1333 946 1403 967 q 1197 885 1264 925 m 740 454 q 810 443 768 446 q 893 440 851 440 l 963 440 q 1083 656 1006 563 q 1274 806 1161 750 l 1108 829 q 907 660 1003 760 q 740 454 822 572 z "},"":{"ha":894,"x_min":150,"x_max":1110,"o":"m 735 749 l 733 714 q 763 642 733 664 q 847 619 793 619 q 993 692 928 619 q 1058 846 1058 764 q 1028 919 1058 899 q 944 940 999 940 q 496 685 718 940 q 279 204 279 436 q 319 61 279 118 q 449 -4 365 -4 q 675 100 574 -4 q 776 331 776 204 q 745 412 776 383 q 658 440 714 440 l 657 458 q 783 424 740 458 q 826 310 826 390 q 701 71 826 171 q 442 -22 585 -22 q 262 45 332 -22 q 192 221 192 113 q 448 706 192 454 q 940 958 704 958 q 1058 928 1014 958 q 1110 819 1110 892 q 1024 660 1110 725 q 846 600 944 600 q 753 625 786 600 q 714 711 714 654 l 715 749 l 735 749 m 153 -224 q 215 -230 199 -229 q 250 -231 231 -231 q 335 -215 297 -231 q 385 -154 385 -194 q 363 -115 385 -125 q 307 -106 342 -106 l 281 -106 l 342 -4 l 360 -4 l 315 -76 q 399 -86 371 -76 q 447 -147 447 -103 q 372 -229 447 -203 q 250 -249 318 -249 q 194 -247 217 -249 q 150 -236 172 -244 l 153 -224 z "},"":{"ha":894,"x_min":118,"x_max":989,"o":"m 447 249 q 549 343 490 308 q 675 378 607 378 q 780 344 739 378 q 821 249 821 311 q 672 53 821 138 q 421 -22 542 -22 q 218 28 301 -22 q 118 199 118 88 q 246 422 118 351 q 471 546 358 483 q 499 680 483 558 q 563 864 514 801 q 806 960 638 960 q 929 928 878 960 q 989 821 989 890 q 915 681 989 735 q 760 632 850 632 q 733 635 749 632 q 706 640 717 638 l 707 658 q 768 650 736 650 q 880 703 832 650 q 928 824 928 757 q 891 913 928 885 q 792 940 854 940 q 629 854 674 940 q 583 676 621 838 q 490 533 558 567 q 351 464 422 499 q 247 375 279 424 q 207 221 207 315 q 277 61 207 121 q 449 1 347 1 q 649 64 560 1 q 747 240 747 133 q 725 325 747 294 q 644 360 699 360 q 539 322 592 360 q 458 240 493 290 l 447 249 m 835 982 l 826 975 q 715 1053 772 999 q 647 1164 647 1117 q 655 1190 647 1179 q 676 1201 663 1201 q 714 1178 699 1201 q 729 1125 725 1160 q 754 1064 733 1090 q 793 1022 768 1046 q 835 982 828 989 z "},"":{"ha":894,"x_min":118,"x_max":989,"o":"m 447 249 q 549 343 490 308 q 675 378 607 378 q 780 344 739 378 q 821 249 821 311 q 672 53 821 138 q 421 -22 542 -22 q 218 28 301 -22 q 118 199 118 88 q 246 422 118 351 q 471 546 358 483 q 499 680 483 558 q 563 864 514 801 q 806 960 638 960 q 929 928 878 960 q 989 821 989 890 q 915 681 989 735 q 760 632 850 632 q 733 635 749 632 q 706 640 717 638 l 707 658 q 768 650 736 650 q 880 703 832 650 q 928 824 928 757 q 891 913 928 885 q 792 940 854 940 q 629 854 674 940 q 583 676 621 838 q 490 533 558 567 q 351 464 422 499 q 247 375 279 424 q 207 221 207 315 q 277 61 207 121 q 449 1 347 1 q 649 64 560 1 q 747 240 747 133 q 725 325 747 294 q 644 360 699 360 q 539 322 592 360 q 458 240 493 290 l 447 249 m 971 1163 q 902 1053 971 1122 q 792 975 833 983 l 783 981 q 836 1032 788 985 q 881 1090 869 1064 q 890 1131 885 1100 q 904 1178 894 1163 q 939 1201 919 1201 q 962 1190 953 1201 q 971 1163 971 1178 z "},"":{"ha":894,"x_min":118,"x_max":989,"o":"m 447 249 q 549 343 490 308 q 675 378 607 378 q 780 344 739 378 q 821 249 821 311 q 672 53 821 138 q 421 -22 542 -22 q 218 28 301 -22 q 118 199 118 88 q 246 422 118 351 q 471 546 358 483 q 499 680 483 558 q 563 864 514 801 q 806 960 638 960 q 929 928 878 960 q 989 821 989 890 q 915 681 989 735 q 760 632 850 632 q 733 635 749 632 q 706 640 717 638 l 707 658 q 768 650 736 650 q 880 703 832 650 q 928 824 928 757 q 891 913 928 885 q 792 940 854 940 q 629 854 674 940 q 583 676 621 838 q 490 533 558 567 q 351 464 422 499 q 247 375 279 424 q 207 221 207 315 q 277 61 207 121 q 449 1 347 1 q 649 64 560 1 q 747 240 747 133 q 725 325 747 294 q 644 360 699 360 q 539 322 592 360 q 458 240 493 290 l 447 249 m 671 986 q 772 1089 731 1044 q 865 1201 821 1142 l 888 1200 q 901 1108 888 1154 q 965 979 915 1061 l 951 972 q 850 1118 896 1039 q 746 1025 789 1061 q 678 975 710 996 l 671 986 z "},"":{"ha":894,"x_min":118,"x_max":989,"o":"m 447 249 q 549 343 490 308 q 675 378 607 378 q 780 344 739 378 q 821 249 821 311 q 672 53 821 138 q 421 -22 542 -22 q 218 28 301 -22 q 118 199 118 88 q 246 422 118 351 q 471 546 358 483 q 499 680 483 558 q 563 864 514 801 q 806 960 638 960 q 929 928 878 960 q 989 821 989 890 q 915 681 989 735 q 760 632 850 632 q 733 635 749 632 q 706 640 717 638 l 707 658 q 768 650 736 650 q 880 703 832 650 q 928 824 928 757 q 891 913 928 885 q 792 940 854 940 q 629 854 674 940 q 583 676 621 838 q 490 533 558 567 q 351 464 422 499 q 247 375 279 424 q 207 221 207 315 q 277 61 207 121 q 449 1 347 1 q 649 64 560 1 q 747 240 747 133 q 725 325 747 294 q 644 360 699 360 q 539 322 592 360 q 458 240 493 290 l 447 249 m 982 1085 q 967 1049 982 1064 q 929 1033 951 1033 q 903 1048 913 1033 q 893 1081 893 1063 q 908 1119 893 1104 q 947 1135 924 1135 q 973 1119 964 1135 q 982 1085 982 1104 m 788 1085 q 772 1049 788 1064 q 735 1033 757 1033 q 709 1048 718 1033 q 700 1081 700 1063 q 714 1119 700 1104 q 753 1135 728 1135 q 778 1119 769 1135 q 788 1085 788 1104 z "},"":{"ha":819,"x_min":-24,"x_max":1296,"o":"m 44 217 q 81 203 67 217 q 96 169 96 190 q 82 133 96 147 q 46 119 68 119 l 43 101 q 101 19 43 49 q 210 -4 149 -4 q 538 193 378 -4 q 804 590 671 392 q 1114 892 967 829 l 1072 892 q 799 874 921 892 q 504 783 613 846 q 367 572 367 704 q 397 488 367 519 q 482 456 428 456 q 624 510 563 456 q 686 642 686 565 q 686 667 686 654 q 681 685 682 679 l 697 688 l 707 635 q 635 494 707 551 q 478 436 564 436 q 351 474 399 436 q 299 592 299 515 q 500 817 299 731 q 919 915 656 883 q 1272 938 1103 938 l 1296 922 q 1266 902 1290 907 q 1208 897 1242 897 l 1176 897 q 929 660 1076 897 q 639 217 700 289 q 207 -24 436 -24 q 54 17 121 -24 q -24 146 -24 64 q -5 197 -24 176 q 44 217 14 217 m 1021 982 l 1013 975 q 901 1053 958 999 q 833 1164 833 1117 q 841 1190 833 1179 q 864 1201 849 1201 q 883 1196 872 1201 q 901 1176 893 1190 q 915 1123 910 1163 q 940 1063 921 1083 q 1021 982 981 1022 z "},"":{"ha":819,"x_min":-24,"x_max":1296,"o":"m 44 217 q 81 203 67 217 q 96 169 96 190 q 82 133 96 147 q 46 119 68 119 l 43 101 q 101 19 43 49 q 210 -4 149 -4 q 538 193 378 -4 q 804 590 671 392 q 1114 892 967 829 l 1072 892 q 799 874 921 892 q 504 783 613 846 q 367 572 367 704 q 397 488 367 519 q 482 456 428 456 q 624 510 563 456 q 686 642 686 565 q 686 667 686 654 q 681 685 682 679 l 697 688 l 707 635 q 635 494 707 551 q 478 436 564 436 q 351 474 399 436 q 299 592 299 515 q 500 817 299 731 q 919 915 656 883 q 1272 938 1103 938 l 1296 922 q 1266 902 1290 907 q 1208 897 1242 897 l 1176 897 q 929 660 1076 897 q 639 217 700 289 q 207 -24 436 -24 q 54 17 121 -24 q -24 146 -24 64 q -5 197 -24 176 q 44 217 14 217 m 1158 1163 q 1089 1053 1158 1124 q 979 975 1019 983 l 971 982 l 1051 1064 q 1078 1138 1061 1074 q 1126 1201 1094 1201 q 1150 1190 1142 1201 q 1158 1163 1158 1179 z "},"":{"ha":819,"x_min":-24,"x_max":1296,"o":"m 44 217 q 81 203 67 217 q 96 169 96 190 q 82 133 96 147 q 46 119 68 119 l 43 101 q 101 19 43 49 q 210 -4 149 -4 q 538 193 378 -4 q 804 590 671 392 q 1114 892 967 829 l 1072 892 q 799 874 921 892 q 504 783 613 846 q 367 572 367 704 q 397 488 367 519 q 482 456 428 456 q 624 510 563 456 q 686 642 686 565 q 686 667 686 654 q 681 685 682 679 l 697 688 l 707 635 q 635 494 707 551 q 478 436 564 436 q 351 474 399 436 q 299 592 299 515 q 500 817 299 731 q 919 915 656 883 q 1272 938 1103 938 l 1296 922 q 1266 902 1290 907 q 1208 897 1242 897 l 1176 897 q 929 660 1076 897 q 639 217 700 289 q 207 -24 436 -24 q 54 17 121 -24 q -24 146 -24 64 q -5 197 -24 176 q 44 217 14 217 m 857 986 q 962 1091 918 1043 q 1053 1201 1006 1139 l 1076 1201 q 1096 1085 1076 1138 q 1151 981 1111 1043 l 1139 972 q 1036 1118 1085 1036 q 932 1025 975 1061 q 864 975 896 996 l 857 986 z "},"":{"ha":819,"x_min":-24,"x_max":1296,"o":"m 44 217 q 81 203 67 217 q 96 169 96 190 q 82 133 96 147 q 46 119 68 119 l 43 101 q 101 19 43 49 q 210 -4 149 -4 q 538 193 378 -4 q 804 590 671 392 q 1114 892 967 829 l 1072 892 q 799 874 921 892 q 504 783 613 846 q 367 572 367 704 q 397 488 367 519 q 482 456 428 456 q 624 510 563 456 q 686 642 686 565 q 686 667 686 654 q 681 685 682 679 l 697 688 l 707 635 q 635 494 707 551 q 478 436 564 436 q 351 474 399 436 q 299 592 299 515 q 500 817 299 731 q 919 915 656 883 q 1272 938 1103 938 l 1296 922 q 1266 902 1290 907 q 1208 897 1242 897 l 1176 897 q 929 660 1076 897 q 639 217 700 289 q 207 -24 436 -24 q 54 17 121 -24 q -24 146 -24 64 q -5 197 -24 176 q 44 217 14 217 m 1168 1085 q 1153 1049 1168 1064 q 1115 1033 1138 1033 q 1090 1048 1099 1033 q 1081 1081 1081 1063 q 1094 1119 1081 1106 q 1132 1133 1108 1133 q 1158 1117 1147 1133 q 1168 1085 1168 1101 m 976 1086 q 961 1050 976 1065 q 924 1035 946 1035 q 897 1049 907 1035 q 888 1082 888 1064 q 901 1121 888 1107 q 940 1135 915 1135 q 966 1119 956 1135 q 976 1086 976 1103 z "},"":{"ha":1193,"x_min":131,"x_max":1350,"o":"m 665 463 l 656 472 l 665 482 l 789 482 q 871 618 829 550 q 963 750 921 699 q 1075 864 1013 813 q 947 928 1021 908 q 790 947 872 947 q 383 815 561 947 q 188 449 188 669 q 218 306 188 360 q 339 238 257 238 q 547 378 479 238 q 600 642 600 486 l 618 642 l 619 601 q 547 340 619 449 q 318 214 464 214 q 175 289 226 214 q 131 451 131 354 q 356 826 131 671 q 788 967 558 967 q 953 946 875 967 q 1092 878 1031 925 q 1214 953 1151 924 q 1347 994 1276 982 l 1350 982 q 1225 938 1285 969 q 1111 861 1165 907 q 1199 717 1169 806 q 1224 546 1224 640 q 1033 142 1224 311 q 610 -22 849 -22 q 529 -15 572 -22 q 397 3 417 3 q 336 -3 374 3 q 231 -15 253 -15 q 190 -6 208 -15 q 172 14 172 4 q 190 37 172 29 q 224 44 208 44 q 332 26 247 44 q 393 18 371 18 q 613 200 481 18 q 778 463 667 274 l 665 463 m 858 463 q 744 279 781 333 q 610 121 676 181 q 424 11 526 47 q 505 -1 461 3 q 599 -4 549 -4 q 1008 199 849 -4 q 1157 643 1157 386 q 1142 751 1157 699 q 1094 840 1128 803 q 1001 713 1044 781 q 869 482 967 660 l 1024 482 l 1033 472 l 1024 463 l 858 463 z "},"":{"ha":968,"x_min":-94,"x_max":1463,"o":"m 1347 739 q 1383 782 1369 753 q 1396 840 1396 811 q 1378 885 1396 869 q 1331 900 1361 900 q 1071 711 1217 900 q 835 319 958 564 q 683 -11 772 194 l 671 -10 q 688 160 688 74 q 672 386 688 253 q 638 765 638 689 q 493 465 504 486 q 279 143 386 263 q 10 -10 142 -10 q -57 4 -29 -10 q -94 58 -94 24 q -78 95 -94 81 q -42 110 -62 110 l 0 68 l -18 36 q 13 20 -1 28 q 32 13 28 13 q 350 257 183 13 q 596 713 447 400 q 740 958 713 958 q 713 872 724 914 q 703 790 703 831 q 718 603 703 708 q 754 289 754 353 q 750 221 754 253 q 731 128 746 189 q 876 432 803 293 q 1103 781 994 653 q 1360 947 1244 947 q 1432 924 1401 947 q 1463 860 1463 900 q 1428 781 1463 815 q 1347 728 1394 746 l 1347 739 m 928 1090 q 886 1069 904 1090 q 856 1029 871 1049 l 849 1046 q 876 1117 849 1090 q 949 1144 903 1144 q 1038 1119 975 1144 q 1133 1093 1100 1093 q 1181 1111 1163 1093 q 1210 1153 1194 1132 l 1217 1143 q 1186 1071 1217 1100 q 1113 1042 1156 1042 q 1043 1056 1081 1042 q 928 1090 951 1090 z "},"":{"ha":1043,"x_min":222,"x_max":1215,"o":"m 919 782 q 897 868 919 840 q 818 896 875 896 l 786 893 q 710 772 738 843 q 682 628 682 700 q 847 318 682 424 q 949 544 913 426 q 986 782 986 661 q 972 886 986 851 q 890 940 950 940 q 846 935 867 940 q 807 915 825 929 q 908 883 878 914 q 939 782 939 853 l 919 782 m 456 13 q 674 115 553 13 q 836 303 775 201 q 706 436 753 353 q 658 617 658 519 q 684 763 658 692 q 758 888 710 833 q 440 610 579 842 q 311 197 311 394 q 346 74 311 125 q 456 13 386 13 m 1215 354 q 1115 283 1169 308 q 1001 258 1061 258 q 937 265 969 258 q 871 285 904 271 q 683 90 797 175 q 438 -10 549 -10 q 278 50 333 -10 q 222 215 222 110 q 400 644 222 418 q 779 911 583 878 q 835 945 803 932 q 894 958 867 958 q 1022 896 983 958 q 1054 750 1054 844 q 1000 514 1054 643 q 881 300 956 410 q 1003 276 936 276 q 1106 301 1056 276 q 1206 365 1157 325 l 1215 354 m 929 981 l 921 974 q 811 1051 868 997 q 743 1163 743 1117 q 751 1189 743 1178 q 774 1200 758 1200 q 794 1194 786 1200 q 810 1173 801 1188 q 825 1120 819 1158 q 849 1061 831 1082 q 929 981 889 1021 z "},"":{"ha":1043,"x_min":222,"x_max":1215,"o":"m 919 782 q 897 868 919 840 q 818 896 875 896 l 786 893 q 710 772 738 843 q 682 628 682 700 q 847 318 682 424 q 949 544 913 426 q 986 782 986 661 q 972 886 986 851 q 890 940 950 940 q 846 935 867 940 q 807 915 825 929 q 908 883 878 914 q 939 782 939 853 l 919 782 m 456 13 q 674 115 553 13 q 836 303 775 201 q 706 436 753 353 q 658 617 658 519 q 684 763 658 692 q 758 888 710 833 q 440 610 579 842 q 311 197 311 394 q 346 74 311 125 q 456 13 386 13 m 1215 354 q 1115 283 1169 308 q 1001 258 1061 258 q 937 265 969 258 q 871 285 904 271 q 683 90 797 175 q 438 -10 549 -10 q 278 50 333 -10 q 222 215 222 110 q 400 644 222 418 q 779 911 583 878 q 835 945 803 932 q 894 958 867 958 q 1022 896 983 958 q 1054 750 1054 844 q 1000 514 1054 643 q 881 300 956 410 q 1003 276 936 276 q 1106 301 1056 276 q 1206 365 1157 325 l 1215 354 m 1067 1163 q 997 1053 1067 1124 q 888 974 928 982 l 879 981 l 958 1063 q 988 1143 968 1072 q 1036 1199 1003 1199 q 1058 1188 1050 1199 q 1067 1163 1067 1176 z "},"":{"ha":1043,"x_min":222,"x_max":1215,"o":"m 919 782 q 897 868 919 840 q 818 896 875 896 l 786 893 q 710 772 738 843 q 682 628 682 700 q 847 318 682 424 q 949 544 913 426 q 986 782 986 661 q 972 886 986 851 q 890 940 950 940 q 846 935 867 940 q 807 915 825 929 q 908 883 878 914 q 939 782 939 853 l 919 782 m 456 13 q 674 115 553 13 q 836 303 775 201 q 706 436 753 353 q 658 617 658 519 q 684 763 658 692 q 758 888 710 833 q 440 610 579 842 q 311 197 311 394 q 346 74 311 125 q 456 13 386 13 m 1215 354 q 1115 283 1169 308 q 1001 258 1061 258 q 937 265 969 258 q 871 285 904 271 q 683 90 797 175 q 438 -10 549 -10 q 278 50 333 -10 q 222 215 222 110 q 400 644 222 418 q 779 911 583 878 q 835 945 803 932 q 894 958 867 958 q 1022 896 983 958 q 1054 750 1054 844 q 1000 514 1054 643 q 881 300 956 410 q 1003 276 936 276 q 1106 301 1056 276 q 1206 365 1157 325 l 1215 354 m 767 985 q 868 1088 826 1043 q 961 1200 917 1140 l 983 1200 q 1006 1085 983 1143 q 1060 978 1022 1042 l 1047 971 q 944 1117 985 1039 q 840 1024 883 1060 q 772 974 804 994 l 767 985 z "},"":{"ha":1043,"x_min":222,"x_max":1215,"o":"m 919 782 q 897 868 919 840 q 818 896 875 896 l 786 893 q 710 772 738 843 q 682 628 682 700 q 847 318 682 424 q 949 544 913 426 q 986 782 986 661 q 972 886 986 851 q 890 940 950 940 q 846 935 867 940 q 807 915 825 929 q 908 883 878 914 q 939 782 939 853 l 919 782 m 456 13 q 674 115 553 13 q 836 303 775 201 q 706 436 753 353 q 658 617 658 519 q 684 763 658 692 q 758 888 710 833 q 440 610 579 842 q 311 197 311 394 q 346 74 311 125 q 456 13 386 13 m 1215 354 q 1115 283 1169 308 q 1001 258 1061 258 q 937 265 969 258 q 871 285 904 271 q 683 90 797 175 q 438 -10 549 -10 q 278 50 333 -10 q 222 215 222 110 q 400 644 222 418 q 779 911 583 878 q 835 945 803 932 q 894 958 867 958 q 1022 896 983 958 q 1054 750 1054 844 q 1000 514 1054 643 q 881 300 956 410 q 1003 276 936 276 q 1106 301 1056 276 q 1206 365 1157 325 l 1215 354 m 832 1089 q 790 1068 808 1089 q 760 1028 775 1047 l 753 1044 q 781 1117 753 1090 q 854 1143 808 1143 q 965 1108 878 1143 q 1038 1092 1007 1092 q 1085 1110 1067 1092 q 1114 1151 1099 1131 l 1122 1142 q 1092 1069 1122 1099 q 1017 1040 1061 1040 q 947 1054 985 1040 q 832 1089 856 1089 z "},"":{"ha":1043,"x_min":222,"x_max":1215,"o":"m 919 782 q 897 868 919 840 q 818 896 875 896 l 786 893 q 710 772 738 843 q 682 628 682 700 q 847 318 682 424 q 949 544 913 426 q 986 782 986 661 q 972 886 986 851 q 890 940 950 940 q 846 935 867 940 q 807 915 825 929 q 908 883 878 914 q 939 782 939 853 l 919 782 m 456 13 q 674 115 553 13 q 836 303 775 201 q 706 436 753 353 q 658 617 658 519 q 684 763 658 692 q 758 888 710 833 q 440 610 579 842 q 311 197 311 394 q 346 74 311 125 q 456 13 386 13 m 1215 354 q 1115 283 1169 308 q 1001 258 1061 258 q 937 265 969 258 q 871 285 904 271 q 683 90 797 175 q 438 -10 549 -10 q 278 50 333 -10 q 222 215 222 110 q 400 644 222 418 q 779 911 583 878 q 835 945 803 932 q 894 958 867 958 q 1022 896 983 958 q 1054 750 1054 844 q 1000 514 1054 643 q 881 300 956 410 q 1003 276 936 276 q 1106 301 1056 276 q 1206 365 1157 325 l 1215 354 m 1076 1083 q 1062 1047 1076 1061 q 1025 1032 1047 1032 q 999 1047 1008 1032 q 989 1079 989 1061 q 1003 1118 989 1103 q 1042 1133 1017 1133 q 1067 1118 1058 1133 q 1076 1083 1076 1103 m 883 1085 q 868 1049 883 1064 q 831 1033 853 1033 q 804 1048 814 1033 q 794 1081 794 1063 q 810 1119 794 1104 q 849 1135 825 1135 q 873 1119 863 1135 q 883 1085 883 1103 z "},"":{"ha":804,"x_min":282,"x_max":749,"o":"m 282 431 l 317 464 l 515 265 l 714 464 l 749 431 l 549 232 l 749 32 l 714 -1 l 515 197 l 317 -1 l 282 32 l 481 232 l 282 431 z "},"":{"ha":993,"x_min":208,"x_max":1082,"o":"m 882 772 q 841 817 869 800 q 779 835 813 835 q 460 607 614 835 q 318 222 318 397 q 338 100 318 161 l 882 772 m 1071 990 l 1082 979 l 996 879 q 1035 797 1025 842 q 1044 694 1044 753 q 847 235 1044 482 q 433 -25 640 -25 q 360 -15 392 -25 q 303 24 328 -4 l 219 -71 l 208 -60 l 289 36 q 249 111 263 71 q 236 200 236 151 q 407 617 236 394 q 775 853 588 853 q 896 783 854 853 l 958 860 q 803 939 901 939 q 651 892 731 939 q 447 704 553 833 l 431 711 q 592 875 515 817 q 803 957 700 957 q 902 942 856 957 q 988 892 949 926 l 1071 990 m 344 81 q 387 22 354 44 q 458 0 419 0 q 717 132 586 0 q 910 422 832 249 q 988 719 988 594 q 965 840 988 786 l 903 767 q 911 740 908 756 q 914 707 914 724 q 909 663 914 682 q 892 614 904 643 l 874 618 q 888 663 882 639 q 894 706 894 686 q 890 751 894 736 l 344 81 z "},"":{"ha":1118,"x_min":240,"x_max":1314,"o":"m 1314 938 q 1141 678 1301 918 q 908 318 981 439 q 794 71 794 128 q 809 24 794 42 q 854 7 824 7 q 1008 75 918 7 q 1164 221 1081 129 q 1279 360 1222 285 l 1293 354 q 1171 204 1215 254 q 1011 56 1088 110 q 836 -12 915 -12 q 755 19 782 -12 q 728 107 728 50 q 739 166 728 138 q 771 226 750 194 q 600 72 681 131 q 394 -12 483 -12 q 320 13 350 -12 q 290 83 290 39 q 401 336 290 168 q 610 635 506 485 q 724 882 724 806 q 701 927 724 914 q 647 940 679 940 q 389 830 518 940 q 260 592 260 719 q 356 493 260 493 q 446 524 403 493 q 511 594 481 549 l 529 592 q 454 508 501 542 q 354 474 407 474 q 270 505 300 474 q 240 589 240 536 q 379 844 240 729 q 661 958 518 958 q 753 931 715 958 q 790 851 790 904 q 681 604 790 774 q 476 307 578 456 q 365 71 365 139 q 415 13 365 13 q 721 206 543 13 q 1015 604 849 344 q 1221 938 1118 771 l 1314 938 m 1065 982 l 1057 975 q 946 1053 1007 994 q 878 1164 878 1118 q 887 1190 878 1178 q 910 1201 896 1201 q 946 1178 931 1201 q 961 1124 956 1163 q 985 1061 967 1085 q 1014 1031 996 1047 q 1065 982 1061 986 z "},"":{"ha":1118,"x_min":240,"x_max":1314,"o":"m 1314 938 q 1141 678 1301 918 q 908 318 981 439 q 794 71 794 128 q 809 24 794 42 q 854 7 824 7 q 1008 75 918 7 q 1164 221 1081 129 q 1279 360 1222 285 l 1293 354 q 1171 204 1215 254 q 1011 56 1088 110 q 836 -12 915 -12 q 755 19 782 -12 q 728 107 728 50 q 739 166 728 138 q 771 226 750 194 q 600 72 681 131 q 394 -12 483 -12 q 320 13 350 -12 q 290 83 290 39 q 401 336 290 168 q 610 635 506 485 q 724 882 724 806 q 701 927 724 914 q 647 940 679 940 q 389 830 518 940 q 260 592 260 719 q 356 493 260 493 q 446 524 403 493 q 511 594 481 549 l 529 592 q 454 508 501 542 q 354 474 407 474 q 270 505 300 474 q 240 589 240 536 q 379 844 240 729 q 661 958 518 958 q 753 931 715 958 q 790 851 790 904 q 681 604 790 774 q 476 307 578 456 q 365 71 365 139 q 415 13 365 13 q 721 206 543 13 q 1015 604 849 344 q 1221 938 1118 771 l 1314 938 m 1175 1164 q 1106 1054 1175 1125 q 996 975 1036 983 l 989 981 q 1028 1022 1003 997 q 1068 1064 1064 1058 q 1097 1144 1078 1075 q 1144 1200 1113 1200 q 1167 1189 1158 1200 q 1175 1164 1175 1178 z "},"":{"ha":1118,"x_min":240,"x_max":1314,"o":"m 1314 938 q 1141 678 1301 918 q 908 318 981 439 q 794 71 794 128 q 809 24 794 42 q 854 7 824 7 q 1008 75 918 7 q 1164 221 1081 129 q 1279 360 1222 285 l 1293 354 q 1171 204 1215 254 q 1011 56 1088 110 q 836 -12 915 -12 q 755 19 782 -12 q 728 107 728 50 q 739 166 728 138 q 771 226 750 194 q 600 72 681 131 q 394 -12 483 -12 q 320 13 350 -12 q 290 83 290 39 q 401 336 290 168 q 610 635 506 485 q 724 882 724 806 q 701 927 724 914 q 647 940 679 940 q 389 830 518 940 q 260 592 260 719 q 356 493 260 493 q 446 524 403 493 q 511 594 481 549 l 529 592 q 454 508 501 542 q 354 474 407 474 q 270 505 300 474 q 240 589 240 536 q 379 844 240 729 q 661 958 518 958 q 753 931 715 958 q 790 851 790 904 q 681 604 790 774 q 476 307 578 456 q 365 71 365 139 q 415 13 365 13 q 721 206 543 13 q 1015 604 849 344 q 1221 938 1118 771 l 1314 938 m 875 986 q 976 1089 944 1054 q 1069 1201 1024 1139 l 1093 1201 q 1115 1086 1093 1144 q 1169 979 1132 1043 l 1157 972 q 1054 1118 1094 1040 q 950 1025 993 1061 q 882 975 914 996 l 875 986 z "},"":{"ha":1118,"x_min":240,"x_max":1314,"o":"m 1314 938 q 1141 678 1301 918 q 908 318 981 439 q 794 71 794 128 q 809 24 794 42 q 854 7 824 7 q 1008 75 918 7 q 1164 221 1081 129 q 1279 360 1222 285 l 1293 354 q 1171 204 1215 254 q 1011 56 1088 110 q 836 -12 915 -12 q 755 19 782 -12 q 728 107 728 50 q 739 166 728 138 q 771 226 750 194 q 600 72 681 131 q 394 -12 483 -12 q 320 13 350 -12 q 290 83 290 39 q 401 336 290 168 q 610 635 506 485 q 724 882 724 806 q 701 927 724 914 q 647 940 679 940 q 389 830 518 940 q 260 592 260 719 q 356 493 260 493 q 446 524 403 493 q 511 594 481 549 l 529 592 q 454 508 501 542 q 354 474 407 474 q 270 505 300 474 q 240 589 240 536 q 379 844 240 729 q 661 958 518 958 q 753 931 715 958 q 790 851 790 904 q 681 604 790 774 q 476 307 578 456 q 365 71 365 139 q 415 13 365 13 q 721 206 543 13 q 1015 604 849 344 q 1221 938 1118 771 l 1314 938 m 1186 1085 q 1172 1048 1186 1063 q 1133 1033 1157 1033 q 1107 1048 1117 1033 q 1097 1081 1097 1063 q 1113 1119 1097 1104 q 1151 1135 1128 1135 q 1177 1119 1168 1135 q 1186 1085 1186 1104 m 993 1086 q 978 1050 993 1065 q 940 1035 963 1035 q 914 1049 924 1035 q 904 1082 904 1064 q 919 1121 904 1106 q 958 1136 935 1136 q 984 1121 975 1136 q 993 1086 993 1106 z "},"":{"ha":1043,"x_min":-26,"x_max":1363,"o":"m 1363 938 l 783 47 q 633 -150 711 -62 q 436 -322 532 -264 q 203 -394 319 -394 q 47 -353 110 -394 q -26 -214 -26 -304 q 18 -101 -26 -144 q 132 -58 63 -58 q 193 -67 164 -58 q 253 -94 222 -76 l 247 -108 q 188 -86 204 -90 q 151 -82 172 -82 q 74 -125 100 -82 q 49 -222 49 -168 q 99 -333 49 -292 q 221 -375 149 -375 q 464 -247 331 -375 q 685 25 565 -150 q 847 276 765 150 q 731 154 790 210 q 582 39 651 79 q 425 -12 494 -12 q 340 14 371 -12 q 310 94 310 40 q 425 333 310 168 q 639 629 532 481 q 754 881 754 799 q 736 925 754 910 q 689 940 718 940 q 433 829 563 940 q 297 588 297 713 q 318 521 297 549 q 378 493 339 493 q 476 522 432 493 q 551 596 513 546 l 565 594 q 483 510 529 540 q 371 474 429 474 q 292 506 319 474 q 265 590 265 538 q 418 843 265 721 q 697 960 564 960 q 794 932 758 960 q 831 844 831 904 q 715 599 831 769 q 501 300 608 449 q 386 64 386 133 q 398 23 386 39 q 435 7 410 7 q 765 217 571 7 q 1078 632 910 372 q 1267 938 1172 785 l 1363 938 m 1164 1163 q 1095 1053 1164 1124 q 985 975 1026 983 l 978 981 q 1028 1029 1003 1004 q 1057 1063 1043 1046 q 1082 1124 1076 1086 q 1097 1178 1088 1161 q 1132 1201 1113 1201 q 1155 1190 1146 1201 q 1164 1163 1164 1178 z "},"":{"ha":1043,"x_min":121,"x_max":1249,"o":"m 597 708 q 815 907 657 843 q 1117 958 943 958 q 1181 958 1150 958 q 1249 953 1213 957 l 1249 940 q 1028 826 1146 940 q 865 621 942 743 q 955 686 904 660 q 1056 713 1006 713 q 1128 688 1101 713 q 1154 617 1154 663 q 1039 386 1154 478 q 789 300 931 300 q 711 308 749 300 l 718 324 q 751 319 735 321 q 789 318 767 318 q 991 399 903 318 q 1079 592 1079 479 q 1063 647 1079 626 q 1013 667 1047 667 q 788 489 903 667 q 576 157 682 322 q 263 -22 435 -22 q 169 -3 207 -22 q 121 72 121 22 q 136 113 121 97 q 176 128 151 128 q 206 115 193 128 q 219 85 219 101 q 182 39 219 43 q 213 6 190 17 q 264 -4 236 -4 q 535 218 385 -4 q 808 649 671 433 q 1160 938 986 897 l 1086 942 q 853 883 956 942 q 693 707 750 824 l 597 708 z "},"":{"ha":744,"x_min":-768,"x_max":926,"o":"m -585 -117 q -701 -225 -701 -117 q -654 -329 -701 -287 q -543 -371 -607 -371 q -121 -39 -354 -371 q 279 579 79 269 q 725 913 519 913 q 840 874 792 913 q 888 769 888 835 q 796 617 888 675 q 624 528 710 572 q 531 388 531 472 q 571 242 531 353 q 590 153 590 188 q 554 67 590 106 q 475 10 525 35 q 669 94 578 29 q 913 357 779 172 l 926 350 q 788 179 853 247 q 617 43 700 88 q 404 -11 515 -11 q 300 26 344 -11 q 256 122 256 64 q 278 193 256 164 q 342 222 300 222 l 390 176 l 344 133 l 306 157 q 293 125 299 140 q 288 107 288 110 q 317 35 288 63 q 390 7 346 7 q 482 44 449 7 q 515 140 515 82 q 497 226 515 178 q 456 369 456 339 q 554 507 456 447 q 739 611 646 558 q 838 789 838 683 q 807 865 838 836 q 729 894 776 894 q 349 563 565 894 q -44 -56 151 253 q -546 -389 -297 -389 q -694 -353 -635 -389 q -768 -225 -768 -308 q -723 -131 -768 -162 q -614 -99 -678 -99 l -585 -101 l -585 -117 z "},"":{"ha":594,"x_min":-3,"x_max":771,"o":"m 518 464 l 610 464 q 461 253 476 276 q 353 42 353 89 q 386 7 353 7 q 644 208 475 7 q 761 361 715 293 l 771 357 q 667 214 722 283 q 522 60 588 115 q 372 -12 436 -12 q 317 5 339 -12 q 296 56 296 22 q 303 99 296 75 q 313 124 304 101 q 211 36 233 53 q 89 -12 143 -12 q 22 16 46 -12 q -3 90 -3 44 q 121 339 -3 204 q 358 474 244 474 q 472 386 449 474 l 518 464 m 128 22 q 324 164 217 22 q 426 394 426 300 q 411 439 426 422 q 368 456 396 456 q 174 317 272 456 q 81 86 81 186 q 90 39 81 56 q 128 22 100 22 m 465 551 l 456 546 q 346 624 404 568 q 278 733 278 689 q 285 760 278 749 q 310 771 293 771 q 360 700 344 771 q 376 643 369 654 q 429 583 393 618 q 465 551 446 568 z "},"":{"ha":594,"x_min":-3,"x_max":771,"o":"m 518 464 l 610 464 q 461 253 476 276 q 353 42 353 89 q 386 7 353 7 q 644 208 475 7 q 761 361 715 293 l 771 357 q 667 214 722 283 q 522 60 588 115 q 372 -12 436 -12 q 317 5 339 -12 q 296 56 296 22 q 303 99 296 75 q 313 124 304 101 q 211 36 233 53 q 89 -12 143 -12 q 22 16 46 -12 q -3 90 -3 44 q 121 339 -3 204 q 358 474 244 474 q 472 386 449 474 l 518 464 m 128 22 q 324 164 217 22 q 426 394 426 300 q 411 439 426 422 q 368 456 396 456 q 174 317 272 456 q 81 86 81 186 q 90 39 81 56 q 128 22 100 22 m 601 733 q 532 623 601 693 q 422 544 463 553 l 414 550 q 433 573 417 560 q 466 601 449 586 q 506 672 483 617 q 569 771 544 771 q 592 759 583 771 q 601 733 601 747 z "},"":{"ha":594,"x_min":-3,"x_max":771,"o":"m 518 464 l 610 464 q 461 253 476 276 q 353 42 353 89 q 386 7 353 7 q 644 208 475 7 q 761 361 715 293 l 771 357 q 667 214 722 283 q 522 60 588 115 q 372 -12 436 -12 q 317 5 339 -12 q 296 56 296 22 q 303 99 296 75 q 313 124 304 101 q 211 36 233 53 q 89 -12 143 -12 q 22 16 46 -12 q -3 90 -3 44 q 121 339 -3 204 q 358 474 244 474 q 472 386 449 474 l 518 464 m 128 22 q 324 164 217 22 q 426 394 426 300 q 411 439 426 422 q 368 456 396 456 q 174 317 272 456 q 81 86 81 186 q 90 39 81 56 q 128 22 100 22 m 301 556 q 496 771 413 665 l 518 771 q 540 656 518 714 q 594 550 557 613 l 581 542 q 479 688 518 613 q 375 594 418 631 q 307 544 339 565 l 301 556 z "},"":{"ha":594,"x_min":-3,"x_max":771,"o":"m 518 464 l 610 464 q 461 253 476 276 q 353 42 353 89 q 386 7 353 7 q 644 208 475 7 q 761 361 715 293 l 771 357 q 667 214 722 283 q 522 60 588 115 q 372 -12 436 -12 q 317 5 339 -12 q 296 56 296 22 q 303 99 296 75 q 313 124 304 101 q 211 36 233 53 q 89 -12 143 -12 q 22 16 46 -12 q -3 90 -3 44 q 121 339 -3 204 q 358 474 244 474 q 472 386 449 474 l 518 464 m 128 22 q 324 164 217 22 q 426 394 426 300 q 411 439 426 422 q 368 456 396 456 q 174 317 272 456 q 81 86 81 186 q 90 39 81 56 q 128 22 100 22 m 367 660 q 319 631 339 660 q 294 599 299 603 l 288 615 q 317 686 288 658 q 389 714 346 714 q 456 699 417 714 q 574 664 546 664 q 630 693 613 664 q 649 722 647 722 l 657 714 q 626 640 657 669 q 551 611 596 611 q 482 625 519 611 q 367 660 390 660 z "},"":{"ha":594,"x_min":-3,"x_max":771,"o":"m 518 464 l 610 464 q 461 253 476 276 q 353 42 353 89 q 386 7 353 7 q 644 208 475 7 q 761 361 715 293 l 771 357 q 667 214 722 283 q 522 60 588 115 q 372 -12 436 -12 q 317 5 339 -12 q 296 56 296 22 q 303 99 296 75 q 313 124 304 101 q 211 36 233 53 q 89 -12 143 -12 q 22 16 46 -12 q -3 90 -3 44 q 121 339 -3 204 q 358 474 244 474 q 472 386 449 474 l 518 464 m 128 22 q 324 164 217 22 q 426 394 426 300 q 411 439 426 422 q 368 456 396 456 q 174 317 272 456 q 81 86 81 186 q 90 39 81 56 q 128 22 100 22 m 613 656 q 597 619 613 635 q 560 604 582 604 q 533 619 543 604 q 524 651 524 633 q 540 688 524 674 q 578 703 556 703 q 602 687 592 703 q 613 656 613 671 m 418 656 q 403 619 418 635 q 365 604 388 604 q 340 619 349 604 q 331 651 331 633 q 346 688 331 672 q 382 703 361 703 q 408 687 397 703 q 418 656 418 671 z "},"":{"ha":594,"x_min":-3,"x_max":771,"o":"m 518 464 l 610 464 q 461 253 476 276 q 353 42 353 89 q 386 7 353 7 q 644 208 475 7 q 761 361 715 293 l 771 357 q 667 214 722 283 q 522 60 588 115 q 372 -12 436 -12 q 317 5 339 -12 q 296 56 296 22 q 303 99 296 75 q 313 124 304 101 q 211 36 233 53 q 89 -12 143 -12 q 22 16 46 -12 q -3 90 -3 44 q 121 339 -3 204 q 358 474 244 474 q 472 386 449 474 l 518 464 m 128 22 q 324 164 217 22 q 426 394 426 300 q 411 439 426 422 q 368 456 396 456 q 174 317 272 456 q 81 86 81 186 q 90 39 81 56 q 128 22 100 22 m 510 763 q 567 735 546 763 q 589 671 589 708 q 543 574 589 614 q 440 533 497 533 q 379 558 403 533 q 356 621 356 582 q 402 722 356 681 q 510 763 449 763 m 504 749 q 425 695 461 749 q 389 594 389 642 q 402 560 389 574 q 438 547 415 547 q 517 601 481 547 q 553 700 553 654 q 504 749 553 749 z "},"":{"ha":769,"x_min":-1,"x_max":936,"o":"m 129 22 q 325 164 218 22 q 428 394 428 300 q 413 439 428 422 q 369 456 397 456 q 175 317 274 456 q 82 86 82 186 q 92 39 82 56 q 129 22 101 22 m 685 456 q 557 375 631 456 q 463 244 494 307 q 618 301 540 258 q 718 419 718 357 q 685 456 718 456 m 597 464 l 572 431 q 642 462 606 449 q 713 475 678 475 q 763 461 742 475 q 785 418 785 447 q 649 292 785 354 q 454 225 563 253 q 421 100 421 163 q 436 40 421 68 q 482 13 451 13 q 732 138 588 13 q 924 357 851 242 l 936 349 q 732 113 867 222 q 454 -12 579 -12 q 369 17 400 -12 q 338 101 338 47 q 340 137 338 126 q 350 167 342 147 q 236 51 293 97 q 90 -11 157 -11 q 23 17 47 -11 q -1 90 -1 46 q 123 338 -1 203 q 360 474 247 474 q 474 386 450 474 l 519 464 l 597 464 z "},"":{"ha":444,"x_min":-74,"x_max":613,"o":"m 613 338 q 406 110 531 211 q 132 -12 256 -12 q 47 14 79 -12 q 14 93 14 40 q 140 347 14 219 q 393 475 267 475 q 462 460 432 475 q 492 411 492 446 q 463 365 492 381 q 401 350 435 350 q 412 379 408 367 q 415 407 415 392 q 371 456 415 456 q 186 319 282 456 q 96 99 96 192 q 112 38 96 63 q 164 13 128 13 q 410 135 265 13 q 601 347 533 239 l 613 338 m -72 -224 q 25 -229 -29 -229 q 110 -215 75 -229 q 160 -154 160 -196 q 138 -115 160 -125 q 82 -106 117 -106 l 56 -106 l 118 -4 l 136 -4 l 92 -76 q 175 -86 147 -76 q 222 -147 222 -103 q 147 -229 222 -203 q 25 -249 93 -249 q -30 -247 -8 -249 q -74 -236 -51 -244 l -72 -224 z "},"":{"ha":444,"x_min":21,"x_max":622,"o":"m 367 456 q 239 374 315 456 q 146 243 175 304 q 300 301 228 261 q 400 419 400 357 q 367 456 400 456 m 622 349 q 417 114 554 226 q 142 -12 263 -12 q 52 16 83 -12 q 21 101 21 44 q 149 347 21 219 q 396 475 276 475 q 447 461 425 475 q 468 418 468 447 q 332 292 468 354 q 138 226 243 251 q 113 165 122 197 q 103 100 103 132 q 117 37 103 61 q 168 13 132 13 q 417 139 271 13 q 608 357 540 247 l 622 349 m 414 551 l 406 546 q 294 624 353 569 q 226 733 226 688 q 234 760 226 749 q 257 771 242 771 q 299 733 282 771 q 343 621 321 676 q 376 586 365 597 q 414 551 397 565 z "},"":{"ha":444,"x_min":21,"x_max":622,"o":"m 367 456 q 239 374 315 456 q 146 243 175 304 q 300 301 228 261 q 400 419 400 357 q 367 456 400 456 m 622 349 q 417 114 554 226 q 142 -12 263 -12 q 52 16 83 -12 q 21 101 21 44 q 149 347 21 219 q 396 475 276 475 q 447 461 425 475 q 468 418 468 447 q 332 292 468 354 q 138 226 243 251 q 113 165 122 197 q 103 100 103 132 q 117 37 103 61 q 168 13 132 13 q 417 139 271 13 q 608 357 540 247 l 622 349 m 550 733 q 481 624 550 694 q 371 544 411 553 l 361 551 q 440 629 428 613 q 465 684 461 657 q 473 723 469 711 q 487 753 476 735 q 518 771 497 771 q 541 759 532 771 q 550 733 550 747 z "},"":{"ha":444,"x_min":21,"x_max":622,"o":"m 367 456 q 239 374 315 456 q 146 243 175 304 q 300 301 228 261 q 400 419 400 357 q 367 456 400 456 m 622 349 q 417 114 554 226 q 142 -12 263 -12 q 52 16 83 -12 q 21 101 21 44 q 149 347 21 219 q 396 475 276 475 q 447 461 425 475 q 468 418 468 447 q 332 292 468 354 q 138 226 243 251 q 113 165 122 197 q 103 100 103 132 q 117 37 103 61 q 168 13 132 13 q 417 139 271 13 q 608 357 540 247 l 622 349 m 250 556 q 444 771 357 654 l 467 771 q 489 656 467 714 q 543 550 506 613 l 531 542 q 429 686 469 611 q 325 593 367 626 q 257 544 292 565 l 250 556 z "},"":{"ha":444,"x_min":21,"x_max":622,"o":"m 367 456 q 239 374 315 456 q 146 243 175 304 q 300 301 228 261 q 400 419 400 357 q 367 456 400 456 m 622 349 q 417 114 554 226 q 142 -12 263 -12 q 52 16 83 -12 q 21 101 21 44 q 149 347 21 219 q 396 475 276 475 q 447 461 425 475 q 468 418 468 447 q 332 292 468 354 q 138 226 243 251 q 113 165 122 197 q 103 100 103 132 q 117 37 103 61 q 168 13 132 13 q 417 139 271 13 q 608 357 540 247 l 622 349 m 561 656 q 545 619 561 633 q 508 604 529 604 q 483 619 493 604 q 472 650 472 633 q 488 689 472 674 q 526 704 503 704 q 552 689 543 704 q 561 656 561 674 m 367 654 q 351 618 367 633 q 315 603 336 603 q 289 617 299 603 q 279 649 279 631 q 294 688 279 672 q 332 703 310 703 q 358 688 349 703 q 367 654 367 672 z "},"":{"ha":296,"x_min":-12,"x_max":471,"o":"m 313 464 q 117 183 194 306 q 44 40 44 69 q 71 6 44 6 q 286 146 144 6 q 458 357 413 271 l 471 349 q 292 128 411 244 q 60 -12 147 -12 q -12 60 -12 -12 q 124 322 -12 126 q 224 464 203 433 l 313 464 m 339 551 l 331 544 q 222 621 293 544 q 151 738 151 697 q 160 760 151 750 q 183 771 169 771 q 229 719 214 771 q 253 642 251 643 q 292 593 269 615 q 339 551 300 585 z "},"":{"ha":296,"x_min":-12,"x_max":476,"o":"m 313 464 q 117 183 194 306 q 44 40 44 69 q 71 6 44 6 q 286 146 144 6 q 458 357 413 271 l 471 349 q 292 128 411 244 q 60 -12 147 -12 q -12 60 -12 -12 q 124 322 -12 126 q 224 464 203 433 l 313 464 m 476 733 q 407 624 476 694 q 297 544 338 553 l 289 551 q 368 628 360 617 q 392 686 392 658 q 397 724 396 717 q 410 746 399 731 q 428 766 421 761 q 446 771 436 771 q 476 733 476 771 z "},"":{"ha":296,"x_min":-12,"x_max":471,"o":"m 313 464 q 117 183 194 306 q 44 40 44 69 q 71 6 44 6 q 286 146 144 6 q 458 357 413 271 l 471 349 q 292 128 411 244 q 60 -12 147 -12 q -12 60 -12 -12 q 124 322 -12 126 q 224 464 203 433 l 313 464 m 176 556 q 371 771 281 654 l 394 771 q 415 656 394 711 q 469 550 429 618 l 457 542 q 354 688 394 610 q 250 594 293 631 q 182 544 214 565 l 176 556 z "},"":{"ha":296,"x_min":-12,"x_max":486,"o":"m 313 464 q 117 183 194 306 q 44 40 44 69 q 71 6 44 6 q 286 146 144 6 q 458 357 413 271 l 471 349 q 292 128 411 244 q 60 -12 147 -12 q -12 60 -12 -12 q 124 322 -12 126 q 224 464 203 433 l 313 464 m 486 656 q 471 619 486 635 q 436 604 456 604 q 409 619 419 604 q 399 650 399 633 q 414 689 399 674 q 451 704 429 704 q 477 689 468 704 q 486 656 486 674 m 294 654 q 279 618 294 633 q 243 603 264 603 q 216 617 226 603 q 206 649 206 632 q 221 688 206 672 q 260 703 236 703 q 285 688 276 703 q 294 654 294 672 z "},"":{"ha":594,"x_min":14,"x_max":868,"o":"m 508 688 q 574 875 508 792 q 743 958 640 958 q 810 944 779 958 q 868 903 840 929 l 868 879 q 798 928 826 917 q 742 940 769 940 q 621 850 660 940 q 592 688 592 782 l 721 688 l 731 678 l 721 668 l 590 667 q 551 494 586 632 q 515 347 515 357 q 547 296 515 317 q 611 275 578 275 q 685 295 650 275 q 753 349 721 315 l 765 342 q 694 283 735 306 q 613 260 654 260 q 506 314 543 260 q 363 96 456 186 q 132 -11 253 -11 q 44 22 75 -11 q 14 114 14 56 q 144 352 14 229 q 390 475 274 475 q 475 446 439 475 q 497 556 489 496 q 508 668 500 574 l 386 668 l 376 678 l 386 688 l 508 688 m 142 7 q 343 149 244 7 q 436 390 436 282 q 422 437 436 417 q 379 457 407 457 q 188 317 288 457 q 89 81 89 178 q 100 28 89 49 q 142 7 111 7 z "},"":{"ha":594,"x_min":-87,"x_max":768,"o":"m 297 464 l 118 217 q 263 378 224 342 q 447 474 365 474 q 509 452 485 474 q 533 394 533 431 q 430 208 533 338 q 326 43 326 79 q 363 7 326 7 q 583 146 447 7 q 757 364 690 256 l 768 357 q 590 133 693 240 q 363 -11 451 -11 q 297 10 324 -11 q 271 71 271 32 q 374 255 271 128 q 478 424 478 382 q 439 456 478 456 q 189 272 347 456 q 0 -1 56 118 l -87 -1 q 94 286 -24 106 q 207 460 185 424 l 297 464 m 336 660 q 294 639 313 660 q 264 599 279 618 l 257 615 q 286 686 257 658 q 358 714 315 714 q 471 679 383 714 q 542 663 513 663 q 589 681 571 663 q 618 722 603 701 l 625 714 q 594 640 625 669 q 521 611 564 611 q 451 625 489 611 q 336 660 360 660 z "},"":{"ha":594,"x_min":14,"x_max":765,"o":"m 765 340 q 694 281 732 303 q 613 260 656 260 q 507 314 543 260 q 364 96 467 192 q 132 -11 250 -11 q 44 22 75 -11 q 14 114 14 56 q 144 352 14 231 q 392 474 274 474 q 508 374 483 474 q 611 275 533 275 q 685 295 650 275 q 753 349 721 315 l 765 340 m 142 8 q 343 150 244 8 q 436 392 436 283 q 422 438 436 418 q 379 458 407 458 q 188 319 288 458 q 89 82 89 179 q 100 29 89 50 q 142 8 111 8 m 433 551 l 425 546 q 314 624 372 569 q 246 733 246 688 q 253 760 246 749 q 276 771 261 771 q 295 765 285 771 q 315 745 306 760 q 328 694 324 731 q 350 635 332 658 q 401 583 361 621 q 433 551 426 560 z "},"":{"ha":594,"x_min":14,"x_max":765,"o":"m 765 340 q 694 281 732 303 q 613 260 656 260 q 507 314 543 260 q 364 96 467 192 q 132 -11 250 -11 q 44 22 75 -11 q 14 114 14 56 q 144 352 14 231 q 392 474 274 474 q 508 374 483 474 q 611 275 533 275 q 685 295 650 275 q 753 349 721 315 l 765 340 m 142 8 q 343 150 244 8 q 436 392 436 283 q 422 438 436 418 q 379 458 407 458 q 188 319 288 458 q 89 82 89 179 q 100 29 89 50 q 142 8 111 8 m 571 733 q 502 623 571 693 q 390 544 433 553 l 382 551 q 431 599 392 565 q 481 658 469 633 q 503 747 492 703 q 539 771 517 771 q 562 759 553 771 q 571 733 571 747 z "},"":{"ha":594,"x_min":14,"x_max":765,"o":"m 765 340 q 694 281 732 303 q 613 260 656 260 q 507 314 543 260 q 364 96 467 192 q 132 -11 250 -11 q 44 22 75 -11 q 14 114 14 56 q 144 352 14 231 q 392 474 274 474 q 508 374 483 474 q 611 275 533 275 q 685 295 650 275 q 753 349 721 315 l 765 340 m 142 8 q 343 150 244 8 q 436 392 436 283 q 422 438 436 418 q 379 458 407 458 q 188 319 288 458 q 89 82 89 179 q 100 29 89 50 q 142 8 111 8 m 269 556 q 371 660 319 604 q 465 771 422 717 l 488 771 q 501 681 488 724 q 564 550 514 638 l 550 542 q 449 688 488 613 q 344 594 388 631 q 276 544 308 565 l 269 556 z "},"":{"ha":594,"x_min":14,"x_max":765,"o":"m 765 340 q 694 281 732 303 q 613 260 656 260 q 507 314 543 260 q 364 96 467 192 q 132 -11 250 -11 q 44 22 75 -11 q 14 114 14 56 q 144 352 14 231 q 392 474 274 474 q 508 374 483 474 q 611 275 533 275 q 685 295 650 275 q 753 349 721 315 l 765 340 m 142 8 q 343 150 244 8 q 436 392 436 283 q 422 438 436 418 q 379 458 407 458 q 188 319 288 458 q 89 82 89 179 q 100 29 89 50 q 142 8 111 8 m 336 660 q 294 639 313 660 q 264 599 279 618 l 257 615 q 286 686 257 658 q 358 714 315 714 q 471 679 383 714 q 542 663 513 663 q 589 681 571 663 q 618 722 603 701 l 625 714 q 594 640 625 669 q 521 611 564 611 q 451 625 489 611 q 336 660 360 660 z "},"":{"ha":594,"x_min":14,"x_max":765,"o":"m 765 340 q 694 281 732 303 q 613 260 656 260 q 507 314 543 260 q 364 96 467 192 q 132 -11 250 -11 q 44 22 75 -11 q 14 114 14 56 q 144 352 14 231 q 392 474 274 474 q 508 374 483 474 q 611 275 533 275 q 685 295 650 275 q 753 349 721 315 l 765 340 m 142 8 q 343 150 244 8 q 436 392 436 283 q 422 438 436 418 q 379 458 407 458 q 188 319 288 458 q 89 82 89 179 q 100 29 89 50 q 142 8 111 8 m 581 656 q 565 619 581 635 q 528 604 550 604 q 502 619 513 604 q 492 650 492 633 q 508 689 492 674 q 549 704 525 704 q 572 688 563 704 q 581 656 581 671 m 389 656 q 374 619 389 635 q 336 604 358 604 q 310 619 319 604 q 300 651 300 633 q 316 688 300 674 q 354 703 332 703 q 378 687 368 703 q 389 656 389 671 z "},"":{"ha":804,"x_min":282,"x_max":747,"o":"m 282 207 l 282 256 l 747 256 l 747 207 l 282 207 m 567 40 q 551 6 567 21 q 515 -10 536 -10 q 480 5 496 -10 q 464 40 464 19 q 479 76 464 61 q 515 92 494 92 q 551 76 536 92 q 567 40 567 61 m 567 422 q 551 386 567 401 q 515 371 536 371 q 479 386 494 371 q 464 422 464 401 q 479 458 464 443 q 515 474 494 474 q 551 458 536 474 q 567 422 567 443 z "},"":{"ha":594,"x_min":-15,"x_max":764,"o":"m 415 442 q 379 456 400 456 q 185 313 288 456 q 88 81 88 178 q 93 51 88 71 l 415 442 m 97 35 q 140 6 110 6 q 342 149 242 6 q 435 390 435 282 q 425 429 435 417 l 97 35 m 521 544 l 451 460 q 513 350 488 440 q 608 275 533 275 q 688 297 647 275 q 751 349 718 314 l 764 342 q 693 283 733 306 q 611 260 653 260 q 506 314 542 260 q 363 94 464 192 q 131 -12 250 -12 q 71 3 96 -12 l -4 -86 l -15 -74 l 57 11 q 23 56 35 28 q 11 114 11 83 q 139 350 11 225 q 388 475 267 475 q 435 468 410 475 l 508 556 l 521 544 z "},"":{"ha":594,"x_min":-24,"x_max":771,"o":"m 314 464 q 158 258 208 329 q 43 53 43 97 q 81 13 43 13 q 321 194 175 13 q 508 464 385 274 l 606 464 q 451 257 528 360 q 340 44 340 99 q 376 7 340 7 q 636 206 464 7 q 756 357 704 285 l 771 351 q 592 132 656 200 q 367 -12 454 -12 q 306 8 329 -12 q 283 65 283 28 q 304 149 283 113 q 196 44 239 78 q 58 -11 124 -11 q -1 6 21 -11 q -24 60 -24 24 q 117 324 -24 129 q 221 464 168 393 l 314 464 m 481 553 l 472 546 q 364 622 435 546 q 293 739 293 699 q 302 762 293 751 q 324 772 311 772 q 369 721 354 772 q 393 643 392 644 q 433 594 407 619 q 481 553 451 576 z "},"":{"ha":594,"x_min":-24,"x_max":771,"o":"m 314 464 q 158 258 208 329 q 43 53 43 97 q 81 13 43 13 q 321 194 175 13 q 508 464 385 274 l 606 464 q 451 257 528 360 q 340 44 340 99 q 376 7 340 7 q 636 206 464 7 q 756 357 704 285 l 771 351 q 592 132 656 200 q 367 -12 454 -12 q 306 8 329 -12 q 283 65 283 28 q 304 149 283 113 q 196 44 239 78 q 58 -11 124 -11 q -1 6 21 -11 q -24 60 -24 24 q 117 324 -24 129 q 221 464 168 393 l 314 464 m 617 735 q 547 625 617 696 q 438 546 478 554 l 431 553 q 510 629 501 618 q 533 688 533 660 q 537 715 535 699 q 550 749 539 731 q 569 767 561 763 q 586 772 576 772 q 617 735 617 772 z "},"":{"ha":594,"x_min":-24,"x_max":771,"o":"m 314 464 q 158 258 208 329 q 43 53 43 97 q 81 13 43 13 q 321 194 175 13 q 508 464 385 274 l 606 464 q 451 257 528 360 q 340 44 340 99 q 376 7 340 7 q 636 206 464 7 q 756 357 704 285 l 771 351 q 592 132 656 200 q 367 -12 454 -12 q 306 8 329 -12 q 283 65 283 28 q 304 149 283 113 q 196 44 239 78 q 58 -11 124 -11 q -1 6 21 -11 q -24 60 -24 24 q 117 324 -24 129 q 221 464 168 393 l 314 464 m 317 557 q 511 772 424 656 l 535 772 q 557 657 535 715 q 611 551 574 613 l 599 543 q 496 689 536 611 q 392 596 435 632 q 324 546 356 567 l 317 557 z "},"":{"ha":594,"x_min":-24,"x_max":771,"o":"m 314 464 q 158 258 208 329 q 43 53 43 97 q 81 13 43 13 q 321 194 175 13 q 508 464 385 274 l 606 464 q 451 257 528 360 q 340 44 340 99 q 376 7 340 7 q 636 206 464 7 q 756 357 704 285 l 771 351 q 592 132 656 200 q 367 -12 454 -12 q 306 8 329 -12 q 283 65 283 28 q 304 149 283 113 q 196 44 239 78 q 58 -11 124 -11 q -1 6 21 -11 q -24 60 -24 24 q 117 324 -24 129 q 221 464 168 393 l 314 464 m 628 657 q 613 621 628 636 q 576 606 597 606 q 549 620 560 606 q 539 651 539 635 q 554 690 539 675 q 593 706 569 706 q 619 690 610 706 q 628 657 628 675 m 436 656 q 421 619 436 635 q 385 604 406 604 q 358 619 368 604 q 347 650 347 633 q 363 688 347 672 q 400 703 378 703 q 426 687 415 703 q 436 656 436 671 z "},"":{"ha":594,"x_min":-472,"x_max":764,"o":"m 314 464 q 158 256 236 360 q 42 51 42 92 q 76 11 42 11 q 235 103 140 11 q 396 296 306 171 q 510 464 457 379 l 597 463 q 449 240 535 376 q 306 13 376 126 q 563 133 442 38 q 753 347 667 217 l 764 342 q 564 119 676 207 q 294 -6 438 21 q 151 -196 204 -135 q -25 -351 63 -299 q -253 -415 -132 -415 q -396 -379 -332 -415 q -472 -262 -472 -336 q -421 -156 -472 -190 q -303 -126 -378 -126 q -378 -175 -351 -142 q -406 -258 -406 -208 q -361 -358 -406 -321 q -251 -396 -317 -396 q -14 -287 -136 -396 q 186 -50 82 -203 q 335 185 260 67 q 210 58 258 97 q 49 -10 125 -10 q -10 4 13 -10 q -33 53 -33 18 q 114 321 -33 117 q 219 464 167 392 l 314 464 m 569 732 q 501 622 569 692 q 389 543 432 551 l 381 550 q 429 598 390 564 q 479 657 468 632 q 501 746 490 701 q 538 769 515 769 q 560 758 551 769 q 569 732 569 746 z "},"":{"ha":594,"x_min":-354,"x_max":764,"o":"m 582 865 l 278 428 q 400 474 335 474 q 506 374 478 474 q 608 275 533 275 q 689 296 650 275 q 753 350 728 317 l 764 339 q 694 283 736 306 q 611 260 653 260 q 506 315 539 260 q 368 100 468 200 q 146 -12 256 -12 q 85 13 104 -12 q 65 79 65 39 q 69 118 65 99 q -44 -65 36 65 q -158 -250 -118 -183 q -268 -437 -224 -357 l -354 -437 q 476 865 61 214 l 582 865 m 392 456 q 194 314 300 456 q 88 75 88 172 q 105 27 88 47 q 150 7 122 7 q 347 153 251 7 q 436 394 436 288 q 428 440 436 425 q 392 456 419 456 z "},"":{"ha":594,"x_min":-472,"x_max":764,"o":"m 314 464 q 158 256 236 360 q 42 51 42 92 q 76 11 42 11 q 235 103 140 11 q 396 296 306 171 q 510 464 457 379 l 597 463 q 449 240 535 376 q 306 13 376 126 q 563 133 442 38 q 753 347 667 217 l 764 342 q 564 119 676 207 q 294 -6 438 21 q 151 -196 204 -135 q -25 -351 63 -299 q -253 -415 -132 -415 q -396 -379 -332 -415 q -472 -262 -472 -336 q -421 -156 -472 -190 q -303 -126 -378 -126 q -378 -175 -351 -142 q -406 -258 -406 -208 q -361 -358 -406 -321 q -251 -396 -317 -396 q -14 -287 -136 -396 q 186 -50 82 -203 q 335 185 260 67 q 210 58 258 97 q 49 -10 125 -10 q -10 4 13 -10 q -33 53 -33 18 q 114 321 -33 117 q 219 464 167 392 l 314 464 m 611 654 q 596 618 611 633 q 558 603 581 603 q 532 617 542 603 q 522 650 522 632 q 538 687 522 672 q 576 701 554 701 q 601 685 590 701 q 611 654 611 669 m 417 654 q 401 618 417 633 q 364 603 386 603 q 338 617 347 603 q 329 650 329 632 q 344 686 329 671 q 381 701 360 701 q 406 685 396 701 q 417 654 417 669 z "},"":{"ha":296,"x_min":140,"x_max":476,"o":"m 469 713 l 476 703 q 388 611 450 656 q 276 567 326 567 q 183 605 225 567 q 140 694 140 643 q 150 714 140 713 q 181 656 178 660 q 272 614 210 614 q 382 647 339 614 q 469 713 425 679 z "},"":{"ha":296,"x_min":244,"x_max":332,"o":"m 332 657 q 316 620 332 636 q 279 604 300 604 q 253 619 263 604 q 244 653 244 633 q 260 689 244 674 q 296 704 275 704 q 322 688 311 704 q 332 657 332 672 z "},"":{"ha":296,"x_min":-12,"x_max":471,"o":"m 313 464 q 117 183 194 306 q 44 40 44 69 q 71 6 44 6 q 286 146 144 6 q 458 357 413 271 l 471 349 q 292 128 411 244 q 60 -12 147 -12 q -12 60 -12 -12 q 124 322 -12 126 q 224 464 203 433 l 313 464 z "},"":{"ha":296,"x_min":175,"x_max":408,"o":"m 324 763 q 384 738 360 763 q 408 676 408 714 q 363 576 408 618 q 260 533 318 533 q 199 557 222 533 q 175 619 175 581 q 220 720 175 678 q 324 763 265 763 m 325 749 q 244 696 279 749 q 210 594 210 643 q 223 560 210 574 q 258 547 236 547 q 338 601 301 547 q 374 700 374 654 q 325 749 374 749 z "},"":{"ha":296,"x_min":-11,"x_max":157,"o":"m -11 -156 q 22 -69 -11 -118 q 90 4 56 -19 l 100 -1 q 56 -67 69 -42 q 31 -140 31 -110 q 50 -189 31 -171 q 100 -207 69 -207 q 129 -203 115 -207 q 157 -190 149 -194 l 144 -228 q 109 -242 129 -237 q 67 -247 89 -247 q 9 -221 29 -247 q -11 -156 -11 -194 z "},"":{"ha":296,"x_min":163,"x_max":456,"o":"m 456 760 q 354 657 396 701 q 261 544 306 604 l 239 544 q 219 653 239 600 q 163 765 199 707 l 175 774 q 232 701 207 736 q 278 628 257 667 q 361 701 331 676 q 450 771 407 740 l 456 760 z "},"":{"ha":744,"x_min":-119,"x_max":1203,"o":"m 917 349 q 752 203 882 317 q 553 24 622 90 q 413 -132 449 -76 q 379 -192 396 -161 q 325 -228 356 -228 l 307 -211 q 331 -176 324 -193 q 339 -146 339 -158 q 285 -16 339 -64 q 147 32 231 32 q 35 5 108 32 q -78 -22 -39 -22 q -96 -12 -90 -15 q -119 -1 -115 -3 q -3 40 -119 28 q 143 51 71 44 q 311 174 215 58 q 439 356 369 244 l 215 288 l 215 306 l 454 378 l 593 607 q 449 674 506 621 q 385 815 385 732 q 428 917 385 875 q 529 958 471 958 q 621 938 576 958 l 614 921 q 528 940 572 940 q 441 903 478 940 q 404 817 404 867 q 467 683 404 742 q 606 625 529 625 q 811 850 696 761 q 1090 958 951 958 q 1173 936 1143 958 q 1203 863 1203 914 q 999 649 1203 721 q 674 596 850 596 q 614 501 633 532 q 551 407 581 449 l 793 479 l 793 460 l 538 385 q 379 186 460 265 q 169 46 282 90 l 240 50 q 357 9 311 50 q 415 -104 403 -32 q 574 56 492 -22 q 740 207 608 88 q 908 358 860 314 l 917 349 m 683 615 l 763 613 q 1008 675 888 613 q 1153 863 1153 750 q 1130 920 1153 900 q 1069 940 1107 940 q 914 885 993 940 q 781 757 846 836 q 683 615 735 701 z "},"":{"ha":296,"x_min":-12,"x_max":613,"o":"m 539 610 l 329 513 q 232 371 281 442 q 107 176 156 258 q 44 40 44 71 q 75 7 44 7 q 214 76 131 7 q 358 224 285 135 q 461 358 406 279 l 479 351 q 371 211 432 283 q 221 60 289 114 q 69 -12 131 -12 q 10 4 32 -12 q -12 58 -12 21 q 108 315 -12 135 q 204 453 182 419 l 25 369 l 33 396 l 222 486 q 369 710 281 572 q 515 938 435 811 l 613 938 l 350 543 l 550 636 l 539 610 z "},"":{"ha":222,"x_min":-54,"x_max":546,"o":"m 504 725 l 546 725 l -12 -12 l -54 -12 l 504 725 z "},"":{"ha":594,"x_min":-764,"x_max":786,"o":"m 267 444 q 51 110 199 368 q -189 -229 -83 -126 q -557 -385 -349 -385 q -696 -346 -637 -385 q -764 -224 -764 -300 q -721 -126 -764 -156 q -606 -96 -678 -96 l -606 -108 q -674 -141 -647 -108 q -701 -215 -701 -174 q -661 -326 -701 -286 q -550 -367 -621 -367 q -249 -204 -408 -367 q 8 139 -131 -83 q 189 444 99 292 l 94 444 l 94 464 l 199 464 q 399 761 339 690 q 686 938 547 938 q 756 919 726 938 q 786 863 786 901 q 765 807 786 829 q 711 785 744 785 q 720 826 717 808 q 724 860 724 843 q 668 919 724 919 q 446 735 578 919 q 278 464 418 696 q 399 465 353 464 q 603 471 585 471 q 408 185 475 290 q 336 36 336 71 l 365 7 q 581 146 440 7 q 753 357 703 267 l 767 349 q 588 128 697 238 q 356 -12 446 -12 q 297 9 319 -12 q 274 65 274 31 q 406 313 274 126 q 500 444 453 378 l 267 444 z "},"":{"ha":594,"x_min":-762,"x_max":896,"o":"m 507 464 q 636 658 571 561 q 724 861 724 799 q 668 918 724 918 q 444 733 576 918 q 278 464 421 700 l 507 464 m 896 939 q 717 667 836 849 q 468 276 564 433 q 338 35 340 68 l 369 8 q 582 149 443 8 q 754 360 701 268 l 767 353 q 589 135 715 260 q 363 -11 442 -11 q 303 7 324 -11 q 282 64 282 25 q 406 311 282 125 q 496 446 450 378 l 269 446 q 67 101 103 157 q -206 -232 -74 -117 q -556 -383 -379 -383 q -694 -344 -636 -383 q -762 -221 -762 -299 q -720 -123 -762 -151 q -604 -94 -678 -94 l -604 -107 q -673 -140 -646 -107 q -700 -214 -700 -172 q -660 -325 -700 -285 q -549 -365 -619 -365 q -247 -203 -407 -365 q 10 140 -129 -83 q 190 446 100 293 l 96 446 l 96 465 l 199 465 q 400 763 336 688 q 689 939 549 939 q 764 915 728 939 l 896 939 z "},"":{"ha":894,"x_min":51,"x_max":1178,"o":"m 1063 353 q 872 111 983 210 q 599 -12 733 -12 q 476 25 544 -12 q 282 107 328 107 q 163 64 213 107 q 64 -22 113 21 l 51 -8 q 294 221 72 25 q 726 592 435 344 q 1031 850 1026 846 q 935 807 985 824 q 839 790 886 790 q 700 824 776 790 q 492 897 531 897 q 364 842 417 897 q 311 710 311 786 q 344 614 311 651 q 435 576 378 576 q 479 582 458 576 q 522 597 500 588 l 526 581 q 481 562 501 568 q 436 556 461 556 q 331 599 371 556 q 292 710 292 643 q 374 879 292 815 q 558 938 449 938 q 701 908 619 938 q 938 843 885 843 q 1057 879 1004 843 q 1160 958 1108 918 l 1178 943 q 915 707 1151 910 q 468 332 732 550 q 167 89 219 126 q 278 135 238 124 q 356 147 318 147 q 518 99 414 147 q 681 50 622 50 q 832 101 757 50 q 957 222 893 143 q 1051 358 1003 279 l 1063 353 m 1051 1190 q 857 975 940 1081 l 833 975 q 815 1085 833 1033 q 758 1196 796 1136 l 771 1204 q 826 1135 800 1171 q 872 1057 853 1099 q 956 1133 944 1124 q 1046 1201 996 1168 l 1051 1190 z "},"":{"ha":521,"x_min":-15,"x_max":699,"o":"m 699 354 q 531 124 631 228 q 294 -12 400 -12 q 219 7 261 -12 q 97 51 124 51 q 51 35 72 51 q -7 -10 -3 -8 l -15 3 q 115 117 0 26 q 342 289 169 160 q 508 417 481 394 q 407 386 465 386 q 333 408 382 386 q 258 429 283 429 q 217 410 238 429 q 164 336 197 392 l 151 340 q 210 432 189 408 q 307 475 249 475 q 397 453 340 475 q 476 432 453 432 q 551 459 524 432 q 593 496 578 486 l 603 485 q 461 353 572 444 q 247 186 371 278 q 79 67 136 103 q 132 84 110 78 q 181 90 154 90 q 275 62 215 90 q 351 33 335 33 q 544 161 431 33 q 689 361 629 257 l 699 354 m 600 760 q 497 657 542 704 q 406 544 444 601 l 382 544 q 362 653 382 600 q 306 765 342 707 l 319 774 q 376 702 351 736 q 421 628 400 668 q 504 701 474 676 q 593 771 550 740 l 600 760 z "}}}
